<?xml version="1.0" encoding="iso-8859-1"?>
<!-- Generator: Adobe Illustrator 19.0.0, SVG Export Plug-In . SVG Version: 6.00 Build 0)  -->
<svg version="1.1" id="Capa_1" xmlns="http://www.w3.org/2000/svg" xmlns:xlink="http://www.w3.org/1999/xlink" x="0px" y="0px"
	 viewBox="0 0 496 496" style="enable-background:new 0 0 496 496;" xml:space="preserve">
<g>
	<g>
		<g>
			<polygon points="272,480 64,480 64,256 48,256 48,496 288,496 288,312 272,312 			"/>
			<path d="M240,328c0-39.704-32.304-72-72-72s-72,32.296-72,72c0,39.704,32.304,72,72,72S240,367.704,240,328z M112,328
				c0-30.872,25.12-56,56-56s56,25.128,56,56s-25.12,56-56,56S112,358.872,112,328z"/>
			<polygon points="80,408 80,464 136,464 136,448 96,448 96,408 			"/>
			<polygon points="256,408 240,408 240,448 200,448 200,464 256,464 			"/>
			<path d="M256,224H24c-4.408,0-8-3.592-8-8V96h320v16h16V24c0-13.232-10.768-24-24-24H24C10.768,0,0,10.768,0,24v192
				c0,13.232,10.768,24,24,24h232V224z M16,24c0-4.408,3.592-8,8-8h304c4.408,0,8,3.592,8,8v8H16V24z M16,48h320v32H16V48z"/>
			<path d="M384,128c-61.76,0-112,50.24-112,112s50.24,112,112,112s112-50.24,112-112S445.76,128,384,128z M384,336
				c-52.936,0-96-43.064-96-96c0-52.936,43.064-96,96-96c52.936,0,96,43.064,96,96C480,292.936,436.936,336,384,336z"/>
			<path d="M392,176.408V160h-16v16.408c-17.952,2.016-32,17.112-32,35.592c0,19.848,16.152,36,36,36h8c11.024,0,20,8.968,20,20
				c0,11.032-8.976,20-20,20h-8c-11.024,0-20-8.968-20-20v-4h-16v4c0,18.48,14.048,33.576,32,35.592V320h16v-16.408
				c17.952-2.016,32-17.112,32-35.592c0-19.848-16.152-36-36-36h-8c-11.024,0-20-8.976-20-20s8.976-20,20-20h8
				c11.024,0,20,8.976,20,20v4h16v-4C424,193.52,409.952,178.424,392,176.408z"/>
			<path d="M88.104,131.448C83.168,129.264,77.736,128,72,128c-22.056,0-40,17.944-40,40c0,22.056,17.944,40,40,40
				c5.736,0,11.168-1.264,16.104-3.448C93.192,206.816,98.512,208,104,208c22.056,0,40-17.944,40-40c0-22.056-17.944-40-40-40
				C98.512,128,93.192,129.184,88.104,131.448z M72,192c-13.232,0-24-10.768-24-24s10.768-24,24-24s24,10.768,24,24
				S85.232,192,72,192z M128,168c0,13.232-10.768,24-24,24c-0.064,0-0.12-0.024-0.184-0.024C108.88,185.272,112,177.024,112,168
				s-3.12-17.272-8.184-23.976c0.064,0,0.12-0.024,0.184-0.024C117.232,144,128,154.768,128,168z"/>
		</g>
	</g>
</g>
<g>
</g>
<g>
</g>
<g>
</g>
<g>
</g>
<g>
</g>
<g>
</g>
<g>
</g>
<g>
</g>
<g>
</g>
<g>
</g>
<g>
</g>
<g>
</g>
<g>
</g>
<g>
</g>
<g>
</g>
</svg>
