<?xml version="1.0" encoding="iso-8859-1"?>
<!-- Generator: Adobe Illustrator 19.0.0, SVG Export Plug-In . SVG Version: 6.00 Build 0)  -->
<svg version="1.1" id="Capa_1" xmlns="http://www.w3.org/2000/svg" xmlns:xlink="http://www.w3.org/1999/xlink" x="0px" y="0px"
	 viewBox="0 0 512.8 512.8" style="enable-background:new 0 0 512.8 512.8;" xml:space="preserve">
<g>
	<g>
		<g>
			<path d="M397.6,194c-1.6-0.8-4-1.6-5.6-1.6H273.6l-54.4-23.2l-6.4,14.4l20,8.8h-93.6l-37.6-37.6c-2.4-2.4-5.6-3.2-8.8-1.6
				c-3.2,0.8-4.8,4-4.8,7.2v88c0,4.8,3.2,8,8,8h129.6L203.2,274l9.6,12.8l39.2-30.4h196c3.2,0,6.4-2.4,7.2-5.6
				c0.8-3.2,0-6.4-2.4-8.8L397.6,194z M272.8,240.4l12.8-9.6L276,218l-29.6,22.4H104v-60.8l26.4,26.4c1.6,1.6,3.2,2.4,5.6,2.4h252.8
				l37.6,32H272.8z"/>
			<rect x="144" y="216.4" width="56" height="16"/>
			<rect x="208" y="216.4" width="16" height="16"/>
			<rect x="296" y="216.4" width="16" height="16"/>
			<rect x="320" y="216.4" width="16" height="16"/>
			<rect x="344" y="216.4" width="16" height="16"/>
			<rect x="368" y="216.4" width="16" height="16"/>
			<polygon points="83.2,410 72,421.2 60.8,410 49.6,421.2 60.8,432.4 49.6,443.6 60.8,454.8 72,443.6 83.2,454.8 94.4,443.6 
				83.2,432.4 94.4,421.2 			"/>
			<path d="M512.8,200.4c0-2.4-0.8-4-2.4-5.6L484.8,170l25.6-24.8c1.6-1.6,2.4-4,2.4-5.6c0-2.4-0.8-4-2.4-5.6l-25.6-24.8l25.6-24.8
				c0.8-1.6,1.6-3.2,1.6-5.6c0-2.4-0.8-4-2.4-5.6l-32-30.4c0,0-0.8,0-0.8-0.8c-0.8,0-0.8-0.8-1.6-0.8c-0.8,0-1.6,0-1.6,0h-0.8H392
				V8.4c0-4.8-3.2-8-8-8h-64h-64h-64h-64c-4.8,0-8,3.2-8,8v32H16c-1.6,0-3.2,0.8-4,1.6c-3.2-2.4-7.2-1.6-9.6,0.8
				c-3.2,3.2-3.2,8,0,11.2L28,78.8L2.4,103.6c-1.6,1.6-2.4,3.2-2.4,5.6c0,2.4,0.8,4,2.4,5.6L28,139.6L2.4,164.4
				C0.8,166,0,167.6,0,170c0,2.4,0.8,4,2.4,5.6L28,200.4L2.4,225.2c-1.6,1.6-2.4,3.2-2.4,5.6c0,2.4,0.8,4,2.4,5.6L28,261.2L2.4,286
				c-1.6,1.6-2.4,3.2-2.4,5.6c0,2.4,0.8,4,2.4,5.6L28,322L2.4,346.8c-0.8,0.8-0.8,0.8-0.8,1.6l-0.8,0.8v0.8C0,350.8,0,351.6,0,352.4
				v0.8c0,0.8,0,1.6,0,1.6c0,0.8,0.8,0.8,0.8,1.6c0,0,0,0.8,0.8,0.8c0.8,0.8,1.6,1.6,2.4,1.6c1.6,1.6,3.2,1.6,4,1.6h136v72h-16
				c-4.8,0-8,3.2-8,8v64c0,4.8,3.2,8,8,8h256c4.8,0,8-3.2,8-8v-64c0-4.8-3.2-8-8-8h-4.8l10.4-10.4l0.8-0.8l48.8-60.8h0.8h32
				c0.8,0,2.4,0,3.2-0.8c0.8,0,0.8-0.8,1.6-0.8s0.8-0.8,1.6-0.8l32-30.4c1.6-1.6,2.4-4,2.4-5.6c0-1.6-0.8-4-2.4-5.6l-25.6-24.8
				l25.6-24.8c1.6-1.6,2.4-4,2.4-5.6c0-1.6-0.8-4-2.4-5.6l-25.6-24.8l25.6-24.8C512,204.4,512.8,202,512.8,200.4z M328,16.4h48v62.4
				c-3.2,10.4-12.8,17.6-24,17.6s-20.8-7.2-24-17.6V16.4z M264,16.4h48v62.4c-3.2,10.4-12.8,17.6-24,17.6s-20.8-7.2-24-17.6V16.4z
				 M200,16.4h48v62.4c-3.2,10.4-12.8,17.6-24,17.6s-20.8-7.2-24-17.6V16.4z M136,16.4h48v62.4c-3.2,10.4-12.8,17.6-24,17.6
				s-20.8-7.2-24-17.6V16.4z M376,496.4H136v-48h240V496.4z M442.4,330c-0.8,0.8-0.8,0.8-1.6,1.6l-62.4,79.2l-21.6,21.6H169.6
				c32-35.2,63.2-67.2,112.8-72H312h0.8c0.8,0,0.8,0,1.6,0c0.8,0,0.8,0,0.8-0.8c0,0,0.8,0,0.8-0.8l88-64c15.2-10.4,35.2-20,45.6-8.8
				c4.8,4.8,7.2,12,6.4,20C455.2,315.6,450.4,324.4,442.4,330z M160,419.6v-59.2h68.8C201.6,374.8,180,397.2,160,419.6z M492,322
				l-23.2,22.4H452l1.6-2.4c11.2-8.8,17.6-21.6,19.2-35.2c0-1.6,0-2.4,0-4L492,322z M466.4,225.2c-1.6,1.6-2.4,4-2.4,5.6
				c0,1.6,0.8,4,2.4,5.6l25.6,24.8l-24,23.2c-1.6-3.2-4-6.4-6.4-9.6c-10.4-10.4-30.4-17.6-66.4,7.2l-85.6,62.4
				c-10.4-0.8-20-0.8-28.8,0H28l17.6-16.8c1.6-1.6,2.4-3.2,2.4-5.6c0-2.4-0.8-4-2.4-5.6L20,291.6l25.6-24.8c1.6-1.6,2.4-3.2,2.4-5.6
				s-0.8-4-2.4-5.6L20,230.8L45.6,206c1.6-1.6,2.4-3.2,2.4-5.6c0-2.4-0.8-4-2.4-5.6L20,170l25.6-24.8c1.6-1.6,2.4-3.2,2.4-5.6
				c0-2.4-0.8-4-2.4-5.6L20,109.2l25.6-24.8c1.6-1.6,2.4-3.2,2.4-5.6c0-2.4-0.8-4-2.4-5.6L28,56.4h92v24c0,0.8,0,1.6,0,2.4
				c4.8,17.6,21.6,29.6,40,29.6c12.8,0,24-5.6,32-15.2c8,9.6,19.2,15.2,32,15.2s24-5.6,32-15.2c8,9.6,19.2,15.2,32,15.2
				s24-5.6,32-15.2c8,9.6,19.2,15.2,32,15.2c18.4,0,34.4-12,40-29.6c0-0.8,0-1.6,0-2.4v-24h76.8L492,78.8l-25.6,24.8
				c-1.6,1.6-2.4,4-2.4,5.6s0.8,4,2.4,5.6l25.6,24.8l-25.6,24.8c-1.6,1.6-2.4,4-2.4,5.6c0,2.4,0.8,4,2.4,5.6l25.6,24.8L466.4,225.2z
				"/>
			<path d="M152,80.4h16c4.8,0,8-3.2,8-8s-3.2-8-8-8h-16c-4.8,0-8,3.2-8,8S147.2,80.4,152,80.4z"/>
			<path d="M216,80.4h16c4.8,0,8-3.2,8-8s-3.2-8-8-8h-16c-4.8,0-8,3.2-8,8S211.2,80.4,216,80.4z"/>
			<path d="M280,80.4h16c4.8,0,8-3.2,8-8s-3.2-8-8-8h-16c-4.8,0-8,3.2-8,8S275.2,80.4,280,80.4z"/>
			<path d="M344,80.4h16c4.8,0,8-3.2,8-8s-3.2-8-8-8h-16c-4.8,0-8,3.2-8,8S339.2,80.4,344,80.4z"/>
			<path d="M429.6,290.8c-3.2-3.2-8-3.2-11.2,0s-3.2,8,0,11.2l16,16c1.6,1.6,4,2.4,5.6,2.4c1.6,0,4-0.8,5.6-2.4
				c3.2-3.2,3.2-8,0-11.2L429.6,290.8z"/>
			<path d="M96,136.4h88c4.8,0,8-3.2,8-8s-3.2-8-8-8H96c-4.8,0-8,3.2-8,8S91.2,136.4,96,136.4z"/>
			<path d="M168,280.4H96c-4.8,0-8,3.2-8,8s3.2,8,8,8h72c4.8,0,8-3.2,8-8S172.8,280.4,168,280.4z"/>
			<path d="M168,304.4H96c-4.8,0-8,3.2-8,8s3.2,8,8,8h72c4.8,0,8-3.2,8-8S172.8,304.4,168,304.4z"/>
			<path d="M344,136.4h72c4.8,0,8-3.2,8-8s-3.2-8-8-8h-72c-4.8,0-8,3.2-8,8S339.2,136.4,344,136.4z"/>
			<path d="M344,160.4h72c4.8,0,8-3.2,8-8s-3.2-8-8-8h-72c-4.8,0-8,3.2-8,8S339.2,160.4,344,160.4z"/>
			<path d="M336,480.4h16c4.8,0,8-3.2,8-8s-3.2-8-8-8h-16c-4.8,0-8,3.2-8,8S331.2,480.4,336,480.4z"/>
		</g>
	</g>
</g>
<g>
</g>
<g>
</g>
<g>
</g>
<g>
</g>
<g>
</g>
<g>
</g>
<g>
</g>
<g>
</g>
<g>
</g>
<g>
</g>
<g>
</g>
<g>
</g>
<g>
</g>
<g>
</g>
<g>
</g>
</svg>
