<?xml version="1.0" standalone="no"?><!DOCTYPE svg PUBLIC "-//W3C//DTD SVG 1.1//EN" "http://www.w3.org/Graphics/SVG/1.1/DTD/svg11.dtd" ><svg xmlns="http://www.w3.org/2000/svg"><metadata></metadata><defs><font id="OlexaM.Volochay|Cyreal.org: Federo: 2011" horiz-adv-x="2482"><font-face font-family="Federo" font-weight="400" font-stretch="normal" units-per-em="2048" panose-1="2 0 0 0 0 0 0 0 0 0" ascent="1883" descent="-530" x-height="0" bbox="-27 -592 2446 1927" underline-thickness="102" underline-position="-154" unicode-range="U+0020-feff" /><missing-glyph horiz-adv-x="1184" d="M167 1024 l848 0 l0 -1024 l-848 0 l0 1024 ZM294 127 l594 0 l0 770 l-594 0 l0 -770 Z" /><glyph glyph-name="space" unicode=" " d="" /><glyph glyph-name="exclam" unicode="!" d="M289 0 l-203 0 l0 160 l203 0 l0 -160 ZM56 1487 l263 0 l-80 -1213 l-101 0 l-82 1213 Z" /><glyph glyph-name="quotedbl" unicode="&quot;" d="M361 1163 l-203 0 l0 324 l203 0 l0 -324 ZM720 1163 l-203 0 l0 324 l203 0 l0 -324 Z" /><glyph glyph-name="numbersign" unicode="#" d="M31 430 l240 0 l106 473 l-225 0 l0 121 l253 0 l72 319 l123 0 l-72 -319 l252 0 l72 319 l123 0 l-72 -319 l201 0 l0 -121 l-229 0 l-106 -473 l214 0 l0 -121 l-242 0 l-69 -309 l-123 0 l69 309 l-252 0 l-69 -309 l-123 0 l69 309 l-212 0 l0 121 ZM394 430 l252 0 l106 473 l-252 0 l-106 -473 Z" /><glyph glyph-name="dollar" unicode="$" d="M412 1524 l119 0 l0 -152 q48 -3 86.5 -10 q38.5 -7 75.5 -17 q37 -10 74.5 -22.5 q37.5 -12.5 82.5 -26.5 l-4 -104 q-38 13 -77 25 q-39 12 -81.5 21 q-42.5 9 -90.5 14 q-48 5 -103 5 q-25 0 -58 -8 q-33 -8 -63 -26.5 q-30 -18.5 -51 -49.5 q-21 -31 -21 -77 q0 -17 3.5 -37 q3.5 -20 16 -43.5 q12.5 -23.5 36 -51 q23.5 -27.5 63.5 -59.5 l203 -166 q62 -48 116 -100 q54 -52 93.5 -105.5 q39.5 -53.5 62.5 -107 q23 -53.5 23 -104.5 q0 -84 -33 -147.5 q-33 -63.5 -87.5 -108 q-54.5 -44.5 -124 -69 q-69.5 -24.5 -142.5 -30.5 l0 -131 l-119 0 l0 131 q-109 8 -197 36.5 q-88 28.5 -170 76.5 l13 108 q39 -18 80 -36.5 q41 -18.5 83.5 -33 q42.5 -14.5 86.5 -23.5 q44 -9 88 -9 q147 0 222 60.5 q75 60.5 75 175.5 q-1 71 -48 136 q-47 65 -133 130 l-225 170 q-75 62 -117 113.5 q-42 51.5 -62.5 93.5 q-20.5 42 -25 74.5 q-4.5 32.5 -4.5 56.5 q0 74 28 124.5 q28 50.5 74.5 83 q46.5 32.5 106.5 48.5 q60 16 125 20 l0 152 Z" /><glyph glyph-name="percent" unicode="%" d="M1111 1384 l131 0 l-641 -1415 l-131 0 l641 1415 ZM1320 717 q71 0 134 -28 q63 -28 110 -77 q47 -49 74.5 -115 q27.5 -66 27.5 -141 q0 -76 -27.5 -142 q-27.5 -66 -74.5 -115 q-47 -49 -109.5 -77 q-62.5 -28 -132.5 -28 q-72 0 -135 28 q-63 28 -110.5 77 q-47.5 49 -75 115 q-27.5 66 -27.5 142 q0 75 28 141 q28 66 75.5 115 q47.5 49 110 77 q62.5 28 132.5 28 ZM1320 72 q46 0 78.5 21 q32.5 21 52.5 58.5 q20 37.5 29.5 88.5 q9.5 51 9.5 112 q0 62 -9 114.5 q-9 52.5 -29 90.5 q-20 38 -52.5 59 q-32.5 21 -79.5 21 q-47 0 -79.5 -21 q-32.5 -21 -52.5 -59 q-20 -38 -29 -90.5 q-9 -52.5 -9 -114.5 q0 -61 9.5 -112 q9.5 -51 29.5 -88.5 q20 -37.5 52.5 -58.5 q32.5 -21 78.5 -21 ZM415 1362 q71 0 134 -28 q63 -28 110 -77 q47 -49 74.5 -115 q27.5 -66 27.5 -141 q0 -76 -27.5 -142 q-27.5 -66 -74.5 -115 q-47 -49 -109.5 -77 q-62.5 -28 -132.5 -28 q-72 0 -135 28 q-63 28 -110.5 77 q-47.5 49 -75 115 q-27.5 66 -27.5 142 q0 75 28 141 q28 66 75 115 q47 49 110 77 q63 28 133 28 ZM415 717 q46 0 78.5 21 q32.5 21 52.5 58.5 q20 37.5 29.5 89 q9.5 51.5 9.5 111.5 q0 62 -9 114.5 q-9 52.5 -29 90.5 q-20 38 -52.5 59 q-32.5 21 -79.5 21 q-47 0 -79.5 -21 q-32.5 -21 -52.5 -59 q-20 -38 -29 -90.5 q-9 -52.5 -9 -114.5 q0 -60 9.5 -111.5 q9.5 -51.5 29.5 -89 q20 -37.5 52.5 -58.5 q32.5 -21 78.5 -21 Z" /><glyph glyph-name="ampersand" unicode="&amp;" d="M812 1255 l-334 0 q-40 0 -66 -16 q-26 -16 -26 -59 q0 -27 18 -56 q18 -29 39 -53 l97 -123 l272 307 ZM1050 1356 l-437 -502 l316 -403 l180 215 l0 -174 l-111 -134 l265 -358 l-244 0 l-139 197 l-31 -35 q-28 -32 -64.5 -66 q-36.5 -34 -82.5 -62 q-46 -28 -101.5 -46.5 q-55.5 -18.5 -120.5 -18.5 q-83 0 -149 25 q-66 25 -112.5 68.5 q-46.5 43.5 -71.5 103 q-25 59.5 -25 127.5 q0 52 11 100.5 q11 48.5 38.5 101 q27.5 52.5 73 113 q45.5 60.5 114.5 137.5 l52 58 l-177 241 q-11 15 -23 33 q-12 18 -22 39.5 q-10 21.5 -16 47 q-6 25.5 -6 57.5 q0 60 42.5 97.5 q42.5 37.5 123.5 37.5 l717 0 ZM484 713 l-32 -37 q-14 -15 -39.5 -43.5 q-25.5 -28.5 -50.5 -67 q-25 -38.5 -43.5 -86 q-18.5 -47.5 -18.5 -100.5 q1 -55 18 -100.5 q17 -45.5 47.5 -78.5 q30.5 -33 74 -51 q43.5 -18 98.5 -18 q46 0 83.5 12 q37.5 12 67 30 q29.5 18 51 38.5 q21.5 20.5 35.5 36.5 l33 37 l-324 428 Z" /><glyph glyph-name="quotesingle" unicode="&#39;" d="M361 1163 l-203 0 l0 324 l203 0 l0 -324 Z" /><glyph glyph-name="parenleft" unicode="(" d="M33 643 q0 59 10.5 154.5 q10.5 95.5 43 213 q32.5 117.5 93.5 249.5 q61 132 163 264 l106 0 q-61 -105 -102.5 -219.5 q-41.5 -114.5 -67.5 -229 q-26 -114.5 -37.5 -225 q-11.5 -110.5 -11.5 -207.5 q0 -96 11.5 -206.5 q11.5 -110.5 37.5 -225.5 q26 -115 67.5 -229.5 q41.5 -114.5 102.5 -219.5 l-106 0 q-102 132 -163 264 q-61 132 -93.5 249.5 q-32.5 117.5 -43 213 q-10.5 95.5 -10.5 154.5 Z" /><glyph glyph-name="parenright" unicode=")" d="M477 643 q0 -59 -10.5 -154.5 q-10.5 -95.5 -43 -213 q-32.5 -117.5 -93.5 -249.5 q-61 -132 -162 -264 l-107 0 q61 105 103 219.5 q42 114.5 68 229 q26 114.5 37.5 225 q11.5 110.5 11.5 207.5 q0 97 -11.5 207.5 q-11.5 110.5 -37.5 225 q-26 114.5 -68 229 q-42 114.5 -103 219.5 l107 0 q101 -132 162 -264 q61 -132 93.5 -249.5 q32.5 -117.5 43 -213 q10.5 -95.5 10.5 -154.5 Z" /><glyph glyph-name="asterisk" unicode="*" d="M721 1307 l55 -170 l-319 -43 l235 -220 l-145 -106 l-139 291 l-138 -293 l-145 106 l234 222 l-320 41 l55 170 l283 -154 l-61 317 l180 0 l-60 -317 l285 156 Z" /><glyph glyph-name="plus" unicode="+" d="M450 504 l-449 0 l0 139 l449 0 l0 449 l139 0 l0 -449 l449 0 l0 -139 l-449 0 l0 -449 l-139 0 l0 449 Z" /><glyph glyph-name="comma" unicode="," d="M160 160 l203 0 l0 -160 q0 -41 -15 -73 q-15 -32 -41 -54 q-26 -22 -61 -33.5 q-35 -11.5 -75 -11.5 l-99 0 l0 90 q29 0 46.5 1.5 q17.5 1.5 26.5 9.5 q9 8 12 24.5 q3 16.5 3 46.5 l0 160 Z" /><glyph glyph-name="hyphen" unicode="-" d="M158 504 l0 139 l606 0 l0 -139 l-606 0 Z" /><glyph glyph-name="period" unicode="." d="M361 0 l-203 0 l0 160 l203 0 l0 -160 Z" /><glyph glyph-name="slash" unicode="/" d="M854 1486 l151 0 l-853 -1806 l-152 0 l854 1806 Z" /><glyph glyph-name="zero" unicode="0" d="M611 1378 q93 0 167.5 -30.5 q74.5 -30.5 131 -83 q56.5 -52.5 97 -122 q40.5 -69.5 66.5 -147.5 q26 -78 38 -160 q12 -82 12 -159 q0 -77 -12 -159 q-12 -82 -38 -160.5 q-26 -78.5 -66.5 -148.5 q-40.5 -70 -97 -122.5 q-56.5 -52.5 -131 -83.5 q-74.5 -31 -167.5 -31 q-93 0 -167 31 q-74 31 -131 83.5 q-57 52.5 -97.5 122.5 q-40.5 70 -66.5 148.5 q-26 78.5 -38 160.5 q-12 82 -12 159 q0 77 12 159 q12 82 38 160 q26 78 66.5 147.5 q40.5 69.5 97.5 122 q57 52.5 131 83 q74 30.5 167 30.5 ZM611 63 q70 0 118.5 30 q48.5 30 81.5 79.5 q33 49.5 51.5 113 q18.5 63.5 27.5 131.5 q9 68 11.5 135 q2.5 67 2.5 122 q0 56 -2.5 123.5 q-2.5 67.5 -11.5 135.5 q-9 68 -27.5 131.5 q-18.5 63.5 -51.5 113 q-33 49.5 -81.5 79 q-48.5 29.5 -118.5 29.5 q-70 0 -118.5 -29.5 q-48.5 -29.5 -81 -79 q-32.5 -49.5 -51 -113 q-18.5 -63.5 -27.5 -131.5 q-9 -68 -11.5 -135.5 q-2.5 -67.5 -2.5 -123.5 q0 -55 2.5 -122 q2.5 -67 11.5 -135 q9 -68 27.5 -131.5 q18.5 -63.5 51 -113 q32.5 -49.5 81 -79.5 q48.5 -30 118.5 -30 Z" /><glyph glyph-name="one" unicode="1" d="M371 0 l-219 0 l0 1212 l-137 -24 l0 94 l290 74 l66 0 l0 -1356 Z" /><glyph glyph-name="two" unicode="2" d="M640 981 q0 64 -14.5 117.5 q-14.5 53.5 -44.5 92 q-30 38.5 -76 60 q-46 21.5 -109 21.5 q-32 0 -63 -1 q-31 -1 -65.5 -6.5 q-34.5 -5.5 -74 -15.5 q-39.5 -10 -88.5 -28 l0 100 q53 19 97 30.5 q44 11.5 80 17.5 q36 6 64 7.5 q28 1.5 50 1.5 q238 0 361.5 -100 q123.5 -100 123.5 -297 q0 -68 -27 -136.5 q-27 -68.5 -73 -137.5 q-46 -69 -106 -139 q-60 -70 -126 -141.5 q-66 -71.5 -134 -145 q-68 -73.5 -128 -150.5 l604 0 l0 -131 l-831 0 l313 399 q81 102 132.5 189.5 q51.5 87.5 81.5 161 q30 73.5 41.5 131.5 q11.5 58 11.5 100 Z" /><glyph glyph-name="three" unicode="3" d="M33 1255 l0 101 l600 0 q60 0 96 -13 q36 -13 55 -32 q19 -19 25 -40.5 q6 -21.5 6 -39.5 q0 -48 -22.5 -89 q-22.5 -41 -61.5 -81 l-260 -264 q89 0 156 -22 q67 -22 112 -60.5 q45 -38.5 67.5 -92 q22.5 -53.5 22.5 -116.5 q0 -93 -34 -166 q-34 -73 -92.5 -129 q-58.5 -56 -136.5 -96 q-78 -40 -166.5 -67.5 q-88.5 -27.5 -182.5 -43.5 q-94 -16 -184 -24 l0 100 q52 2 118.5 12.5 q66.5 10.5 151.5 42.5 q76 29 130 65.5 q54 36.5 88 80.5 q34 44 49.5 95 q15.5 51 15.5 108 q0 43 -12 79.5 q-12 36.5 -40 63.5 q-28 27 -74.5 42 q-46.5 15 -115.5 15 l-176 0 l0 57 l336 336 q25 25 47 56 q22 31 22 61 q0 35 -23 47 q-23 12 -79 12 l-438 2 Z" /><glyph glyph-name="four" unicode="4" d="M883 342 l121 0 l0 -100 l-121 0 l0 -242 l-219 0 l0 242 l-664 0 l0 88 l738 1026 l145 0 l0 -1014 ZM664 342 l0 735 l-529 -735 l529 0 Z" /><glyph glyph-name="five" unicode="5" d="M823 1184 l-443 0 l-115 -271 q15 8 39 13 q24 5 50.5 8 q26.5 3 52 4.5 q25.5 1.5 43.5 1.5 q118 0 205 -33 q87 -33 144 -88.5 q57 -55.5 84.5 -128 q27.5 -72.5 27.5 -151.5 q0 -152 -55.5 -259.5 q-55.5 -107.5 -149.5 -176 q-94 -68.5 -218.5 -100.5 q-124.5 -32 -262.5 -32 q-45 0 -93 4 q-48 4 -96 17 l0 96 q18 -5 42 -8.5 q24 -3.5 48 -6 q24 -2.5 45 -4 q21 -1.5 33 -1.5 q121 0 213.5 35.5 q92.5 35.5 154 94.5 q61.5 59 93 136.5 q31.5 77.5 31.5 161.5 q0 87 -23.5 151.5 q-23.5 64.5 -65.5 107 q-42 42.5 -100.5 64 q-58.5 21.5 -128.5 21.5 q-57 0 -100.5 -8 q-43.5 -8 -78 -20 q-34.5 -12 -63.5 -27.5 q-29 -15.5 -57 -30.5 l270 602 l537 0 l-63 -172 Z" /><glyph glyph-name="six" unicode="6" d="M543 61 q62 0 109.5 32 q47.5 32 79.5 81 q32 49 48.5 106 q16.5 57 16.5 107 q0 105 -25 173.5 q-25 68.5 -63 109 q-38 40.5 -83 57 q-45 16.5 -85 16.5 q-40 0 -76 -9 q-36 -9 -67 -24 q-31 -15 -57.5 -35 q-26.5 -20 -47.5 -42 l0 -150 q0 -212 58 -317 q58 -105 192 -105 ZM232 1026 q43 58 105.5 115.5 q62.5 57.5 140.5 106 q78 48.5 168 83 q90 34.5 188 45.5 l0 -86 q-87 -20 -153 -48.5 q-66 -28.5 -116.5 -64 q-50.5 -35.5 -88 -76 q-37.5 -40.5 -66.5 -85.5 q-37 -56 -64 -122 q-27 -66 -41 -159 q37 31 76 51.5 q39 20.5 77 33 q38 12.5 74 17.5 q36 5 68 5 q111 0 190 -38.5 q79 -38.5 128.5 -98.5 q49.5 -60 72.5 -134 q23 -74 23 -145 q0 -59 -12.5 -108 q-12.5 -49 -32 -89.5 q-19.5 -40.5 -44.5 -72 q-25 -31.5 -50 -54.5 q-26 -27 -59.5 -51 q-33.5 -24 -74.5 -42 q-41 -18 -89 -28 q-48 -10 -103 -10 q-130 0 -219.5 43 q-89.5 43 -146 117 q-56.5 74 -82.5 173 q-26 99 -29 212 q0 67 10.5 135.5 q10.5 68.5 30.5 134.5 q20 66 50 127 q30 61 69 113 Z" /><glyph glyph-name="seven" unicode="7" d="M936 1356 l-604 -1356 l-123 0 l510 1157 l-661 0 l94 199 l784 0 Z" /><glyph glyph-name="eight" unicode="8" d="M365 735 q-44 25 -83.5 57 q-39.5 32 -69.5 72.5 q-30 40.5 -48 90.5 q-18 50 -18 110 q0 64 32 120.5 q32 56.5 89.5 99.5 q57.5 43 136.5 68 q79 25 174 25 q73 0 137 -20.5 q64 -20.5 111.5 -59.5 q47.5 -39 75 -95 q27.5 -56 27.5 -126 q0 -46 -17 -86 q-17 -40 -47.5 -76.5 q-30.5 -36.5 -72.5 -71 q-42 -34.5 -93 -69.5 l84 -55 q53 -35 95 -70.5 q42 -35.5 70.5 -77 q28.5 -41.5 43.5 -91 q15 -49.5 15 -111.5 q0 -92 -39 -166 q-39 -74 -106 -125.5 q-67 -51.5 -155.5 -79 q-88.5 -27.5 -187.5 -27.5 q-86 0 -163 24.5 q-77 24.5 -135 73 q-58 48.5 -92 119.5 q-34 71 -34 164 q0 60 22.5 113.5 q22.5 53.5 60 101 q37.5 47.5 86 89.5 q48.5 42 101.5 79 ZM456 688 q-39 -27 -83.5 -60.5 q-44.5 -33.5 -82 -75 q-37.5 -41.5 -62 -92.5 q-24.5 -51 -24.5 -112 q0 -68 25 -121 q25 -53 67.5 -90 q42.5 -37 99 -56.5 q56.5 -19.5 119.5 -19.5 q54 0 106 15.5 q52 15.5 93 48 q41 32.5 66.5 83.5 q25.5 51 25.5 122 q0 86 -56 153 q-56 67 -159 127 l-135 78 ZM609 821 q29 16 66 40 q37 24 69.5 56 q32.5 32 55 72 q22.5 40 22.5 88 q0 42 -16.5 79.5 q-16.5 37.5 -48 66.5 q-31.5 29 -76.5 46 q-45 17 -103 17 q-41 0 -82.5 -9 q-41.5 -9 -74.5 -32 q-33 -23 -53.5 -62 q-20.5 -39 -20.5 -98 q0 -53 28.5 -93.5 q28.5 -40.5 69.5 -72 q41 -31.5 86 -55.5 q45 -24 78 -43 Z" /><glyph glyph-name="nine" unicode="9" d="M534 1286 q-62 0 -109.5 -32 q-47.5 -32 -79.5 -80.5 q-32 -48.5 -48.5 -105.5 q-16.5 -57 -16.5 -107 q0 -105 25 -173.5 q25 -68.5 63 -109.5 q38 -41 83 -57.5 q45 -16.5 85 -16.5 q81 0 143.5 33 q62.5 33 104.5 78 l0 149 q0 212 -58.5 317 q-58.5 105 -191.5 105 ZM845 322 q-43 -58 -106 -115.5 q-63 -57.5 -140.5 -106 q-77.5 -48.5 -168 -83 q-90.5 -34.5 -187.5 -46.5 l0 86 q87 20 153 48.5 q66 28.5 116 64 q50 35.5 87.5 76.5 q37.5 41 67.5 86 q37 56 63.5 121.5 q26.5 65.5 40.5 158.5 q-37 -31 -76 -51.5 q-39 -20.5 -77 -32.5 q-38 -12 -74.5 -17 q-36.5 -5 -67.5 -5 q-74 0 -133.5 17.5 q-59.5 17.5 -105.5 48 q-46 30.5 -79 71 q-33 40.5 -54 86.5 q-21 46 -31 95.5 q-10 49.5 -10 97.5 q0 58 12 107 q12 49 32 89.5 q20 40.5 44.5 72 q24.5 31.5 50.5 54.5 q53 57 133.5 94 q80.5 37 192.5 37 q130 0 219.5 -42.5 q89.5 -42.5 145.5 -116.5 q56 -74 82.5 -173.5 q26.5 -99.5 29.5 -212.5 q0 -67 -10.5 -135 q-10.5 -68 -30.5 -134 q-20 -66 -50 -127 q-30 -61 -69 -113 Z" /><glyph glyph-name="colon" unicode=":" d="M361 0 l-203 0 l0 160 l203 0 l0 -160 ZM361 782 l-203 0 l0 160 l203 0 l0 -160 Z" /><glyph glyph-name="semicolon" unicode=";" d="M319 782 l-203 0 l0 160 l203 0 l0 -160 ZM116 160 l203 0 l0 -160 q0 -41 -15 -73 q-15 -32 -41 -54 q-26 -22 -61 -33.5 q-35 -11.5 -75 -11.5 l-99 0 l0 90 q29 0 46.5 1.5 q17.5 1.5 26.5 9.5 q9 8 12 24.5 q3 16.5 3 46.5 l0 160 Z" /><glyph glyph-name="less" unicode="&lt;" d="M0 616 l813 420 l0 -135 l-645 -336 l645 -338 l0 -135 l-813 420 l0 104 Z" /><glyph glyph-name="equal" unicode="=" d="M158 672 l0 139 l1037 0 l0 -139 l-1037 0 ZM158 331 l0 139 l1037 0 l0 -139 l-1037 0 Z" /><glyph glyph-name="greater" unicode="&gt;" d="M970 512 l-813 -420 l0 135 l645 338 l-645 336 l0 135 l813 -420 l0 -104 Z" /><glyph glyph-name="question" unicode="?" d="M69 489 q-1 51 24.5 109 q25.5 58 75.5 119 l240 293 q35 43 60 78 q25 35 40.5 65.5 q15.5 30.5 23 59.5 q7.5 29 7.5 61 q0 30 -11.5 55 q-11.5 25 -37 42.5 q-25.5 17.5 -67 27.5 q-41.5 10 -101.5 10 q-31 0 -62 -1 q-31 -1 -65.5 -6.5 q-34.5 -5.5 -74.5 -15.5 q-40 -10 -89 -28 l-4 100 q106 34 182 46 q76 12 127 12 q101 0 181.5 -13 q80.5 -13 136 -43.5 q55.5 -30.5 85 -80.5 q29.5 -50 29.5 -124 q0 -34 -13 -74 q-13 -40 -37 -83 q-24 -43 -58 -88.5 q-34 -45.5 -76 -89.5 l-215 -267 q-35 -45 -60.5 -84.5 q-25.5 -39.5 -25.5 -74.5 q0 -26 5 -42.5 q5 -16.5 23 -27 q18 -10.5 51.5 -14.5 q33.5 -4 90.5 -4 l0 -91 l-181 0 q-93 0 -148.5 45 q-55.5 45 -55.5 129 ZM392 0 l-203 0 l0 160 l203 0 l0 -160 Z" /><glyph glyph-name="at" unicode="@" d="M1265 195 l0 503 q-42 20 -92 31.5 q-50 11.5 -107 11.5 q-50 0 -90.5 -20 q-40.5 -20 -69.5 -55 q-29 -35 -45 -83 q-16 -48 -16 -104 q0 -21 1.5 -50 q1.5 -29 9.5 -61 q8 -32 25.5 -62.5 q17.5 -30.5 49.5 -55.5 q32 -25 81 -40 q49 -15 120 -15 l133 0 ZM863 1186 q-131 0 -237 -53 q-106 -53 -181 -145 q-75 -92 -116 -215.5 q-41 -123.5 -41 -264.5 q0 -141 40.5 -265 q40.5 -124 116 -216.5 q75.5 -92.5 184.5 -146.5 q109 -54 247 -54 q54 0 103 4.5 q49 4.5 96 14.5 q47 10 93 26 q46 16 95 39 l0 -86 q-94 -51 -189 -72.5 q-95 -21.5 -198 -21.5 q-179 0 -324.5 61 q-145.5 61 -248.5 166.5 q-103 105.5 -158.5 247.5 q-55.5 142 -55.5 303 q0 106 27.5 205 q27.5 99 78 185 q50.5 86 121.5 156.5 q71 70.5 156.5 121 q85.5 50.5 184 78.5 q98.5 28 204.5 28 q120 0 229 -29 q109 -29 192 -87 q83 -58 133 -145 q50 -87 52 -204 l0 -711 l-327 0 q-134 0 -229 28.5 q-95 28.5 -155 77.5 q-60 49 -88 115.5 q-28 66.5 -28 141.5 q0 84 26.5 151.5 q26.5 67.5 76.5 115 q50 47.5 122 73 q72 25.5 164 25.5 q66 0 125.5 -13 q59.5 -13 110.5 -39 l0 39 q-1 65 -19 118 q-18 53 -49 93.5 q-31 40.5 -71 69.5 q-40 29 -84.5 47.5 q-44.5 18.5 -90.5 27.5 q-46 9 -88 9 Z" /><glyph glyph-name="A" unicode="a" d="M1367 0 l-231 0 l-82 193 l-813 0 l-80 -193 l-121 0 l545 1296 l-80 191 l234 0 l628 -1487 ZM282 291 l731 0 l-369 864 l-362 -864 Z" /><glyph glyph-name="B" unicode="b" d="M158 0 l0 1487 l465 0 q120 0 206.5 -22 q86.5 -22 142 -63 q55.5 -41 82 -99 q26.5 -58 26.5 -129 q0 -47 -17 -92 q-17 -45 -56 -82.5 q-39 -37.5 -104 -65 q-65 -27.5 -161 -39.5 l0 -2 q236 -34 348.5 -148.5 q112.5 -114.5 112.5 -300.5 q0 -93 -30 -174 q-30 -81 -97.5 -141 q-67.5 -60 -176.5 -94.5 q-109 -34.5 -268 -34.5 l-473 0 ZM377 840 l0 -742 l197 0 q93 0 165 24 q72 24 120.5 70 q48.5 46 74 112 q25.5 66 25.5 149 q0 100 -36.5 173.5 q-36.5 73.5 -104 120.5 q-67.5 47 -163.5 70 q-96 23 -214 23 l-64 0 ZM377 1389 l0 -451 l150 0 q69 0 128 12.5 q59 12.5 102.5 40 q43.5 27.5 68.5 72.5 q25 45 25 111 q0 61 -22.5 102.5 q-22.5 41.5 -64.5 66.5 q-42 25 -102 35.5 q-60 10.5 -135 10.5 l-150 0 Z" /><glyph glyph-name="C" unicode="c" d="M884 1518 q174 0 322.5 -56.5 q148.5 -56.5 263.5 -156.5 l-56 -74 q-46 39 -102 73 q-56 34 -118 58.5 q-62 24.5 -129 39 q-67 14.5 -135 14.5 q-146 0 -259 -53 q-113 -53 -190 -145 q-77 -92 -117 -215 q-40 -123 -40 -264 q0 -138 39.5 -260 q39.5 -122 116 -214 q76.5 -92 189.5 -145.5 q113 -53.5 259 -53.5 q70 0 142 14 q72 14 139 41 q67 27 126.5 66 q59.5 39 105.5 89 l57 -73 q-118 -112 -274 -175 q-156 -63 -340 -63 q-111 0 -213 27.5 q-102 27.5 -190.5 78.5 q-88.5 51 -161 121.5 q-72.5 70.5 -124 156.5 q-51.5 86 -80 184.5 q-28.5 98.5 -28.5 205.5 q0 107 28.5 207 q28.5 100 80 186.5 q51.5 86.5 124 157.5 q72.5 71 161 121.5 q88.5 50.5 190.5 78.5 q102 28 213 28 Z" /><glyph glyph-name="D" unicode="d" d="M1216 741 q0 136 -31 237 q-31 101 -84 173 q-53 72 -124 118.5 q-71 46.5 -150 73 q-79 26.5 -162.5 36.5 q-83.5 10 -162.5 10 l-125 0 l0 -1291 l125 0 q79 0 162.5 10 q83.5 10 162.5 36.5 q79 26.5 150 72.5 q71 46 124 117.5 q53 71.5 84 171.5 q31 100 31 235 ZM1448 745 q0 -156 -55.5 -291.5 q-55.5 -135.5 -164.5 -236.5 q-109 -101 -270.5 -159 q-161.5 -58 -373.5 -58 l-426 0 l0 1487 l426 0 q212 0 373.5 -58 q161.5 -58 270.5 -158.5 q109 -100.5 164.5 -236 q55.5 -135.5 55.5 -289.5 Z" /><glyph glyph-name="E" unicode="e" d="M1069 1487 l0 -98 l-691 0 l0 -451 l670 0 l0 -98 l-670 0 l0 -742 l691 0 l0 -98 l-910 0 l0 1487 l910 0 Z" /><glyph glyph-name="F" unicode="f" d="M1068 1487 l0 -98 l-690 0 l0 -451 l669 0 l0 -98 l-669 0 l0 -840 l-219 0 l0 1487 l909 0 Z" /><glyph glyph-name="G" unicode="g" d="M326 762 q0 -151 49.5 -273.5 q49.5 -122.5 141.5 -209.5 q92 -87 224.5 -134 q132.5 -47 297.5 -47 l219 0 l0 865 l219 0 l0 -963 l-528 0 q-119 0 -229 21 q-110 21 -206 63 q-96 42 -174 105 q-78 63 -134 148 q-56 85 -86.5 191 q-30.5 106 -30.5 234 q0 107 28.5 205 q28.5 98 80 182 q51.5 84 124 152 q72.5 68 161 116.5 q88.5 48.5 190.5 74.5 q102 26 213 26 q173 0 322 -57 q149 -57 264 -156 l-56 -74 q-46 39 -101.5 73 q-55.5 34 -118 59 q-62.5 25 -129.5 39 q-67 14 -135 14 q-141 -1 -253 -50.5 q-112 -49.5 -190.5 -137 q-78.5 -87.5 -120.5 -206.5 q-42 -119 -42 -260 Z" /><glyph glyph-name="H" unicode="h" d="M1269 0 l-219 0 l0 840 l-671 0 l0 -840 l-219 0 l0 1487 l219 0 l0 -549 l671 0 l0 549 l219 0 l0 -1487 Z" /><glyph glyph-name="I" unicode="i" d="M381 0 l-220 0 l0 1487 l220 0 l0 -1487 Z" /><glyph glyph-name="J" unicode="j" d="M375 1389 l-295 0 l0 98 l514 0 l0 -1233 q0 -149 -36 -258.5 q-36 -109.5 -106 -187 q-70 -77.5 -174 -126.5 q-104 -49 -239 -77 l-34 86 q60 15 123.5 41 q63.5 26 116.5 65.5 q53 39.5 89 94.5 q36 55 41 128 l0 1369 Z" /><glyph glyph-name="K" unicode="k" d="M381 944 l616 543 l152 0 l-555 -488 l641 -999 l-256 0 l-545 856 l-53 -47 l0 -809 l-219 0 l0 1487 l219 0 l0 -543 Z" /><glyph glyph-name="L" unicode="l" d="M381 98 l612 0 l0 -98 l-831 0 l0 1487 l219 0 l0 -1389 Z" /><glyph glyph-name="M" unicode="m" d="M890 889 l465 536 l0 62 l219 0 l0 -1487 l-219 0 l0 1272 l-525 -606 l-522 608 l0 -1274 l-102 0 l0 1393 l-80 94 l256 0 l508 -598 Z" /><glyph glyph-name="N" unicode="n" d="M1330 0 l-168 0 l-824 1155 l0 -1155 l-102 0 l0 1298 l-133 189 l268 0 l856 -1202 l0 1202 l103 0 l0 -1487 Z" /><glyph glyph-name="O" unicode="o" d="M893 -29 q-110 0 -211.5 28 q-101.5 28 -190 78.5 q-88.5 50.5 -161 121.5 q-72.5 71 -124.5 157.5 q-52 86.5 -80.5 186 q-28.5 99.5 -28.5 207.5 q0 106 28.5 205 q28.5 99 80.5 185 q52 86 124.5 157 q72.5 71 161 121 q88.5 50 190 78 q101.5 28 211.5 28 q109 0 210 -27.5 q101 -27.5 189 -78 q88 -50.5 160.5 -121.5 q72.5 -71 124 -157 q51.5 -86 80 -185 q28.5 -99 28.5 -205 q0 -108 -28.5 -207.5 q-28.5 -99.5 -80 -186 q-51.5 -86.5 -124 -157.5 q-72.5 -71 -160.5 -121.5 q-88 -50.5 -189 -78.5 q-101 -28 -210 -28 ZM893 68 q136 0 240.5 53 q104.5 53 175.5 145 q71 92 107.5 216.5 q36.5 124.5 36.5 267.5 q0 142 -36 266 q-36 124 -106.5 215 q-70.5 91 -175.5 143.5 q-105 52.5 -242 52.5 q-139 0 -243.5 -52.5 q-104.5 -52.5 -175 -143.5 q-70.5 -91 -106 -215 q-35.5 -124 -35.5 -266 q0 -143 36 -267.5 q36 -124.5 106.5 -216.5 q70.5 -92 175.5 -145 q105 -53 242 -53 Z" /><glyph glyph-name="P" unicode="p" d="M383 391 l0 -391 l-219 0 l0 1487 l372 0 q157 0 269 -26.5 q112 -26.5 188 -70.5 q76 -44 122 -101.5 q46 -57.5 70 -119 q24 -61.5 31.5 -123 q7.5 -61.5 7.5 -114.5 q0 -52 -8.5 -112.5 q-8.5 -60.5 -34 -120.5 q-25.5 -60 -72 -115.5 q-46.5 -55.5 -123 -98.5 q-76.5 -43 -187 -68.5 q-110.5 -25.5 -263.5 -25.5 l-153 0 ZM383 1389 l0 -900 l123 0 q111 0 201 25 q90 25 153.5 80 q63.5 55 97.5 140.5 q34 85.5 34 207.5 q0 93 -17.5 162.5 q-17.5 69.5 -49.5 119 q-32 49.5 -76.5 81.5 q-44.5 32 -98 51 q-53.5 19 -114.5 26 q-61 7 -126 7 l-127 0 Z" /><glyph glyph-name="Q" unicode="q" d="M863 -29 q-110 0 -211.5 28 q-101.5 28 -190 78.5 q-88.5 50.5 -161 121.5 q-72.5 71 -124.5 157.5 q-52 86.5 -80.5 186 q-28.5 99.5 -28.5 207.5 q0 106 28.5 205 q28.5 99 80.5 185 q52 86 124.5 157 q72.5 71 161 121 q88.5 50 190 78 q101.5 28 211.5 28 q109 0 210 -27.5 q101 -27.5 189 -78 q88 -50.5 160.5 -121.5 q72.5 -71 124 -157 q51.5 -86 80 -185 q28.5 -99 28.5 -205 q0 -107 -28 -205.5 q-28 -98.5 -79 -184.5 q-51 -86 -122 -157 q-71 -71 -158 -122 l0 -2 q55 -5 107.5 -22 q52.5 -17 105.5 -41 q53 -24 107 -52 q54 -28 113 -56 q34 -16 63.5 -20.5 q29.5 -4.5 52.5 -4.5 q26 0 47 5.5 q21 5.5 52 19.5 l30 -58 q-21 -21 -46 -40.5 q-25 -19.5 -57 -34.5 q-32 -15 -72.5 -24 q-40.5 -9 -92.5 -9 q-57 0 -116.5 23 q-59.5 23 -120.5 56.5 q-61 33.5 -124.5 71 q-63.5 37.5 -129.5 66.5 q-29 13 -70.5 19.5 q-41.5 6.5 -84.5 10.5 q-42 -8 -83 -13 q-41 -5 -86 -5 ZM863 68 q136 0 240.5 53 q104.5 53 175.5 145 q71 92 107.5 216.5 q36.5 124.5 36.5 267.5 q0 142 -36 266 q-36 124 -106.5 215 q-70.5 91 -175.5 143.5 q-105 52.5 -242 52.5 q-139 0 -243.5 -52.5 q-104.5 -52.5 -175 -143.5 q-70.5 -91 -106 -215 q-35.5 -124 -35.5 -266 q0 -143 36 -267.5 q36 -124.5 106.5 -216.5 q70.5 -92 175.5 -145 q105 -53 242 -53 Z" /><glyph glyph-name="R" unicode="r" d="M655 1487 q127 0 219.5 -22.5 q92.5 -22.5 157 -59.5 q64.5 -37 104 -85 q39.5 -48 61 -99 q21.5 -51 29 -101.5 q7.5 -50.5 7.5 -93.5 q0 -55 -17.5 -123 q-17.5 -68 -63 -132 q-45.5 -64 -124.5 -115.5 q-79 -51.5 -201 -73.5 l430 -582 l-268 0 l-420 567 l-162 0 l0 -567 l-219 0 l0 1487 l467 0 ZM407 1389 l0 -723 l125 0 q107 0 193.5 19.5 q86.5 19.5 148 63 q61.5 43.5 94.5 113 q33 69.5 33 168.5 q0 112 -40 182.5 q-40 70.5 -105.5 109.5 q-65.5 39 -149.5 53 q-84 14 -172 14 l-127 0 Z" /><glyph glyph-name="S" unicode="s" d="M504 1518 q66 0 115.5 -6 q49.5 -6 93 -16.5 q43.5 -10.5 86.5 -24.5 q43 -14 96 -31 l-4 -105 q-38 13 -77 25 q-39 12 -81.5 21 q-42.5 9 -90.5 14.5 q-48 5.5 -103 5.5 q-25 0 -58 -8 q-33 -8 -63 -27 q-30 -19 -51 -50 q-21 -31 -21 -77 q0 -43 34 -100.5 q34 -57.5 114 -143.5 l176 -190 q58 -60 111.5 -118.5 q53.5 -58.5 93.5 -115 q40 -56.5 64 -112 q24 -55.5 24 -109.5 q0 -105 -38.5 -178.5 q-38.5 -73.5 -100 -119 q-61.5 -45.5 -139.5 -66.5 q-78 -21 -156 -21 q-68 0 -127 7.5 q-59 7.5 -112.5 22 q-53.5 14.5 -102.5 36 q-49 21.5 -97 49.5 l13 108 q39 -18 80 -36.5 q41 -18.5 83.5 -33 q42.5 -14.5 86.5 -23.5 q44 -9 88 -9 q147 0 222 60.5 q75 60.5 75 175.5 q0 35 -15.5 71 q-15.5 36 -42.5 74.5 q-27 38.5 -63.5 79.5 q-36.5 41 -77.5 86 l-178 194 q-68 83 -114 142 q-46 59 -73.5 105 q-27.5 46 -39 84.5 q-11.5 38.5 -11.5 80.5 q0 81 33 134.5 q33 53.5 87 85.5 q54 32 122 45.5 q68 13.5 139 13.5 Z" /><glyph glyph-name="T" unicode="t" d="M956 1487 l0 -98 l-360 0 l0 -1389 l-219 0 l0 1389 l-363 0 l0 98 l942 0 Z" /><glyph glyph-name="U" unicode="u" d="M1071 1487 l219 0 l0 -1487 l-219 0 l0 117 l-244 -82 q-50 -17 -101 -29 q-51 -12 -99 -20 q-48 -8 -91 -11.5 q-43 -3.5 -76 -3.5 q-71 0 -121 15.5 q-50 15.5 -83 40 q-33 24.5 -52 54.5 q-19 30 -28.5 58 q-9.5 28 -12 51.5 q-2.5 23.5 -2.5 34.5 l0 1262 l220 0 l0 -1176 q0 -19 4 -53.5 q4 -34.5 23 -68 q19 -33.5 59 -58.5 q40 -25 112 -25 q59 0 115 6 q56 6 114.5 18 q58.5 12 122.5 30.5 q64 18.5 140 44.5 l0 1282 Z" /><glyph glyph-name="V" unicode="v" d="M39 1487 l230 0 l489 -1213 l510 1213 l113 0 l-568 -1352 l56 -135 l-236 0 l-594 1487 Z" /><glyph glyph-name="W" unicode="w" d="M78 1487 l219 0 l372 -1151 l233 557 l-193 594 l220 0 l371 -1145 l434 1145 l113 0 l-496 -1303 l62 -184 l-223 0 l-239 737 l-232 -555 l59 -182 l-221 0 l-479 1487 Z" /><glyph glyph-name="X" unicode="x" d="M757 928 l370 559 l125 0 l-432 -653 l553 -834 l-270 0 l-428 653 l-430 -653 l-125 0 l493 750 l-481 737 l258 0 l367 -559 Z" /><glyph glyph-name="Y" unicode="y" d="M501 676 l-473 811 l256 0 l371 -670 l348 670 l121 0 l-412 -799 l0 -688 l-211 0 l0 676 Z" /><glyph glyph-name="Z" unicode="z" d="M1160 1487 l-823 -1389 l811 0 l0 -98 l-1114 0 l821 1389 l-727 0 l0 98 l1032 0 Z" /><glyph glyph-name="bracketleft" unicode="[" d="M688 1536 l0 -92 l-318 0 l0 -1557 l318 0 l0 -92 l-521 0 l0 1741 l521 0 Z" /><glyph glyph-name="backslash" unicode="\" d="M1005 -320 l-152 0 l-853 1806 l151 0 l854 -1806 Z" /><glyph glyph-name="bracketright" unicode="]" d="M522 1536 l0 -1741 l-520 0 l0 92 l317 0 l0 1557 l-317 0 l0 92 l520 0 Z" /><glyph glyph-name="asciicircum" unicode="^" d="M499 1225 l-292 -592 l-160 0 l370 747 l164 0 l371 -747 l-160 0 l-293 592 Z" /><glyph glyph-name="underscore" unicode="_" d="M167 -248 l0 139 l877 0 l0 -139 l-877 0 Z" /><glyph glyph-name="grave" unicode="`" d="M361 1024 l-96 0 l-262 293 l233 0 l125 -293 Z" /><glyph glyph-name="a" unicode="a" d="M483 874 q-48 0 -83.5 -3 q-35.5 -3 -64.5 -8 q-29 -5 -54 -11.5 q-25 -6.5 -50 -13.5 l-24 65 q84 31 175.5 44.5 q91.5 13.5 173.5 13.5 q105 0 172.5 -11 q67.5 -11 105.5 -36.5 q38 -25.5 52.5 -68 q14.5 -42.5 14.5 -106.5 l0 -739 l-328 0 q-134 0 -228.5 28 q-94.5 28 -154.5 75.5 q-60 47.5 -88 109 q-28 61.5 -28 129.5 q0 84 26.5 148 q26.5 64 76.5 107.5 q50 43.5 122 66 q72 22.5 164 22.5 q50 0 113.5 -17 q63.5 -17 121.5 -51 l0 125 q0 23 -5 46.5 q-5 23.5 -26 42 q-21 18.5 -64.5 30.5 q-43.5 12 -119.5 12 ZM698 82 l0 463 q-48 29 -100 43 q-52 14 -115 14 q-50 0 -88.5 -18 q-38.5 -18 -64.5 -51 q-26 -33 -39.5 -79 q-13.5 -46 -13.5 -102 q0 -16 1.5 -42 q1.5 -26 10 -56 q8.5 -30 26 -60.5 q17.5 -30.5 49.5 -55.5 q32 -25 81 -40.5 q49 -15.5 120 -15.5 l133 0 Z" /><glyph glyph-name="b" unicode="b" d="M369 892 q57 35 121 52 q64 17 115 17 q127 0 219.5 -34.5 q92.5 -34.5 153 -95 q60.5 -60.5 89.5 -144 q29 -83.5 29 -181.5 q0 -99 -26.5 -190.5 q-26.5 -91.5 -94 -161.5 q-67.5 -70 -183.5 -112 q-116 -42 -294 -42 l-331 0 l0 1487 l202 0 l0 -595 ZM584 877 q-64 0 -115.5 -15 q-51.5 -15 -99.5 -44 l0 -736 l129 0 q90 0 154 22 q64 22 108 58.5 q44 36.5 70.5 82 q26.5 45.5 40.5 93 q14 47.5 18.5 92 q4.5 44.5 4.5 78.5 q0 73 -20.5 139.5 q-20.5 66.5 -60 117.5 q-39.5 51 -97 81.5 q-57.5 30.5 -132.5 30.5 Z" /><glyph glyph-name="c" unicode="c" d="M831 784 q-52 42 -105 63 q-53 21 -122 21 q-75 0 -132.5 -29 q-57.5 -29 -96.5 -78.5 q-39 -49.5 -59.5 -114.5 q-20.5 -65 -20.5 -138 q0 -34 4.5 -78.5 q4.5 -44.5 18.5 -92 q14 -47.5 40.5 -93 q26.5 -45.5 70 -82 q43.5 -36.5 108 -58.5 q64.5 -22 153.5 -22 l149 0 l0 -82 l-149 0 q-119 0 -209.5 18.5 q-90.5 18.5 -157 51.5 q-66.5 33 -111 79.5 q-44.5 46.5 -71.5 103 q-27 56.5 -38 120.5 q-11 64 -11 133 q0 91 32.5 173.5 q32.5 82.5 97 145 q64.5 62.5 160 99.5 q95.5 37 222.5 37 q31 0 66 -7 q35 -7 70 -20.5 q35 -13.5 69.5 -34 q34.5 -20.5 64.5 -47.5 l-43 -68 Z" /><glyph glyph-name="d" unicode="d" d="M612 0 q-119 0 -209.5 19 q-90.5 19 -157 53.5 q-66.5 34.5 -111 81.5 q-44.5 47 -71.5 103.5 q-27 56.5 -38 119.5 q-11 63 -11 129 q0 98 29.5 181.5 q29.5 83.5 90 144 q60.5 60.5 153 95 q92.5 34.5 219.5 34.5 q50 0 113.5 -17 q63.5 -17 121.5 -51 l0 594 l203 0 l0 -1487 l-332 0 ZM217 508 q0 -34 4.5 -78.5 q4.5 -44.5 18.5 -92 q14 -47.5 40.5 -93 q26.5 -45.5 70 -82 q43.5 -36.5 108 -58.5 q64.5 -22 153.5 -22 l129 0 l0 737 q-48 29 -100 43.5 q-52 14.5 -115 14.5 q-74 0 -131.5 -30.5 q-57.5 -30.5 -97 -81.5 q-39.5 -51 -60 -117.5 q-20.5 -66.5 -20.5 -139.5 Z" /><glyph glyph-name="e" unicode="e" d="M544 961 q102 0 172.5 -37.5 q70.5 -37.5 115 -101.5 q44.5 -64 64 -147.5 q19.5 -83.5 19.5 -176.5 l0 -47 l-616 0 q0 -56 18 -121 q18 -65 58.5 -120 q40.5 -55 105 -91.5 q64.5 -36.5 158.5 -36.5 l208 0 l0 -82 l-211 0 q-140 0 -241.5 32 q-101.5 32 -167 93 q-65.5 61 -96.5 149 q-31 88 -31 201 q0 94 29.5 182 q29.5 88 86 155.5 q56.5 67.5 139 108 q82.5 40.5 189.5 40.5 ZM534 870 q-62 0 -106 -28 q-44 -28 -72.5 -74.5 q-28.5 -46.5 -42 -108 q-13.5 -61.5 -14.5 -127.5 l423 0 l0 43 q-2 58 -10.5 111 q-8.5 53 -29.5 94 q-21 41 -56.5 65.5 q-35.5 24.5 -91.5 24.5 Z" /><glyph glyph-name="f" unicode="f" d="M473 852 l-125 0 l0 -1217 l-193 -55 l0 1272 l-129 0 l0 90 l129 0 l0 373 q3 42 18.5 74 q15.5 32 41 54 q25.5 22 59.5 33 q34 11 74 11 l170 0 l0 -90 q-57 0 -90.5 -2 q-33.5 -2 -51.5 -11 q-18 -9 -23 -26 q-5 -17 -5 -47 l0 -369 l125 0 l0 -90 Z" /><glyph glyph-name="g" unicode="g" d="M659 0 q-119 0 -209.5 19 q-90.5 19 -157 53.5 q-66.5 34.5 -111 81.5 q-44.5 47 -71.5 103.5 q-27 56.5 -38 119.5 q-11 63 -11 129 q0 98 29.5 181.5 q29.5 83.5 90 144 q60.5 60.5 153 95 q92.5 34.5 219.5 34.5 q50 0 113.5 -17 q63.5 -17 121.5 -51 l0 49 l203 0 l0 -1141 q0 -38 -19.5 -74 q-19.5 -36 -62.5 -63.5 q-43 -27.5 -110.5 -44 q-67.5 -16.5 -163.5 -16.5 q-67 0 -118 3 q-51 3 -95 9.5 q-44 6.5 -87 17 q-43 10.5 -94 25.5 l27 80 q67 -22 134.5 -31.5 q67.5 -9.5 150.5 -9.5 q123 0 179 42.5 q56 42.5 56 119.5 l0 141 l-129 0 ZM264 508 q0 -34 4.5 -78.5 q4.5 -44.5 18.5 -92 q14 -47.5 40.5 -93 q26.5 -45.5 70 -82 q43.5 -36.5 108 -58.5 q64.5 -22 153.5 -22 l129 0 l0 737 q-48 29 -100 43.5 q-52 14.5 -115 14.5 q-74 0 -131.5 -30.5 q-57.5 -30.5 -97 -81.5 q-39.5 -51 -60 -117.5 q-20.5 -66.5 -20.5 -139.5 Z" /><glyph glyph-name="h" unicode="h" d="M369 864 q64 28 118 46.5 q54 18.5 101 30 q47 11.5 87.5 16 q40.5 4.5 78.5 4.5 q94 0 143.5 -49 q49.5 -49 49.5 -158 l0 -754 l-203 0 l0 723 q0 22 -4.5 45 q-4.5 23 -16 41 q-11.5 18 -32 29.5 q-20.5 11.5 -51.5 11.5 q-51 0 -118.5 -12.5 q-67.5 -12.5 -152.5 -51.5 l0 -786 l-202 0 l0 1487 l202 0 l0 -623 Z" /><glyph glyph-name="i" unicode="i" d="M337 0 l-203 0 l0 942 l203 0 l0 -942 ZM337 1100 l-203 0 l0 119 l203 0 l0 -119 Z" /><glyph glyph-name="j" unicode="j" d="M373 -217 q-3 -42 -18.5 -74.5 q-15.5 -32.5 -41 -54 q-25.5 -21.5 -59 -32.5 q-33.5 -11 -73.5 -11 l-181 0 l0 90 q57 0 90.5 2 q33.5 2 51.5 11 q18 9 23 26 q5 17 5 47 l0 1155 l203 0 l0 -1159 ZM373 1100 l-203 0 l0 119 l203 0 l0 -119 Z" /><glyph glyph-name="k" unicode="k" d="M370 1487 l0 -873 l365 328 l137 0 l-287 -258 l418 -684 l-211 0 l-338 567 l-84 -75 l0 -492 l-203 0 l0 1487 l203 0 Z" /><glyph glyph-name="l" unicode="l" d="M167 1487 l203 0 l0 -1487 l-203 0 l0 1487 Z" /><glyph glyph-name="m" unicode="m" d="M370 864 q122 53 207 75 q85 22 143 22 q42 0 72.5 -9 q30.5 -9 51.5 -23 q21 -14 34 -32.5 q13 -18.5 19 -36.5 q128 57 217 79 q89 22 151 22 q48 0 84.5 -11.5 q36.5 -11.5 61 -38.5 q24.5 -27 37 -71 q12.5 -44 12.5 -109 l0 -731 l-203 0 l0 723 q0 28 -5.5 51 q-5.5 23 -18.5 40 q-13 17 -35 26.5 q-22 9.5 -56 9.5 q-68 0 -122.5 -17.5 q-54.5 -17.5 -104.5 -37.5 l0 -795 l-203 0 l0 733 q0 21 -4 41.5 q-4 20.5 -15.5 37.5 q-11.5 17 -32 27.5 q-20.5 10.5 -52.5 10.5 q-29 0 -61.5 -6.5 q-32.5 -6.5 -64.5 -16.5 q-32 -10 -61 -21 q-29 -11 -51 -20 l0 -786 l-203 0 l0 942 l203 0 l0 -78 Z" /><glyph glyph-name="n" unicode="n" d="M369 864 q64 28 118 46.5 q54 18.5 101 30 q47 11.5 87.5 16 q40.5 4.5 78.5 4.5 q94 0 143.5 -49 q49.5 -49 49.5 -158 l0 -754 l-203 0 l0 723 q0 22 -4.5 45 q-4.5 23 -16.5 41 q-12 18 -32.5 29.5 q-20.5 11.5 -51.5 11.5 q-51 0 -118 -12.5 q-67 -12.5 -152 -51.5 l0 -786 l-203 0 l0 942 l203 0 l0 -78 Z" /><glyph glyph-name="o" unicode="o" d="M587 961 q103 0 193 -38.5 q90 -38.5 156.5 -105 q66.5 -66.5 104.5 -156 q38 -89.5 38 -190.5 q0 -102 -38 -191.5 q-38 -89.5 -104.5 -156 q-66.5 -66.5 -156.5 -105 q-90 -38.5 -193 -38.5 q-101 0 -189.5 38.5 q-88.5 38.5 -154.5 105 q-66 66.5 -104.5 156 q-38.5 89.5 -38.5 191.5 q0 101 38.5 190.5 q38.5 89.5 104.5 156 q66 66.5 154.5 105 q88.5 38.5 189.5 38.5 ZM585 870 q-78 0 -131.5 -30 q-53.5 -30 -86.5 -84 q-33 -54 -47.5 -128 q-14.5 -74 -14.5 -161 q0 -86 15 -159 q15 -73 48 -126.5 q33 -53.5 86.5 -83.5 q53.5 -30 130.5 -30 q77 0 131 30 q54 30 88.5 83.5 q34.5 53.5 50 126.5 q15.5 73 15.5 159 q0 87 -15.5 161 q-15.5 74 -50 128 q-34.5 54 -88.5 84 q-54 30 -131 30 Z" /><glyph glyph-name="q" unicode="q" d="M746 0 l-129 0 q-119 0 -209.5 19 q-90.5 19 -157 53.5 q-66.5 34.5 -111 81.5 q-44.5 47 -71.5 103.5 q-27 56.5 -38 119.5 q-11 63 -11 129 q0 98 29.5 181.5 q29.5 83.5 90 144 q60.5 60.5 153 95 q92.5 34.5 219.5 34.5 q25 0 54 -4 q29 -4 60 -12.5 q31 -8.5 61.5 -21.5 q30.5 -13 59.5 -31 l0 50 l203 0 l0 -1304 l-203 -58 l0 420 ZM222 508 q0 -34 4.5 -78.5 q4.5 -44.5 18.5 -92 q14 -47.5 40.5 -93 q26.5 -45.5 70 -82 q43.5 -36.5 108 -58.5 q64.5 -22 153.5 -22 l129 0 l0 737 q-48 29 -100 43.5 q-52 14.5 -115 14.5 q-75 0 -132.5 -30.5 q-57.5 -30.5 -96.5 -81.5 q-39 -51 -59.5 -117.5 q-20.5 -66.5 -20.5 -139.5 Z" /><glyph glyph-name="r" unicode="r" d="M369 868 q40 28 70.5 46 q30.5 18 54.5 28.5 q24 10.5 44.5 14.5 q20.5 4 40.5 4 q78 0 116 -54 q38 -54 45 -153 l-175 -52 q-10 72 -27 102 q-17 30 -53 30 q-21 0 -49.5 -9 q-28.5 -9 -66.5 -30 l0 -795 l-203 0 l0 942 l203 0 l0 -74 Z" /><glyph glyph-name="s" unicode="s" d="M437 961 q42 0 73 -3.5 q31 -3.5 58.5 -10.5 q27.5 -7 54.5 -16 q27 -9 60 -20 l-2 -88 q-47 17 -99.5 30 q-52.5 13 -123.5 13 q-15 0 -36 -4 q-21 -4 -40 -13.5 q-19 -9.5 -32 -25.5 q-13 -16 -13 -39 q0 -26 23.5 -63 q23.5 -37 74.5 -92 l107 -121 q34 -39 67.5 -75.5 q33.5 -36.5 59.5 -71.5 q26 -35 42.5 -69.5 q16.5 -34.5 16.5 -68.5 q0 -66 -30 -112 q-30 -46 -78 -75.5 q-48 -29.5 -108.5 -42.5 q-60.5 -13 -121.5 -13 q-85 0 -150.5 18.5 q-65.5 18.5 -123.5 52.5 l8 90 q46 -24 100 -44.5 q54 -20.5 111 -20.5 q94 0 141 33 q47 33 47 96 q0 44 -36.5 92 q-36.5 48 -90.5 106 l-106 119 q-42 53 -71.5 89 q-29.5 36 -47.5 64 q-18 28 -26.5 53 q-8.5 25 -8.5 56 q0 51 23.5 85 q23.5 34 64 54.5 q40.5 20.5 95.5 29 q55 8.5 118 8.5 Z" /><glyph glyph-name="t" unicode="t" d="M478 852 l-135 0 l0 -852 l-192 0 l0 852 l-130 0 l0 90 l130 0 l0 307 l192 58 l0 -365 l135 0 l0 -90 Z" /><glyph glyph-name="u" unicode="u" d="M741 78 q-65 -28 -119 -46.5 q-54 -18.5 -100.5 -29.5 q-46.5 -11 -87.5 -15.5 q-41 -4.5 -78 -4.5 q-94 0 -143.5 48.5 q-49.5 48.5 -49.5 157.5 l0 754 l203 0 l0 -723 q0 -23 4.5 -45.5 q4.5 -22.5 16 -40.5 q11.5 -18 31.5 -29.5 q20 -11.5 52 -11.5 q51 0 118.5 12.5 q67.5 12.5 152.5 51.5 l0 786 l202 0 l0 -942 l-202 0 l0 78 Z" /><glyph glyph-name="v" unicode="v" d="M579 217 l277 725 l96 0 l-320 -840 l47 -102 l-211 0 l-434 942 l213 0 l332 -725 Z" /><glyph glyph-name="w" unicode="w" d="M934 285 l228 657 l95 0 l-279 -800 l45 -142 l-177 0 l-164 519 l-150 -396 l36 -123 l-193 0 l-291 942 l191 0 l214 -681 l150 399 l-84 282 l175 0 l204 -657 Z" /><glyph glyph-name="x" unicode="x" d="M585 557 l347 -557 l-216 0 l-241 387 l-244 -387 l-107 0 l298 472 l-292 470 l216 0 l186 -299 l189 299 l106 0 l-242 -385 Z" /><glyph glyph-name="y" unicode="y" d="M474 1 l-1 -1 l-434 942 l204 0 l230 -502 l85 -218 l273 720 l97 0 l-496 -1304 l-96 0 l138 363 Z" /><glyph glyph-name="z" unicode="z" d="M333 90 l506 0 l0 -90 l-779 0 l508 852 l-424 0 l0 90 l695 0 l-506 -852 Z" /><glyph glyph-name="braceleft" unicode="{" d="M174 700 l0 -8 q32 -21 60.5 -46.5 q28.5 -25.5 50.5 -60 q22 -34.5 35.5 -82 q13.5 -47.5 15.5 -112.5 l0 -391 q0 -30 9 -46.5 q9 -16.5 26 -24.5 q17 -8 41 -9.5 q24 -1.5 53 -1.5 l0 -90 l-99 0 q-40 0 -75 11.5 q-35 11.5 -61 33.5 q-26 22 -41 54 q-15 32 -15 73 l0 393 q0 59 -4 106 q-4 47 -16.5 80 q-12.5 33 -36 51.5 q-23.5 18.5 -62.5 20.5 l-51 0 l0 90 l51 0 q39 1 62.5 20 q23.5 19 36 52.5 q12.5 33.5 16.5 80.5 q4 47 4 105 l0 394 q0 40 15 72 q15 32 41 54.5 q26 22.5 61 34 q35 11.5 75 11.5 l99 0 l0 -90 q-29 0 -53 -1.5 q-24 -1.5 -41 -9.5 q-17 -8 -26 -24.5 q-9 -16.5 -9 -46.5 l0 -392 q-2 -66 -15.5 -112.5 q-13.5 -46.5 -35.5 -81 q-22 -34.5 -51 -60 q-29 -25.5 -60 -47.5 Z" /><glyph glyph-name="bar" unicode="|" d="M167 1573 l139 0 l0 -1610 l-139 0 l0 1610 Z" /><glyph glyph-name="braceright" unicode="}" d="M354 700 q-31 21 -60 46.5 q-29 25.5 -51 60.5 q-22 35 -36 82 q-14 47 -15 112 l0 392 q0 30 -9 46.5 q-9 16.5 -26 24.5 q-17 8 -41 9.5 q-24 1.5 -53 1.5 l0 90 l98 0 q40 0 75 -11.5 q35 -11.5 61.5 -34 q26.5 -22.5 41.5 -54.5 q15 -32 15 -72 l0 -394 q0 -58 4 -105 q4 -47 16 -80.5 q12 -33.5 35.5 -52.5 q23.5 -19 62.5 -20 l52 0 l0 -90 l-52 0 q-39 -2 -62.5 -20.5 q-23.5 -18.5 -35.5 -51.5 q-12 -33 -16 -80 q-4 -47 -4 -106 l0 -393 q0 -41 -15 -73 q-15 -32 -41.5 -54 q-26.5 -22 -61.5 -33.5 q-35 -11.5 -75 -11.5 l-98 0 l0 90 q29 0 53 1.5 q24 1.5 41 9.5 q17 8 26 24.5 q9 16.5 9 46.5 l0 391 q1 65 14.5 112.5 q13.5 47.5 36 82.5 q22.5 35 51 60 q28.5 25 60.5 46 l0 8 Z" /><glyph glyph-name="asciitilde" unicode="~" d="M91 477 q17 32 39.5 63.5 q22.5 31.5 52 56.5 q29.5 25 66.5 40.5 q37 15.5 82 15.5 q66 0 127.5 -17 q61.5 -17 124.5 -46 q54 -29 106 -50.5 q52 -21.5 109 -21.5 q54 0 92.5 24 q38.5 24 73.5 81 l73 -64 q-23 -32 -47.5 -63.5 q-24.5 -31.5 -53.5 -56.5 q-29 -25 -63 -40.5 q-34 -15.5 -75 -15.5 q-66 0 -127.5 17.5 q-61.5 17.5 -124.5 48.5 q-55 27 -106.5 48 q-51.5 21 -108.5 21 q-63 0 -102 -24.5 q-39 -24.5 -64 -79.5 l-74 63 Z" /><glyph glyph-name="nonbreakingspace" unicode=" " d="" /><glyph glyph-name="exclamdown" unicode="¡" d="M292 797 l-203 0 l0 159 l203 0 l0 -159 ZM141 682 l100 0 l82 -1212 l-264 0 l82 1212 Z" /><glyph glyph-name="cent" unicode="¢" d="M762 795 q-54 40 -115.5 62 q-61.5 22 -136.5 22 q-71 0 -124.5 -31.5 q-53.5 -31.5 -89.5 -84.5 q-36 -53 -54 -121.5 q-18 -68.5 -18 -141.5 q0 -27 5 -68 q5 -41 18.5 -86.5 q13.5 -45.5 37.5 -91.5 q24 -46 61.5 -83 q37.5 -37 90 -60 q52.5 -23 123.5 -23 l208 0 l0 -88 l-200 0 l0 -246 l-119 0 l0 252 q-117 14 -198.5 56.5 q-81.5 42.5 -132.5 105.5 q-51 63 -74 143 q-23 80 -23 170 q0 92 29 178.5 q29 86.5 84.5 153.5 q55.5 67 134.5 107.5 q79 40.5 180 40.5 l0 262 l119 0 l0 -271 q66 -11 124.5 -36.5 q58.5 -25.5 104.5 -71.5 l-35 -49 Z" /><glyph glyph-name="sterling" unicode="£" d="M104 938 l106 0 l0 317 q0 76 29.5 126.5 q29.5 50.5 85.5 80.5 q56 30 136 42 q80 12 182 12 q34 0 76.5 -2.5 q42.5 -2.5 90 -9.5 q47.5 -7 99 -18 q51.5 -11 104.5 -28 l-4 -100 q-49 18 -94 31.5 q-45 13.5 -87.5 22.5 q-42.5 9 -84.5 13.5 q-42 4.5 -86 4.5 q-122 0 -174.5 -40.5 q-52.5 -40.5 -52.5 -115.5 l0 -336 l307 0 l0 -90 l-307 0 l0 -758 l751 0 l0 -90 l-1077 0 l0 90 l106 0 l0 758 l-106 0 l0 90 Z" /><glyph glyph-name="currency" unicode="¤" d="M258 381 q-51 63 -79 142 q-28 79 -28 167 q0 91 28 169.5 q28 78.5 79 141.5 l-113 113 l92 92 l115 -114 q66 51 143 78.5 q77 27.5 164 27.5 q88 0 166.5 -27.5 q78.5 -27.5 141.5 -78.5 l114 114 l92 -92 l-114 -115 q52 -63 80 -142 q28 -79 28 -167 q0 -88 -27.5 -167 q-27.5 -79 -78.5 -142 l112 -115 l-92 -92 l-114 115 q-63 -51 -141.5 -79 q-78.5 -28 -166.5 -28 q-87 0 -164 28 q-77 28 -143 79 l-115 -115 l-92 92 l113 115 ZM287 690 q0 -78 29 -146 q29 -68 79.5 -118.5 q50.5 -50.5 118 -79.5 q67.5 -29 145.5 -29 q78 0 146 29 q68 29 118.5 79.5 q50.5 50.5 79.5 118.5 q29 68 29 146 q0 78 -29 146 q-29 68 -79.5 118.5 q-50.5 50.5 -118.5 79.5 q-68 29 -146 29 q-78 0 -145.5 -29 q-67.5 -29 -118 -79.5 q-50.5 -50.5 -79.5 -118.5 q-29 -68 -29 -146 Z" /><glyph glyph-name="yen" unicode="¥" d="M519 469 l0 76 l-473 811 l254 0 l371 -670 l348 670 l121 0 l-412 -799 l0 -88 l221 0 l0 -90 l-221 0 l0 -139 l221 0 l0 -90 l-221 0 l0 -150 l-209 0 l0 150 l-235 0 l0 90 l235 0 l0 139 l-235 0 l0 90 l235 0 Z" /><glyph glyph-name="brokenbar" unicode="¦" d="M167 1573 l139 0 l0 -688 l-139 0 l0 688 ZM167 651 l139 0 l0 -688 l-139 0 l0 688 Z" /><glyph glyph-name="section" unicode="§" d="M499 244 q30 27 59 55.5 q29 28.5 52 59.5 q23 31 37 64 q14 33 14 69 q0 67 -28.5 119 q-28.5 52 -70.5 95 q-42 43 -89 78.5 q-47 35.5 -84 69.5 q-30 -28 -59.5 -57 q-29.5 -29 -52.5 -59 q-23 -30 -37.5 -62.5 q-14.5 -32.5 -14.5 -67.5 q0 -66 29 -119 q29 -53 71 -96.5 q42 -43.5 89.5 -79.5 q47.5 -36 84.5 -69 ZM563 -121 q0 36 -21.5 69.5 q-21.5 33.5 -57.5 67 q-36 33.5 -81.5 67.5 q-45.5 34 -92.5 71 q-47 37 -92.5 78.5 q-45.5 41.5 -81.5 90 q-36 48.5 -57.5 105 q-21.5 56.5 -21.5 123.5 q0 59 23.5 108.5 q23.5 49.5 61 94 q37.5 44.5 84 86.5 q46.5 42 91.5 86 q-27 21 -53.5 45.5 q-26.5 24.5 -47.5 55 q-21 30.5 -34.5 67 q-13.5 36.5 -13.5 80.5 q0 55 22 99.5 q22 44.5 59 75.5 q37 31 86 47.5 q49 16.5 103 16.5 q52 0 92 -1.5 q40 -1.5 75 -5 q35 -3.5 69 -11 q34 -7.5 73 -19.5 l-4 -121 q-18 6 -48.5 14 q-30.5 8 -67 15.5 q-36.5 7.5 -77 13 q-40.5 5.5 -77.5 5.5 q-30 0 -56.5 -4 q-26.5 -4 -46.5 -13.5 q-20 -9.5 -31.5 -25 q-11.5 -15.5 -11.5 -39.5 q0 -36 21.5 -69.5 q21.5 -33.5 57.5 -67 q36 -33.5 81.5 -67.5 q45.5 -34 92.5 -71 q47 -37 92.5 -78.5 q45.5 -41.5 81.5 -90 q36 -48.5 57.5 -105 q21.5 -56.5 21.5 -123.5 q0 -59 -23.5 -108.5 q-23.5 -49.5 -61 -94 q-37.5 -44.5 -84 -86.5 q-46.5 -42 -91.5 -86 q27 -21 54 -46 q27 -25 48 -55 q21 -30 34.5 -66.5 q13.5 -36.5 13.5 -80.5 q0 -56 -22 -100 q-22 -44 -59 -75 q-37 -31 -86 -47.5 q-49 -16.5 -104 -16.5 q-51 0 -91 1.5 q-40 1.5 -75.5 5 q-35.5 3.5 -69.5 11 q-34 7.5 -73 19.5 l4 120 q18 -6 48 -14 q30 -8 67 -15.5 q37 -7.5 77.5 -12.5 q40.5 -5 78.5 -5 q30 0 56 4 q26 4 46 13.5 q20 9.5 31.5 25 q11.5 15.5 11.5 39.5 Z" /><glyph glyph-name="dieresis" unicode="¨" d="M358 1085 l-191 0 l0 139 l191 0 l0 -139 ZM689 1085 l-190 0 l0 139 l190 0 l0 -139 Z" /><glyph glyph-name="copyright" unicode="©" d="M99 698 q0 99 25.5 190.5 q25.5 91.5 72 171 q46.5 79.5 112 144.5 q65.5 65 145 111.5 q79.5 46.5 170.5 72 q91 25.5 190 25.5 q99 0 190 -25.5 q91 -25.5 170.5 -72 q79.5 -46.5 145 -111.5 q65.5 -65 112 -144.5 q46.5 -79.5 72 -171 q25.5 -91.5 25.5 -190.5 q0 -99 -25.5 -190 q-25.5 -91 -72 -170.5 q-46.5 -79.5 -112 -144.5 q-65.5 -65 -145 -111.5 q-79.5 -46.5 -170.5 -72 q-91 -25.5 -190 -25.5 q-99 0 -190 25.5 q-91 25.5 -170.5 72 q-79.5 46.5 -145 111.5 q-65.5 65 -112 144.5 q-46.5 79.5 -72 170.5 q-25.5 91 -25.5 190 ZM1394 698 q0 123 -44.5 231 q-44.5 108 -122.5 188 q-78 80 -184 126.5 q-106 46.5 -229 46.5 q-123 0 -228.5 -46.5 q-105.5 -46.5 -183.5 -126.5 q-78 -80 -122.5 -188 q-44.5 -108 -44.5 -231 q0 -123 44.5 -230.5 q44.5 -107.5 122.5 -188 q78 -80.5 183.5 -127 q105.5 -46.5 228.5 -46.5 q123 0 229 46.5 q106 46.5 184 127 q78 80.5 122.5 188 q44.5 107.5 44.5 230.5 ZM818 246 q-95 0 -178 36 q-83 36 -144.5 97.5 q-61.5 61.5 -97.5 144.5 q-36 83 -36 176 q0 93 36 175.5 q36 82.5 97.5 144 q61.5 61.5 144.5 97.5 q83 36 178 36 q108 0 199 -36.5 q91 -36.5 160 -102.5 l-35 -45 q-54 49 -125 67.5 q-71 18.5 -156 18.5 q-77 0 -141.5 -26.5 q-64.5 -26.5 -111 -73.5 q-46.5 -47 -73 -112 q-26.5 -65 -26.5 -143 q0 -77 26.5 -142 q26.5 -65 73 -112 q46.5 -47 111 -73.5 q64.5 -26.5 141.5 -26.5 q38 0 74.5 3 q36.5 3 70.5 10.5 q34 7.5 64.5 21 q30.5 13.5 57.5 35.5 l32 -45 q-66 -57 -154 -91 q-88 -34 -188 -34 Z" /><glyph glyph-name="ordfeminine" unicode="ª" d="M384 1395 q-34 0 -59.5 -2.5 q-25.5 -2.5 -46 -6 q-20.5 -3.5 -38.5 -8 q-18 -4.5 -36 -8.5 l-19 64 q60 19 123.5 27.5 q63.5 8.5 114.5 8.5 q76 0 128 -4 q52 -4 83.5 -13.5 q31.5 -9.5 45 -24.5 q13.5 -15 13.5 -37 l0 -547 l-246 0 q-95 0 -162.5 18.5 q-67.5 18.5 -110.5 50 q-43 31.5 -63 74.5 q-20 43 -20 92 q0 112 73.5 171 q73.5 59 205.5 59 q48 0 86 -9.5 q38 -9.5 71 -28.5 l0 70 q0 10 -4 20 q-4 10 -19 17.5 q-15 7.5 -43.5 12 q-28.5 4.5 -76.5 4.5 ZM527 907 l0 303 q-12 7 -23.5 13 q-11.5 6 -27 10.5 q-15.5 4.5 -37.5 7 q-22 2.5 -55 2.5 q-63 0 -96 -44 q-33 -44 -33 -114 q0 -20 3.5 -50 q3.5 -30 21.5 -58.5 q18 -28.5 55.5 -49 q37.5 -20.5 105.5 -20.5 l86 0 Z" /><glyph glyph-name="guillemotleft" unicode="«" d="M335 860 l143 0 l-283 -375 l283 -374 l-143 0 l-283 374 l283 375 ZM662 860 l144 0 l-283 -375 l283 -374 l-144 0 l-282 374 l282 375 Z" /><glyph glyph-name="logicalnot" unicode="¬" d="M1040 314 l-153 0 l0 190 l-884 0 l0 139 l1037 0 l0 -329 Z" /><glyph glyph-name="uni00AD" unicode="­" d="M167 481 l0 154 l533 0 l0 -154 l-533 0 Z" /><glyph glyph-name="registered" unicode="®" d="M99 698 q0 99 25.5 190.5 q25.5 91.5 72 171 q46.5 79.5 112 144.5 q65.5 65 145 111.5 q79.5 46.5 170.5 72 q91 25.5 190 25.5 q99 0 190 -25.5 q91 -25.5 170.5 -72 q79.5 -46.5 145 -111.5 q65.5 -65 112 -144.5 q46.5 -79.5 72 -171 q25.5 -91.5 25.5 -190.5 q0 -99 -25.5 -190 q-25.5 -91 -72 -170.5 q-46.5 -79.5 -112 -144.5 q-65.5 -65 -145 -111.5 q-79.5 -46.5 -170.5 -72 q-91 -25.5 -190 -25.5 q-99 0 -190 25.5 q-91 25.5 -170.5 72 q-79.5 46.5 -145 111.5 q-65.5 65 -112 144.5 q-46.5 79.5 -72 170.5 q-25.5 91 -25.5 190 ZM1394 698 q0 123 -44.5 231 q-44.5 108 -122.5 188 q-78 80 -184 126.5 q-106 46.5 -229 46.5 q-123 0 -228.5 -46.5 q-105.5 -46.5 -183.5 -126.5 q-78 -80 -122.5 -188 q-44.5 -108 -44.5 -231 q0 -123 44.5 -230.5 q44.5 -107.5 122.5 -188 q78 -80.5 183.5 -127 q105.5 -46.5 228.5 -46.5 q123 0 229 46.5 q106 46.5 184 127 q78 80.5 122.5 188 q44.5 107.5 44.5 230.5 ZM794 1143 q75 0 130 -13 q55 -13 93 -35 q38 -22 62 -50.5 q24 -28.5 37 -59 q13 -30.5 17.5 -60.5 q4.5 -30 4.5 -55 q0 -33 -10.5 -73 q-10.5 -40 -38 -77.5 q-27.5 -37.5 -74.5 -68.5 q-47 -31 -119 -45 l254 -342 l-172 0 l-248 336 l-59 0 l0 -336 l-152 0 l0 879 l275 0 ZM671 1081 l0 -422 l88 0 q40 0 80.5 11.5 q40.5 11.5 72.5 37 q32 25.5 52 66.5 q20 41 20 100 q0 66 -24 106.5 q-24 40.5 -59 63 q-35 22.5 -74 30 q-39 7.5 -68 7.5 l-88 0 Z" /><glyph glyph-name="degree" unicode="°" d="M207 1186 q0 -39 15 -73.5 q15 -34.5 40.5 -60 q25.5 -25.5 60 -40.5 q34.5 -15 73.5 -15 q39 0 73 15 q34 15 59.5 40.5 q25.5 25.5 40.5 60 q15 34.5 15 73.5 q0 39 -15 73 q-15 34 -40.5 59.5 q-25.5 25.5 -59.5 40.5 q-34 15 -73 15 q-39 0 -73.5 -15 q-34.5 -15 -60 -40.5 q-25.5 -25.5 -40.5 -59.5 q-15 -34 -15 -73 ZM99 1186 q0 61 23.5 115.5 q23.5 54.5 63.5 94.5 q40 40 94 63.5 q54 23.5 116 23.5 q61 0 115 -23.5 q54 -23.5 94.5 -63.5 q40.5 -40 64 -94.5 q23.5 -54.5 23.5 -115.5 q0 -62 -23.5 -116 q-23.5 -54 -64 -94 q-40.5 -40 -94.5 -63.5 q-54 -23.5 -115 -23.5 q-62 0 -116 23.5 q-54 23.5 -94 63.5 q-40 40 -63.5 94 q-23.5 54 -23.5 116 Z" /><glyph glyph-name="plusminus" unicode="±" d="M465 649 l-449 0 l0 139 l449 0 l0 449 l139 0 l0 -449 l449 0 l0 -139 l-449 0 l0 -448 l-139 0 l0 448 ZM16 2 l0 139 l1037 0 l0 -139 l-1037 0 Z" /><glyph glyph-name="twosuperior" unicode="²" d="M450 1112 q0 79 -32.5 126.5 q-32.5 47.5 -108.5 47.5 q-20 0 -40.5 -1 q-20.5 -1 -43.5 -4.5 q-23 -3.5 -49 -10.5 q-26 -7 -58 -19 l0 82 q70 25 116.5 31 q46.5 6 74.5 6 q79 0 141 -15 q62 -15 105 -46.5 q43 -31.5 65.5 -80.5 q22.5 -49 22.5 -116 q0 -74 -35.5 -140.5 q-35.5 -66.5 -89.5 -131.5 q-54 -65 -118 -131.5 q-64 -66.5 -122 -141.5 l352 0 l0 -92 l-549 0 l199 258 q51 67 84 124 q33 57 52 104.5 q19 47.5 26.5 85.5 q7.5 38 7.5 65 Z" /><glyph glyph-name="threesuperior" unicode="³" d="M45 1284 l0 72 l392 0 q40 0 64.5 -8.5 q24.5 -8.5 37.5 -21 q13 -12.5 17 -26.5 q4 -14 4 -26 q0 -29 -14.5 -56.5 q-14.5 -27.5 -40.5 -53.5 l-169 -172 q58 0 101.5 -14.5 q43.5 -14.5 73 -40 q29.5 -25.5 44 -60.5 q14.5 -35 14.5 -76 q0 -60 -22 -107 q-22 -47 -60 -83.5 q-38 -36.5 -89 -62.5 q-51 -26 -109.5 -44.5 q-58.5 -18.5 -121 -29 q-62.5 -10.5 -122.5 -15.5 l0 70 q32 2 77 8.5 q45 6.5 100 27.5 q96 36 137.5 93.5 q41.5 57.5 41.5 131.5 q0 27 -8 49.5 q-8 22.5 -26 39 q-18 16.5 -47 25.5 q-29 9 -72 9 l-120 0 l0 42 l219 219 q17 17 31.5 37 q14.5 20 14.5 39 q0 20 -14.5 27 q-14.5 7 -47.5 7 l-286 0 Z" /><glyph glyph-name="acute" unicode="´" d="M187 1317 l233 0 l-264 -293 l-94 0 l125 293 Z" /><glyph glyph-name="mu" unicode="µ&#x3bc;" d="M167 942 l195 0 l0 -565 q0 -36 7 -85.5 q7 -49.5 29 -95.5 q22 -46 62.5 -78 q40.5 -32 106.5 -32 q26 0 67.5 7 q41.5 7 92.5 20 l0 829 l202 0 l0 -942 l-202 0 l0 39 q-30 -12 -61 -22.5 q-31 -10.5 -60 -19 q-29 -8.5 -55 -13 q-26 -4.5 -45 -4.5 q-86 0 -144 43 l0 -385 l-195 -58 l0 1362 Z" /><glyph glyph-name="paragraph" unicode="¶" d="M371 700 q-30 0 -67 13.5 q-37 13.5 -75 39.5 q-38 26 -73.5 62.5 q-35.5 36.5 -63 83.5 q-27.5 47 -44.5 102.5 q-17 55.5 -17 118.5 q0 94 35.5 176.5 q35.5 82.5 96.5 144 q61 61.5 143 97 q82 35.5 175 35.5 l305 0 l0 -1610 l-139 0 l0 1471 l-137 0 l0 -1471 l-139 0 l0 737 Z" /><glyph glyph-name="periodcentered" unicode="·" d="M370 459 l-203 0 l0 205 l203 0 l0 -205 Z" /><glyph glyph-name="cedilla" unicode="¸" d="M238 60 l0 -121 q52 0 90 -14 q38 -14 63 -37.5 q25 -23.5 37.5 -53 q12.5 -29.5 12.5 -59.5 q0 -49 -32.5 -85.5 q-32.5 -36.5 -82 -61 q-49.5 -24.5 -109 -36.5 q-59.5 -12 -112.5 -12 l0 53 q33 4 67 13 q34 9 61.5 25.5 q27.5 16.5 44.5 42.5 q17 26 17 64 q0 20 -7 39.5 q-7 19.5 -24 34.5 q-17 15 -45 24.5 q-28 9.5 -70 9.5 l0 174 l89 0 Z" /><glyph glyph-name="onesuperior" unicode="¹" d="M300 481 l-182 0 l0 788 l-89 -16 l0 61 l188 48 l83 0 l0 -881 Z" /><glyph glyph-name="ordmasculine" unicode="º" d="M445 1473 q72 0 135 -25.5 q63 -25.5 110 -69 q47 -43.5 74 -101.5 q27 -58 27 -124 q0 -67 -27.5 -125.5 q-27.5 -58.5 -74.5 -102 q-47 -43.5 -109.5 -69 q-62.5 -25.5 -132.5 -25.5 q-71 0 -134.5 25.5 q-63.5 25.5 -111 69 q-47.5 43.5 -75 102 q-27.5 58.5 -27.5 125.5 q0 66 28 124 q28 58 75.5 101.5 q47.5 43.5 110 69 q62.5 25.5 132.5 25.5 ZM445 909 q46 0 78.5 18 q32.5 18 52.5 50.5 q20 32.5 29.5 76.5 q9.5 44 9.5 95 q0 52 -9 97 q-9 45 -29 77.5 q-20 32.5 -52.5 51 q-32.5 18.5 -79.5 18.5 q-47 0 -79.5 -18.5 q-32.5 -18.5 -52.5 -51 q-20 -32.5 -29 -77.5 q-9 -45 -9 -97 q0 -51 9.5 -95 q9.5 -44 29.5 -76.5 q20 -32.5 52.5 -50.5 q32.5 -18 78.5 -18 Z" /><glyph glyph-name="guillemotright" unicode="»" d="M551 485 l-283 -374 l-143 0 l283 374 l-283 375 l143 0 l283 -375 ZM879 485 l-283 -374 l-143 0 l282 374 l-282 375 l143 0 l283 -375 Z" /><glyph glyph-name="onequarter" unicode="¼" d="M358 481 l-182 0 l0 788 l-89 -16 l0 61 l188 48 l83 0 l0 -881 ZM1060 1439 l118 0 l-801 -1545 l-118 0 l801 1545 ZM1350 224 l86 0 l0 -88 l-86 0 l0 -135 l-182 0 l0 135 l-439 0 l0 58 l488 688 l133 0 l0 -658 ZM1168 224 l0 449 l-312 -449 l312 0 Z" /><glyph glyph-name="onehalf" unicode="½" d="M363 481 l-182 0 l0 788 l-89 -16 l0 61 l188 48 l83 0 l0 -881 ZM1065 1439 l118 0 l-801 -1545 l-118 0 l801 1545 ZM1348 638 q0 79 -32.5 126.5 q-32.5 47.5 -108.5 47.5 q-20 0 -40.5 -1 q-20.5 -1 -43.5 -4.5 q-23 -3.5 -49 -10.5 q-26 -7 -58 -19 l0 82 q70 25 116.5 31 q46.5 6 74.5 6 q79 0 141 -15 q62 -15 105 -46.5 q43 -31.5 65.5 -80.5 q22.5 -49 22.5 -116 q0 -74 -35.5 -140.5 q-35.5 -66.5 -89.5 -131.5 q-54 -65 -118 -131.5 q-64 -66.5 -122 -141.5 l352 0 l0 -92 l-549 0 l199 258 q51 67 84 124 q33 57 52 104.5 q19 47.5 26.5 85.5 q7.5 38 7.5 65 Z" /><glyph glyph-name="threequarters" unicode="¾" d="M1149 1439 l118 0 l-801 -1545 l-118 0 l801 1545 ZM1439 224 l86 0 l0 -88 l-86 0 l0 -135 l-182 0 l0 135 l-439 0 l0 58 l488 688 l133 0 l0 -658 ZM1257 224 l0 449 l-312 -449 l312 0 ZM46 1284 l0 72 l392 0 q40 0 64.5 -8.5 q24.5 -8.5 37.5 -21 q13 -12.5 17 -26.5 q4 -14 4 -26 q0 -29 -14.5 -56.5 q-14.5 -27.5 -40.5 -53.5 l-169 -172 q58 0 101.5 -14.5 q43.5 -14.5 73 -40 q29.5 -25.5 44 -60.5 q14.5 -35 14.5 -76 q0 -60 -22 -107 q-22 -47 -60 -83.5 q-38 -36.5 -89 -62.5 q-51 -26 -109.5 -44.5 q-58.5 -18.5 -121 -29 q-62.5 -10.5 -122.5 -15.5 l0 70 q32 2 77 8.5 q45 6.5 100 27.5 q96 36 137.5 93.5 q41.5 57.5 41.5 131.5 q0 27 -8 49.5 q-8 22.5 -26 39 q-18 16.5 -47 25.5 q-29 9 -72 9 l-120 0 l0 42 l219 219 q17 17 31.5 37 q14.5 20 14.5 39 q0 20 -14.5 27 q-14.5 7 -47.5 7 l-286 0 Z" /><glyph glyph-name="questiondown" unicode="¿" d="M712 530 q0 -49 -25 -108 q-25 -59 -76 -119 l-239 -293 q-36 -44 -60.5 -79 q-24.5 -35 -40.5 -65.5 q-16 -30.5 -23 -59.5 q-7 -29 -7 -60 q0 -30 11 -55 q11 -25 36.5 -42.5 q25.5 -17.5 67 -27.5 q41.5 -10 102.5 -10 q31 0 62 1.5 q31 1.5 65.5 6.5 q34.5 5 74 15 q39.5 10 89.5 28 l4 -100 q-108 -34 -183.5 -46 q-75.5 -12 -126.5 -12 q-101 0 -181.5 13 q-80.5 13 -136 43.5 q-55.5 30.5 -85 80 q-29.5 49.5 -29.5 123.5 q0 34 13 74 q13 40 37 83.5 q24 43.5 58.5 89 q34.5 45.5 76.5 89.5 l215 267 q35 45 60.5 84.5 q25.5 39.5 25.5 74.5 q0 25 -5.5 42 q-5.5 17 -23 27.5 q-17.5 10.5 -51 14.5 q-33.5 4 -90.5 4 l0 91 l180 0 q94 0 149.5 -45 q55.5 -45 55.5 -130 ZM388 1020 l203 0 l0 -160 l-203 0 l0 160 Z" /><glyph glyph-name="Agrave" unicode="à" d="M1374 0 l-231 0 l-82 193 l-813 0 l-80 -193 l-121 0 l545 1296 l-80 191 l234 0 l628 -1487 ZM289 291 l731 0 l-369 864 l-362 -864 ZM715 1565 l-96 0 l-262 293 l233 0 l125 -293 Z" /><glyph glyph-name="Aacute" unicode="á" d="M1357 0 l-231 0 l-82 193 l-813 0 l-80 -193 l-121 0 l545 1296 l-80 191 l234 0 l628 -1487 ZM272 291 l731 0 l-369 864 l-362 -864 ZM880 1860 l-280 -293 l-74 0 l111 293 l243 0 Z" /><glyph glyph-name="Acircumflex" unicode="â" d="M1379 0 l-231 0 l-82 193 l-813 0 l-80 -193 l-121 0 l545 1296 l-80 191 l234 0 l628 -1487 ZM294 291 l731 0 l-369 864 l-362 -864 ZM538 1862 l233 0 l182 -293 l-100 0 l-199 197 l-198 -197 l-101 0 l183 293 Z" /><glyph glyph-name="Atilde" unicode="ã" d="M1365 0 l-231 0 l-82 193 l-813 0 l-80 -193 l-121 0 l545 1296 l-80 191 l234 0 l628 -1487 ZM280 291 l731 0 l-369 864 l-362 -864 ZM585 1700 q-29 16 -54.5 27.5 q-25.5 11.5 -54.5 11.5 q-37 0 -55.5 -25 q-18.5 -25 -18.5 -82 l-69 0 q0 117 47 174 q47 57 123 57 q18 0 36 -4 q18 -4 35.5 -10.5 q17.5 -6.5 33.5 -14 q16 -7.5 30 -14.5 l47 -24 q30 -16 55.5 -27.5 q25.5 -11.5 50.5 -11.5 q38 0 56 25.5 q18 25.5 18 80.5 l70 0 q0 -115 -47.5 -173 q-47.5 -58 -122.5 -58 q-37 1 -69.5 13 q-32.5 12 -61.5 28 l-49 27 Z" /><glyph glyph-name="Adieresis" unicode="ä" d="M1347 0 l-231 0 l-82 193 l-813 0 l-80 -193 l-121 0 l545 1296 l-80 191 l234 0 l628 -1487 ZM262 291 l731 0 l-369 864 l-362 -864 ZM555 1689 l-191 0 l0 139 l191 0 l0 -139 ZM886 1689 l-190 0 l0 139 l190 0 l0 -139 Z" /><glyph glyph-name="Aring" unicode="å" d="M1381 0 l-231 0 l-82 193 l-813 0 l-80 -193 l-121 0 l545 1296 l-80 191 l234 0 l628 -1487 ZM296 291 l731 0 l-369 864 l-362 -864 ZM646 1883 q45 0 82.5 -13 q37.5 -13 63.5 -36 q26 -23 40.5 -54 q14.5 -31 14.5 -67 q0 -36 -14.5 -66.5 q-14.5 -30.5 -40.5 -53 q-26 -22.5 -63.5 -35.5 q-37.5 -13 -82.5 -13 q-45 0 -82.5 13 q-37.5 13 -63.5 35.5 q-26 22.5 -40.5 53 q-14.5 30.5 -14.5 66.5 q0 36 14.5 67 q14.5 31 41 54 q26.5 23 63.5 36 q37 13 82 13 ZM646 1827 q-20 0 -36.5 -9 q-16.5 -9 -28.5 -24 q-12 -15 -18.5 -35.5 q-6.5 -20.5 -6.5 -43.5 q0 -23 6.5 -44 q6.5 -21 18.5 -37 q12 -16 28.5 -25 q16.5 -9 36.5 -9 q21 0 37.5 9 q16.5 9 28 25 q11.5 16 18 37 q6.5 21 6.5 44 q0 46 -24 79 q-24 33 -66 33 Z" /><glyph glyph-name="AE" unicode="æ" d="M1944 1395 l-752 0 l0 -457 l752 0 l0 -90 l-752 0 l0 -758 l752 0 l0 -90 l-971 0 l0 193 l-682 0 l-112 -193 l-142 0 l877 1487 l1030 0 l0 -92 ZM973 285 l0 1065 l-626 -1065 l626 0 Z" /><glyph glyph-name="Ccedilla" unicode="ç" d="M841 1518 q174 0 322.5 -56.5 q148.5 -56.5 263.5 -156.5 l-56 -74 q-46 39 -102 73 q-56 34 -118 58.5 q-62 24.5 -129 39 q-67 14.5 -135 14.5 q-146 0 -259 -53 q-113 -53 -190 -145 q-77 -92 -117 -215 q-40 -123 -40 -264 q0 -138 39.5 -260 q39.5 -122 116 -214 q76.5 -92 189.5 -145.5 q113 -53.5 259 -53.5 q70 0 142 14 q72 14 139 41 q67 27 126.5 66 q59.5 39 105.5 89 l57 -73 q-118 -112 -274 -175 q-156 -63 -340 -63 l0 -55 q57 0 99.5 -16 q42.5 -16 70.5 -41.5 q28 -25.5 41.5 -58 q13.5 -32.5 13.5 -66.5 q0 -54 -36 -94.5 q-36 -40.5 -91 -67.5 q-55 -27 -121 -40 q-66 -13 -125 -13 l0 59 q37 4 74.5 13.5 q37.5 9.5 68 28 q30.5 18.5 49.5 47 q19 28.5 19 70.5 q0 22 -7.5 43.5 q-7.5 21.5 -26 38.5 q-18.5 17 -50 27.5 q-31.5 10.5 -78.5 10.5 l0 120 q-59 7 -114 22 q-102 27 -190.5 78 q-88.5 51 -161 121.5 q-72.5 70.5 -124 156.5 q-51.5 86 -80 184.5 q-28.5 98.5 -28.5 205.5 q0 107 28.5 207 q28.5 100 80 186.5 q51.5 86.5 124 157.5 q72.5 71 161 121.5 q88.5 50.5 190.5 78.5 q102 28 213 28 Z" /><glyph glyph-name="Egrave" unicode="è" d="M1028 1487 l0 -98 l-691 0 l0 -451 l670 0 l0 -98 l-670 0 l0 -742 l691 0 l0 -98 l-910 0 l0 1487 l910 0 ZM681 1567 l-96 0 l-262 293 l233 0 l125 -293 Z" /><glyph glyph-name="Eacute" unicode="é" d="M1010 1487 l0 -98 l-691 0 l0 -451 l670 0 l0 -98 l-670 0 l0 -742 l691 0 l0 -98 l-910 0 l0 1487 l910 0 ZM854 1860 l-280 -293 l-74 0 l111 293 l243 0 Z" /><glyph glyph-name="Ecircumflex" unicode="ê" d="M1034 1487 l0 -98 l-691 0 l0 -451 l670 0 l0 -98 l-670 0 l0 -742 l691 0 l0 -98 l-910 0 l0 1487 l910 0 ZM494 1860 l233 0 l182 -293 l-100 0 l-199 197 l-198 -197 l-101 0 l183 293 Z" /><glyph glyph-name="Edieresis" unicode="ë" d="M1019 1487 l0 -98 l-691 0 l0 -451 l670 0 l0 -98 l-670 0 l0 -742 l691 0 l0 -98 l-910 0 l0 1487 l910 0 ZM507 1691 l-191 0 l0 139 l191 0 l0 -139 ZM838 1691 l-190 0 l0 139 l190 0 l0 -139 Z" /><glyph glyph-name="Igrave" unicode="ì" d="M378 0 l-220 0 l0 1487 l220 0 l0 -1487 ZM359 1565 l-96 0 l-262 293 l233 0 l125 -293 Z" /><glyph glyph-name="Iacute" unicode="í" d="M357 0 l-220 0 l0 1487 l220 0 l0 -1487 ZM518 1860 l-280 -293 l-74 0 l111 293 l243 0 Z" /><glyph glyph-name="Icircumflex" unicode="î" d="M439 0 l-220 0 l0 1487 l220 0 l0 -1487 ZM212 1858 l233 0 l182 -293 l-100 0 l-199 197 l-198 -197 l-101 0 l183 293 Z" /><glyph glyph-name="Idieresis" unicode="ï" d="M385 0 l-220 0 l0 1487 l220 0 l0 -1487 ZM206 1691 l-191 0 l0 139 l191 0 l0 -139 ZM537 1691 l-190 0 l0 139 l190 0 l0 -139 Z" /><glyph glyph-name="Eth" unicode="ð" d="M1539 745 q0 -156 -55.5 -291.5 q-55.5 -135.5 -164.5 -236.5 q-109 -101 -270.5 -159 q-161.5 -58 -373.5 -58 l-426 0 l0 840 l-152 0 l0 98 l152 0 l0 549 l426 0 q212 0 373.5 -58 q161.5 -58 270.5 -158.5 q109 -100.5 164.5 -236 q55.5 -135.5 55.5 -289.5 ZM1307 741 q0 136 -31 237 q-31 101 -84 173 q-53 72 -124 118.5 q-71 46.5 -150 73 q-79 26.5 -162.5 36.5 q-83.5 10 -162.5 10 l-125 0 l0 -451 l360 0 l0 -98 l-360 0 l0 -742 l125 0 q79 0 162.5 10 q83.5 10 162.5 36.5 q79 26.5 150 72.5 q71 46 124 117.5 q53 71.5 84 171.5 q31 100 31 235 Z" /><glyph glyph-name="Ntilde" unicode="ñ" d="M1290 0 l-168 0 l-824 1155 l0 -1155 l-102 0 l0 1298 l-133 189 l268 0 l856 -1202 l0 1202 l103 0 l0 -1487 ZM706 1714 q-29 16 -54.5 27.5 q-25.5 11.5 -54.5 11.5 q-37 0 -55.5 -25 q-18.5 -25 -18.5 -82 l-69 0 q0 117 47 174 q47 57 123 57 q18 0 36 -4 q18 -4 35.5 -10.5 q17.5 -6.5 33.5 -14 q16 -7.5 30 -14.5 l47 -24 q30 -16 55.5 -27.5 q25.5 -11.5 50.5 -11.5 q38 0 56 25.5 q18 25.5 18 80.5 l70 0 q0 -115 -47.5 -173 q-47.5 -58 -122.5 -58 q-37 1 -69.5 13 q-32.5 12 -61.5 28 l-49 27 Z" /><glyph glyph-name="Ograve" unicode="ò" d="M864 -29 q-110 0 -211.5 28 q-101.5 28 -190 78.5 q-88.5 50.5 -161 121.5 q-72.5 71 -124.5 157.5 q-52 86.5 -80.5 186 q-28.5 99.5 -28.5 207.5 q0 106 28.5 205 q28.5 99 80.5 185 q52 86 124.5 157 q72.5 71 161 121 q88.5 50 190 78 q101.5 28 211.5 28 q109 0 210 -27.5 q101 -27.5 189 -78 q88 -50.5 160.5 -121.5 q72.5 -71 124 -157 q51.5 -86 80 -185 q28.5 -99 28.5 -205 q0 -108 -28.5 -207.5 q-28.5 -99.5 -80 -186 q-51.5 -86.5 -124 -157.5 q-72.5 -71 -160.5 -121.5 q-88 -50.5 -189 -78.5 q-101 -28 -210 -28 ZM864 68 q136 0 240.5 53 q104.5 53 175.5 145 q71 92 107.5 216.5 q36.5 124.5 36.5 267.5 q0 142 -36 266 q-36 124 -106.5 215 q-70.5 91 -175.5 143.5 q-105 52.5 -242 52.5 q-139 0 -243.5 -52.5 q-104.5 -52.5 -175 -143.5 q-70.5 -91 -106 -215 q-35.5 -124 -35.5 -266 q0 -143 36 -267.5 q36 -124.5 106.5 -216.5 q70.5 -92 175.5 -145 q105 -53 242 -53 ZM925 1565 l-96 0 l-262 293 l233 0 l125 -293 Z" /><glyph glyph-name="Oacute" unicode="ó" d="M853 -29 q-110 0 -211.5 28 q-101.5 28 -190 78.5 q-88.5 50.5 -161 121.5 q-72.5 71 -124.5 157.5 q-52 86.5 -80.5 186 q-28.5 99.5 -28.5 207.5 q0 106 28.5 205 q28.5 99 80.5 185 q52 86 124.5 157 q72.5 71 161 121 q88.5 50 190 78 q101.5 28 211.5 28 q109 0 210 -27.5 q101 -27.5 189 -78 q88 -50.5 160.5 -121.5 q72.5 -71 124 -157 q51.5 -86 80 -185 q28.5 -99 28.5 -205 q0 -108 -28.5 -207.5 q-28.5 -99.5 -80 -186 q-51.5 -86.5 -124 -157.5 q-72.5 -71 -160.5 -121.5 q-88 -50.5 -189 -78.5 q-101 -28 -210 -28 ZM853 68 q136 0 240.5 53 q104.5 53 175.5 145 q71 92 107.5 216.5 q36.5 124.5 36.5 267.5 q0 142 -36 266 q-36 124 -106.5 215 q-70.5 91 -175.5 143.5 q-105 52.5 -242 52.5 q-139 0 -243.5 -52.5 q-104.5 -52.5 -175 -143.5 q-70.5 -91 -106 -215 q-35.5 -124 -35.5 -266 q0 -143 36 -267.5 q36 -124.5 106.5 -216.5 q70.5 -92 175.5 -145 q105 -53 242 -53 ZM1158 1860 l-280 -293 l-74 0 l111 293 l243 0 Z" /><glyph glyph-name="Ocircumflex" unicode="ô" d="M865 -29 q-110 0 -211.5 28 q-101.5 28 -190 78.5 q-88.5 50.5 -161 121.5 q-72.5 71 -124.5 157.5 q-52 86.5 -80.5 186 q-28.5 99.5 -28.5 207.5 q0 106 28.5 205 q28.5 99 80.5 185 q52 86 124.5 157 q72.5 71 161 121 q88.5 50 190 78 q101.5 28 211.5 28 q109 0 210 -27.5 q101 -27.5 189 -78 q88 -50.5 160.5 -121.5 q72.5 -71 124 -157 q51.5 -86 80 -185 q28.5 -99 28.5 -205 q0 -108 -28.5 -207.5 q-28.5 -99.5 -80 -186 q-51.5 -86.5 -124 -157.5 q-72.5 -71 -160.5 -121.5 q-88 -50.5 -189 -78.5 q-101 -28 -210 -28 ZM865 68 q136 0 240.5 53 q104.5 53 175.5 145 q71 92 107.5 216.5 q36.5 124.5 36.5 267.5 q0 142 -36 266 q-36 124 -106.5 215 q-70.5 91 -175.5 143.5 q-105 52.5 -242 52.5 q-139 0 -243.5 -52.5 q-104.5 -52.5 -175 -143.5 q-70.5 -91 -106 -215 q-35.5 -124 -35.5 -266 q0 -143 36 -267.5 q36 -124.5 106.5 -216.5 q70.5 -92 175.5 -145 q105 -53 242 -53 ZM743 1862 l233 0 l182 -293 l-100 0 l-199 197 l-198 -197 l-101 0 l183 293 Z" /><glyph glyph-name="Otilde" unicode="õ" d="M865 -29 q-110 0 -211.5 28 q-101.5 28 -190 78.5 q-88.5 50.5 -161 121.5 q-72.5 71 -124.5 157.5 q-52 86.5 -80.5 186 q-28.5 99.5 -28.5 207.5 q0 106 28.5 205 q28.5 99 80.5 185 q52 86 124.5 157 q72.5 71 161 121 q88.5 50 190 78 q101.5 28 211.5 28 q109 0 210 -27.5 q101 -27.5 189 -78 q88 -50.5 160.5 -121.5 q72.5 -71 124 -157 q51.5 -86 80 -185 q28.5 -99 28.5 -205 q0 -108 -28.5 -207.5 q-28.5 -99.5 -80 -186 q-51.5 -86.5 -124 -157.5 q-72.5 -71 -160.5 -121.5 q-88 -50.5 -189 -78.5 q-101 -28 -210 -28 ZM865 68 q136 0 240.5 53 q104.5 53 175.5 145 q71 92 107.5 216.5 q36.5 124.5 36.5 267.5 q0 142 -36 266 q-36 124 -106.5 215 q-70.5 91 -175.5 143.5 q-105 52.5 -242 52.5 q-139 0 -243.5 -52.5 q-104.5 -52.5 -175 -143.5 q-70.5 -91 -106 -215 q-35.5 -124 -35.5 -266 q0 -143 36 -267.5 q36 -124.5 106.5 -216.5 q70.5 -92 175.5 -145 q105 -53 242 -53 ZM814 1694 q-29 16 -54.5 27.5 q-25.5 11.5 -54.5 11.5 q-37 0 -55.5 -25 q-18.5 -25 -18.5 -82 l-69 0 q0 117 47 174 q47 57 123 57 q18 0 36 -4 q18 -4 35.5 -10.5 q17.5 -6.5 33.5 -14 q16 -7.5 30 -14.5 l47 -24 q30 -16 55.5 -27.5 q25.5 -11.5 50.5 -11.5 q38 0 56 25.5 q18 25.5 18 80.5 l70 0 q0 -115 -47.5 -173 q-47.5 -58 -122.5 -58 q-37 1 -69.5 13 q-32.5 12 -61.5 28 l-49 27 Z" /><glyph glyph-name="Odieresis" unicode="ö" d="M856 -29 q-110 0 -211.5 28 q-101.5 28 -190 78.5 q-88.5 50.5 -161 121.5 q-72.5 71 -124.5 157.5 q-52 86.5 -80.5 186 q-28.5 99.5 -28.5 207.5 q0 106 28.5 205 q28.5 99 80.5 185 q52 86 124.5 157 q72.5 71 161 121 q88.5 50 190 78 q101.5 28 211.5 28 q109 0 210 -27.5 q101 -27.5 189 -78 q88 -50.5 160.5 -121.5 q72.5 -71 124 -157 q51.5 -86 80 -185 q28.5 -99 28.5 -205 q0 -108 -28.5 -207.5 q-28.5 -99.5 -80 -186 q-51.5 -86.5 -124 -157.5 q-72.5 -71 -160.5 -121.5 q-88 -50.5 -189 -78.5 q-101 -28 -210 -28 ZM856 68 q136 0 240.5 53 q104.5 53 175.5 145 q71 92 107.5 216.5 q36.5 124.5 36.5 267.5 q0 142 -36 266 q-36 124 -106.5 215 q-70.5 91 -175.5 143.5 q-105 52.5 -242 52.5 q-139 0 -243.5 -52.5 q-104.5 -52.5 -175 -143.5 q-70.5 -91 -106 -215 q-35.5 -124 -35.5 -266 q0 -143 36 -267.5 q36 -124.5 106.5 -216.5 q70.5 -92 175.5 -145 q105 -53 242 -53 ZM781 1691 l-191 0 l0 139 l191 0 l0 -139 ZM1112 1691 l-190 0 l0 139 l190 0 l0 -139 Z" /><glyph glyph-name="multiply" unicode="×" d="M549 516 l-317 -317 l-98 98 l317 317 l-317 318 l98 98 l317 -317 l318 317 l98 -98 l-317 -318 l317 -317 l-98 -98 l-318 317 Z" /><glyph glyph-name="Oslash" unicode="ø" d="M445 104 q-63 42 -117 95 q-72 71 -124 157.5 q-52 86.5 -80.5 186 q-28.5 99.5 -28.5 207.5 q0 106 28.5 205 q28.5 99 80.5 185 q52 86 124.5 157 q72.5 71 161 121 q88.5 50 190 78 q101.5 28 211.5 28 q109 0 210 -28 q63 -17 120 -43 l64 113 l155 0 l-101 -179 q60 -40 111 -90 q73 -71 124.5 -157 q51.5 -86 80 -185 q28.5 -99 28.5 -205 q0 -108 -28.5 -207.5 q-28.5 -99.5 -80 -186 q-51.5 -86.5 -124 -157.5 q-72.5 -71 -160.5 -121.5 q-88 -50.5 -189 -78.5 q-101 -28 -210 -28 q-110 0 -212 28 q-60 16 -116 41 l-51 -91 l-155 0 l88 155 ZM473 266 q20 -26 43 -50 l648 1142 q-15 8 -31 16 q-105 53 -242 53 q-139 0 -243.5 -52.5 q-104.5 -52.5 -175 -143.5 q-70.5 -91 -106 -215 q-35.5 -124 -35.5 -266 q0 -143 36 -267.5 q36 -124.5 106 -216.5 ZM891 68 q136 0 240.5 53 q104.5 53 175.5 145 q71 92 107.5 216.5 q36.5 124.5 36.5 267.5 q0 142 -36 266 q-36 124 -107 215 q-17 22 -37 43 l-648 -1140 q13 -7 26 -13 q105 -53 242 -53 Z" /><glyph glyph-name="Ugrave" unicode="ù" d="M1023 1487 l219 0 l0 -1487 l-219 0 l0 117 l-244 -82 q-50 -17 -101 -29 q-51 -12 -99 -20 q-48 -8 -91 -11.5 q-43 -3.5 -76 -3.5 q-71 0 -121 15.5 q-50 15.5 -83 40 q-33 24.5 -52 54.5 q-19 30 -28.5 58 q-9.5 28 -12 51.5 q-2.5 23.5 -2.5 34.5 l0 1262 l220 0 l0 -1176 q0 -19 4 -53.5 q4 -34.5 23 -68 q19 -33.5 59 -58.5 q40 -25 112 -25 q59 0 115 6 q56 6 114.5 18 q58.5 12 122.5 30.5 q64 18.5 140 44.5 l0 1282 ZM781 1567 l-96 0 l-262 293 l233 0 l125 -293 Z" /><glyph glyph-name="Uacute" unicode="ú" d="M1013 1487 l219 0 l0 -1487 l-219 0 l0 117 l-244 -82 q-50 -17 -101 -29 q-51 -12 -99 -20 q-48 -8 -91 -11.5 q-43 -3.5 -76 -3.5 q-71 0 -121 15.5 q-50 15.5 -83 40 q-33 24.5 -52 54.5 q-19 30 -28.5 58 q-9.5 28 -12 51.5 q-2.5 23.5 -2.5 34.5 l0 1262 l220 0 l0 -1176 q0 -19 4 -53.5 q4 -34.5 23 -68 q19 -33.5 59 -58.5 q40 -25 112 -25 q59 0 115 6 q56 6 114.5 18 q58.5 12 122.5 30.5 q64 18.5 140 44.5 l0 1282 ZM908 1860 l-280 -293 l-74 0 l111 293 l243 0 Z" /><glyph glyph-name="Ucircumflex" unicode="û" d="M1030 1487 l219 0 l0 -1487 l-219 0 l0 117 l-244 -82 q-50 -17 -101 -29 q-51 -12 -99 -20 q-48 -8 -91 -11.5 q-43 -3.5 -76 -3.5 q-71 0 -121 15.5 q-50 15.5 -83 40 q-33 24.5 -52 54.5 q-19 30 -28.5 58 q-9.5 28 -12 51.5 q-2.5 23.5 -2.5 34.5 l0 1262 l220 0 l0 -1176 q0 -19 4 -53.5 q4 -34.5 23 -68 q19 -33.5 59 -58.5 q40 -25 112 -25 q59 0 115 6 q56 6 114.5 18 q58.5 12 122.5 30.5 q64 18.5 140 44.5 l0 1282 ZM561 1862 l233 0 l182 -293 l-100 0 l-199 197 l-198 -197 l-101 0 l183 293 Z" /><glyph glyph-name="Udieresis" unicode="ü" d="M1013 1487 l219 0 l0 -1487 l-219 0 l0 117 l-244 -82 q-50 -17 -101 -29 q-51 -12 -99 -20 q-48 -8 -91 -11.5 q-43 -3.5 -76 -3.5 q-71 0 -121 15.5 q-50 15.5 -83 40 q-33 24.5 -52 54.5 q-19 30 -28.5 58 q-9.5 28 -12 51.5 q-2.5 23.5 -2.5 34.5 l0 1262 l220 0 l0 -1176 q0 -19 4 -53.5 q4 -34.5 23 -68 q19 -33.5 59 -58.5 q40 -25 112 -25 q59 0 115 6 q56 6 114.5 18 q58.5 12 122.5 30.5 q64 18.5 140 44.5 l0 1282 ZM600 1691 l-191 0 l0 139 l191 0 l0 -139 ZM931 1691 l-190 0 l0 139 l190 0 l0 -139 Z" /><glyph glyph-name="Yacute" unicode="ý" d="M476 676 l-473 811 l256 0 l371 -670 l348 670 l121 0 l-412 -799 l0 -688 l-211 0 l0 676 ZM866 1860 l-280 -293 l-74 0 l111 293 l243 0 Z" /><glyph glyph-name="Thorn" unicode="þ" d="M386 1321 l153 0 q157 0 269 -26.5 q112 -26.5 188 -70.5 q76 -44 122 -101.5 q46 -57.5 70 -119 q24 -61.5 31.5 -123 q7.5 -61.5 7.5 -114.5 q0 -52 -8.5 -112.5 q-8.5 -60.5 -34 -120.5 q-25.5 -60 -72 -115.5 q-46.5 -55.5 -123 -98.5 q-76.5 -43 -187 -68.5 q-110.5 -25.5 -263.5 -25.5 l-153 0 l0 -225 l-219 0 l0 1487 l219 0 l0 -166 ZM386 1223 l0 -899 l123 0 q111 0 203 25 q92 25 158 79.5 q66 54.5 102 140 q36 85.5 36 207.5 q0 93 -18.5 162.5 q-18.5 69.5 -52 119 q-33.5 49.5 -79.5 81.5 q-46 32 -101 51 q-55 19 -117 26 q-62 7 -127 7 l-127 0 Z" /><glyph glyph-name="germandbls" unicode="ß" d="M355 -10 l0 -352 l-189 -58 l0 1759 q6 85 53.5 128.5 q47.5 43.5 128.5 43.5 l177 0 l0 -90 q-57 0 -90.5 -2 q-33.5 -2 -51.5 -11 q-18 -9 -23 -26 q-5 -17 -5 -47 l0 -393 l440 0 q40 0 70 -23.5 q30 -23.5 30 -72.5 q0 -8 -5 -24.5 q-5 -16.5 -25 -37.5 q-11 -11 -30 -28.5 q-19 -17.5 -40.5 -37 q-21.5 -19.5 -44 -39.5 q-22.5 -20 -40.5 -35.5 q-18 -15.5 -29.5 -25.5 q-11.5 -10 -10.5 -10 l0 -4 l4 0 q10 0 33 -3.5 q23 -3.5 51 -14 q28 -10.5 58 -29.5 q30 -19 55 -49.5 q25 -30.5 41 -74.5 q16 -44 16 -105 q0 -74 -36.5 -136.5 q-36.5 -62.5 -97.5 -107.5 q-61 -45 -139 -70.5 q-78 -25.5 -162 -25.5 l-11 0 l-127 2 ZM719 328 q0 38 -12.5 71.5 q-12.5 33.5 -36 58.5 q-23.5 25 -57 39.5 q-33.5 14.5 -74.5 14.5 l-64 0 l0 53 l119 90 q60 45 93.5 80 q33.5 35 33.5 64 q0 19 -13 30 q-13 11 -34 16 q-21 5 -48 6 q-27 1 -54 1 l-217 0 l0 -778 l92 0 q45 0 93.5 14 q48.5 14 88 44.5 q39.5 30.5 65 78.5 q25.5 48 25.5 117 Z" /><glyph glyph-name="agrave" unicode="à" d="M453 874 q-48 0 -83.5 -3 q-35.5 -3 -64.5 -8 q-29 -5 -54 -11.5 q-25 -6.5 -50 -13.5 l-24 65 q84 31 175.5 44.5 q91.5 13.5 173.5 13.5 q105 0 172.5 -11 q67.5 -11 105.5 -36.5 q38 -25.5 52.5 -68 q14.5 -42.5 14.5 -106.5 l0 -739 l-328 0 q-134 0 -228.5 28 q-94.5 28 -154.5 75.5 q-60 47.5 -88 109 q-28 61.5 -28 129.5 q0 84 26.5 148 q26.5 64 76.5 107.5 q50 43.5 122 66 q72 22.5 164 22.5 q50 0 113.5 -17 q63.5 -17 121.5 -51 l0 125 q0 23 -5 46.5 q-5 23.5 -26 42 q-21 18.5 -64.5 30.5 q-43.5 12 -119.5 12 ZM668 82 l0 463 q-48 29 -100 43 q-52 14 -115 14 q-50 0 -88.5 -18 q-38.5 -18 -64.5 -51 q-26 -33 -39.5 -79 q-13.5 -46 -13.5 -102 q0 -16 1.5 -42 q1.5 -26 10 -56 q8.5 -30 26 -60.5 q17.5 -30.5 49.5 -55.5 q32 -25 81 -40.5 q49 -15.5 120 -15.5 l133 0 ZM640 1085 l-96 0 l-262 293 l233 0 l125 -293 Z" /><glyph glyph-name="aacute" unicode="á" d="M435 874 q-48 0 -83.5 -3 q-35.5 -3 -64.5 -8 q-29 -5 -54 -11.5 q-25 -6.5 -50 -13.5 l-24 65 q84 31 175.5 44.5 q91.5 13.5 173.5 13.5 q105 0 172.5 -11 q67.5 -11 105.5 -36.5 q38 -25.5 52.5 -68 q14.5 -42.5 14.5 -106.5 l0 -739 l-328 0 q-134 0 -228.5 28 q-94.5 28 -154.5 75.5 q-60 47.5 -88 109 q-28 61.5 -28 129.5 q0 84 26.5 148 q26.5 64 76.5 107.5 q50 43.5 122 66 q72 22.5 164 22.5 q50 0 113.5 -17 q63.5 -17 121.5 -51 l0 125 q0 23 -5 46.5 q-5 23.5 -26 42 q-21 18.5 -64.5 30.5 q-43.5 12 -119.5 12 ZM650 82 l0 463 q-48 29 -100 43 q-52 14 -115 14 q-50 0 -88.5 -18 q-38.5 -18 -64.5 -51 q-26 -33 -39.5 -79 q-13.5 -46 -13.5 -102 q0 -16 1.5 -42 q1.5 -26 10 -56 q8.5 -30 26 -60.5 q17.5 -30.5 49.5 -55.5 q32 -25 81 -40.5 q49 -15.5 120 -15.5 l133 0 ZM530 1378 l233 0 l-264 -293 l-94 0 l125 293 Z" /><glyph glyph-name="acircumflex" unicode="â" d="M464 874 q-48 0 -83.5 -3 q-35.5 -3 -64.5 -8 q-29 -5 -54 -11.5 q-25 -6.5 -50 -13.5 l-24 65 q84 31 175.5 44.5 q91.5 13.5 173.5 13.5 q105 0 172.5 -11 q67.5 -11 105.5 -36.5 q38 -25.5 52.5 -68 q14.5 -42.5 14.5 -106.5 l0 -739 l-328 0 q-134 0 -228.5 28 q-94.5 28 -154.5 75.5 q-60 47.5 -88 109 q-28 61.5 -28 129.5 q0 84 26.5 148 q26.5 64 76.5 107.5 q50 43.5 122 66 q72 22.5 164 22.5 q50 0 113.5 -17 q63.5 -17 121.5 -51 l0 125 q0 23 -5 46.5 q-5 23.5 -26 42 q-21 18.5 -64.5 30.5 q-43.5 12 -119.5 12 ZM679 82 l0 463 q-48 29 -100 43 q-52 14 -115 14 q-50 0 -88.5 -18 q-38.5 -18 -64.5 -51 q-26 -33 -39.5 -79 q-13.5 -46 -13.5 -102 q0 -16 1.5 -42 q1.5 -26 10 -56 q8.5 -30 26 -60.5 q17.5 -30.5 49.5 -55.5 q32 -25 81 -40.5 q49 -15.5 120 -15.5 l133 0 ZM409 1378 l233 0 l182 -293 l-100 0 l-199 197 l-198 -197 l-101 0 l183 293 Z" /><glyph glyph-name="atilde" unicode="ã" d="M484 874 q-48 0 -83.5 -3 q-35.5 -3 -64.5 -8 q-29 -5 -54 -11.5 q-25 -6.5 -50 -13.5 l-24 65 q84 31 175.5 44.5 q91.5 13.5 173.5 13.5 q105 0 172.5 -11 q67.5 -11 105.5 -36.5 q38 -25.5 52.5 -68 q14.5 -42.5 14.5 -106.5 l0 -739 l-328 0 q-134 0 -228.5 28 q-94.5 28 -154.5 75.5 q-60 47.5 -88 109 q-28 61.5 -28 129.5 q0 84 26.5 148 q26.5 64 76.5 107.5 q50 43.5 122 66 q72 22.5 164 22.5 q50 0 113.5 -17 q63.5 -17 121.5 -51 l0 125 q0 23 -5 46.5 q-5 23.5 -26 42 q-21 18.5 -64.5 30.5 q-43.5 12 -119.5 12 ZM699 82 l0 463 q-48 29 -100 43 q-52 14 -115 14 q-50 0 -88.5 -18 q-38.5 -18 -64.5 -51 q-26 -33 -39.5 -79 q-13.5 -46 -13.5 -102 q0 -16 1.5 -42 q1.5 -26 10 -56 q8.5 -30 26 -60.5 q17.5 -30.5 49.5 -55.5 q32 -25 81 -40.5 q49 -15.5 120 -15.5 l133 0 ZM483 1214 q-29 16 -54.5 27.5 q-25.5 11.5 -54.5 11.5 q-37 0 -55.5 -25 q-18.5 -25 -18.5 -82 l-69 0 q0 117 47 174 q47 57 123 57 q18 0 36 -4 q18 -4 35.5 -10.5 q17.5 -6.5 33.5 -14 q16 -7.5 30 -14.5 l47 -24 q30 -16 55.5 -27.5 q25.5 -11.5 50.5 -11.5 q38 0 56 25.5 q18 25.5 18 80.5 l70 0 q0 -115 -47.5 -173 q-47.5 -58 -122.5 -58 q-37 1 -69.5 13 q-32.5 12 -61.5 28 l-49 27 Z" /><glyph glyph-name="adieresis" unicode="ä" d="M453 874 q-48 0 -83.5 -3 q-35.5 -3 -64.5 -8 q-29 -5 -54 -11.5 q-25 -6.5 -50 -13.5 l-24 65 q84 31 175.5 44.5 q91.5 13.5 173.5 13.5 q105 0 172.5 -11 q67.5 -11 105.5 -36.5 q38 -25.5 52.5 -68 q14.5 -42.5 14.5 -106.5 l0 -739 l-328 0 q-134 0 -228.5 28 q-94.5 28 -154.5 75.5 q-60 47.5 -88 109 q-28 61.5 -28 129.5 q0 84 26.5 148 q26.5 64 76.5 107.5 q50 43.5 122 66 q72 22.5 164 22.5 q50 0 113.5 -17 q63.5 -17 121.5 -51 l0 125 q0 23 -5 46.5 q-5 23.5 -26 42 q-21 18.5 -64.5 30.5 q-43.5 12 -119.5 12 ZM668 82 l0 463 q-48 29 -100 43 q-52 14 -115 14 q-50 0 -88.5 -18 q-38.5 -18 -64.5 -51 q-26 -33 -39.5 -79 q-13.5 -46 -13.5 -102 q0 -16 1.5 -42 q1.5 -26 10 -56 q8.5 -30 26 -60.5 q17.5 -30.5 49.5 -55.5 q32 -25 81 -40.5 q49 -15.5 120 -15.5 l133 0 ZM437 1165 l-191 0 l0 139 l191 0 l0 -139 ZM768 1165 l-190 0 l0 139 l190 0 l0 -139 Z" /><glyph glyph-name="aring" unicode="å" d="M463 874 q-48 0 -83.5 -3 q-35.5 -3 -64.5 -8 q-29 -5 -54 -11.5 q-25 -6.5 -50 -13.5 l-24 65 q84 31 175.5 44.5 q91.5 13.5 173.5 13.5 q105 0 172.5 -11 q67.5 -11 105.5 -36.5 q38 -25.5 52.5 -68 q14.5 -42.5 14.5 -106.5 l0 -739 l-328 0 q-134 0 -228.5 28 q-94.5 28 -154.5 75.5 q-60 47.5 -88 109 q-28 61.5 -28 129.5 q0 84 26.5 148 q26.5 64 76.5 107.5 q50 43.5 122 66 q72 22.5 164 22.5 q50 0 113.5 -17 q63.5 -17 121.5 -51 l0 125 q0 23 -5 46.5 q-5 23.5 -26 42 q-21 18.5 -64.5 30.5 q-43.5 12 -119.5 12 ZM678 82 l0 463 q-48 29 -100 43 q-52 14 -115 14 q-50 0 -88.5 -18 q-38.5 -18 -64.5 -51 q-26 -33 -39.5 -79 q-13.5 -46 -13.5 -102 q0 -16 1.5 -42 q1.5 -26 10 -56 q8.5 -30 26 -60.5 q17.5 -30.5 49.5 -55.5 q32 -25 81 -40.5 q49 -15.5 120 -15.5 l133 0 ZM504 1401 q45 0 82.5 -13 q37.5 -13 63.5 -36 q26 -23 40.5 -54 q14.5 -31 14.5 -67 q0 -36 -14.5 -66.5 q-14.5 -30.5 -40.5 -53 q-26 -22.5 -63.5 -35.5 q-37.5 -13 -82.5 -13 q-45 0 -82.5 13 q-37.5 13 -63.5 35.5 q-26 22.5 -40.5 53 q-14.5 30.5 -14.5 66.5 q0 36 14.5 67 q14.5 31 41 54 q26.5 23 63.5 36 q37 13 82 13 ZM504 1345 q-20 0 -36.5 -9 q-16.5 -9 -28.5 -24 q-12 -15 -18.5 -35.5 q-6.5 -20.5 -6.5 -43.5 q0 -23 6.5 -44 q6.5 -21 18.5 -37 q12 -16 28.5 -25 q16.5 -9 36.5 -9 q21 0 37.5 9 q16.5 9 28 25 q11.5 16 18 37 q6.5 21 6.5 44 q0 46 -24 79 q-24 33 -66 33 Z" /><glyph glyph-name="ae" unicode="æ" d="M1174 961 q102 0 172.5 -37.5 q70.5 -37.5 114.5 -101.5 q44 -64 63.5 -147.5 q19.5 -83.5 19.5 -176.5 l0 -47 l-606 0 q0 -56 18 -121 q18 -65 58.5 -120 q40.5 -55 105 -91.5 q64.5 -36.5 158.5 -36.5 l209 0 l0 -82 l-211 0 q-118 0 -206 21.5 q-88 21.5 -154 64.5 l0 -86 l-308 0 q-134 0 -228.5 28 q-94.5 28 -154.5 75.5 q-60 47.5 -88 109 q-28 61.5 -28 129.5 q0 84 26.5 148 q26.5 64 76.5 107.5 q50 43.5 122 66 q72 22.5 164 22.5 q24 0 53.5 -4.5 q29.5 -4.5 60.5 -13.5 q31 -9 62 -22 q31 -13 59 -30 l0 107 q0 23 -5 49.5 q-5 26.5 -26 49 q-21 22.5 -64.5 37.5 q-43.5 15 -119.5 15 q-48 0 -83.5 -3 q-35.5 -3 -64.5 -8 q-29 -5 -54 -11.5 q-25 -6.5 -50 -13.5 l-24 65 q41 15 85 26 q44 11 87.5 18 q43.5 7 84 10.5 q40.5 3.5 75.5 3.5 q70 0 122 -6 q52 -6 89.5 -19 q37.5 -13 62 -33.5 q24.5 -20.5 39.5 -48.5 q54 51 125 79 q71 28 162 28 ZM733 82 l0 463 q-48 28 -100 42.5 q-52 14.5 -115 14.5 q-50 0 -88.5 -18 q-38.5 -18 -64.5 -51 q-26 -33 -39.5 -79 q-13.5 -46 -13.5 -102 q0 -16 1.5 -42 q1.5 -26 10 -56 q8.5 -30 26 -60.5 q17.5 -30.5 49.5 -55.5 q32 -25 81 -40.5 q49 -15.5 120 -15.5 l133 0 ZM1163 870 q-62 0 -104.5 -28 q-42.5 -28 -69 -74.5 q-26.5 -46.5 -38.5 -108 q-12 -61.5 -13 -127.5 l414 0 l0 43 q-2 58 -11 111 q-9 53 -30 94 q-21 41 -57 65.5 q-36 24.5 -91 24.5 Z" /><glyph glyph-name="ccedilla" unicode="ç" d="M766 784 q-52 42 -105 63 q-53 21 -122 21 q-75 0 -132.5 -29 q-57.5 -29 -96.5 -78.5 q-39 -49.5 -59.5 -114.5 q-20.5 -65 -20.5 -138 q0 -34 4.5 -78.5 q4.5 -44.5 18.5 -92 q14 -47.5 40.5 -93 q26.5 -45.5 70 -82 q43.5 -36.5 108 -58.5 q64.5 -22 153.5 -22 l149 0 l0 -82 l-149 0 q-44 0 -83 2 l0 -63 q46 0 84 -12.5 q38 -12.5 64 -35 q26 -22.5 40.5 -52.5 q14.5 -30 14.5 -66 q0 -47 -31.5 -83 q-31.5 -36 -80.5 -60.5 q-49 -24.5 -108.5 -37 q-59.5 -12.5 -115.5 -12.5 l0 53 q36 4 70 13.5 q34 9.5 61 26.5 q27 17 43 42.5 q16 25.5 16 60.5 q0 54 -37 82 q-37 28 -109 28 l0 125 q-20 4 -38 7 q-90 19 -156.5 52 q-66.5 33 -111 79.5 q-44.5 46.5 -71.5 103 q-27 56.5 -38 120.5 q-11 64 -11 133 q0 91 32.5 173.5 q32.5 82.5 97 145 q64.5 62.5 160 99.5 q95.5 37 222.5 37 q31 0 66 -7 q35 -7 70 -20.5 q35 -13.5 69.5 -34 q34.5 -20.5 64.5 -47.5 l-43 -68 Z" /><glyph glyph-name="egrave" unicode="è" d="M504 961 q102 0 172.5 -37.5 q70.5 -37.5 115 -101.5 q44.5 -64 64 -147.5 q19.5 -83.5 19.5 -176.5 l0 -47 l-616 0 q0 -56 18 -121 q18 -65 58.5 -120 q40.5 -55 105 -91.5 q64.5 -36.5 158.5 -36.5 l208 0 l0 -82 l-211 0 q-140 0 -241.5 32 q-101.5 32 -167 93 q-65.5 61 -96.5 149 q-31 88 -31 201 q0 94 29.5 182 q29.5 88 86 155.5 q56.5 67.5 139 108 q82.5 40.5 189.5 40.5 ZM494 870 q-62 0 -106 -28 q-44 -28 -72.5 -74.5 q-28.5 -46.5 -42 -108 q-13.5 -61.5 -14.5 -127.5 l423 0 l0 43 q-2 58 -10.5 111 q-8.5 53 -29.5 94 q-21 41 -56.5 65.5 q-35.5 24.5 -91.5 24.5 ZM615 1085 l-96 0 l-262 293 l233 0 l125 -293 Z" /><glyph glyph-name="eacute" unicode="é" d="M489 961 q102 0 172.5 -37.5 q70.5 -37.5 115 -101.5 q44.5 -64 64 -147.5 q19.5 -83.5 19.5 -176.5 l0 -47 l-616 0 q0 -56 18 -121 q18 -65 58.5 -120 q40.5 -55 105 -91.5 q64.5 -36.5 158.5 -36.5 l208 0 l0 -82 l-211 0 q-140 0 -241.5 32 q-101.5 32 -167 93 q-65.5 61 -96.5 149 q-31 88 -31 201 q0 94 29.5 182 q29.5 88 86 155.5 q56.5 67.5 139 108 q82.5 40.5 189.5 40.5 ZM479 870 q-62 0 -106 -28 q-44 -28 -72.5 -74.5 q-28.5 -46.5 -42 -108 q-13.5 -61.5 -14.5 -127.5 l423 0 l0 43 q-2 58 -10.5 111 q-8.5 53 -29.5 94 q-21 41 -56.5 65.5 q-35.5 24.5 -91.5 24.5 ZM488 1378 l233 0 l-264 -293 l-94 0 l125 293 Z" /><glyph glyph-name="ecircumflex" unicode="ê" d="M518 961 q102 0 172.5 -37.5 q70.5 -37.5 115 -101.5 q44.5 -64 64 -147.5 q19.5 -83.5 19.5 -176.5 l0 -47 l-616 0 q0 -56 18 -121 q18 -65 58.5 -120 q40.5 -55 105 -91.5 q64.5 -36.5 158.5 -36.5 l208 0 l0 -82 l-211 0 q-140 0 -241.5 32 q-101.5 32 -167 93 q-65.5 61 -96.5 149 q-31 88 -31 201 q0 94 29.5 182 q29.5 88 86 155.5 q56.5 67.5 139 108 q82.5 40.5 189.5 40.5 ZM508 870 q-62 0 -106 -28 q-44 -28 -72.5 -74.5 q-28.5 -46.5 -42 -108 q-13.5 -61.5 -14.5 -127.5 l423 0 l0 43 q-2 58 -10.5 111 q-8.5 53 -29.5 94 q-21 41 -56.5 65.5 q-35.5 24.5 -91.5 24.5 ZM375 1378 l233 0 l182 -293 l-100 0 l-199 197 l-198 -197 l-101 0 l183 293 Z" /><glyph glyph-name="edieresis" unicode="ë" d="M506 961 q102 0 172.5 -37.5 q70.5 -37.5 115 -101.5 q44.5 -64 64 -147.5 q19.5 -83.5 19.5 -176.5 l0 -47 l-616 0 q0 -56 18 -121 q18 -65 58.5 -120 q40.5 -55 105 -91.5 q64.5 -36.5 158.5 -36.5 l208 0 l0 -82 l-211 0 q-140 0 -241.5 32 q-101.5 32 -167 93 q-65.5 61 -96.5 149 q-31 88 -31 201 q0 94 29.5 182 q29.5 88 86 155.5 q56.5 67.5 139 108 q82.5 40.5 189.5 40.5 ZM496 870 q-62 0 -106 -28 q-44 -28 -72.5 -74.5 q-28.5 -46.5 -42 -108 q-13.5 -61.5 -14.5 -127.5 l423 0 l0 43 q-2 58 -10.5 111 q-8.5 53 -29.5 94 q-21 41 -56.5 65.5 q-35.5 24.5 -91.5 24.5 ZM425 1165 l-191 0 l0 139 l191 0 l0 -139 ZM756 1165 l-190 0 l0 139 l190 0 l0 -139 Z" /><glyph glyph-name="igrave" unicode="ì" d="M374 0 l-203 0 l0 942 l203 0 l0 -942 ZM363 1024 l-96 0 l-262 293 l233 0 l125 -293 Z" /><glyph glyph-name="iacute" unicode="í" d="M330 0 l-203 0 l0 942 l203 0 l0 -942 ZM272 1317 l233 0 l-264 -293 l-94 0 l125 293 Z" /><glyph glyph-name="icircumflex" unicode="î" d="M429 0 l-203 0 l0 942 l203 0 l0 -942 ZM211 1327 l233 0 l182 -293 l-100 0 l-199 197 l-198 -197 l-101 0 l183 293 Z" /><glyph glyph-name="idieresis" unicode="ï" d="M377 0 l-203 0 l0 942 l203 0 l0 -942 ZM210 1165 l-191 0 l0 139 l191 0 l0 -139 ZM541 1165 l-190 0 l0 139 l190 0 l0 -139 Z" /><glyph glyph-name="eth" unicode="ð" d="M775 1264 q88 -84 140 -180.5 q52 -96.5 79.5 -194.5 q27.5 -98 36 -190 q8.5 -92 8.5 -167 q0 -133 -38 -235.5 q-38 -102.5 -104.5 -173 q-66.5 -70.5 -156.5 -107 q-90 -36.5 -193 -36.5 q-101 0 -189.5 38.5 q-88.5 38.5 -154.5 105 q-66 66.5 -104.5 156 q-38.5 89.5 -38.5 191.5 q0 101 38.5 190.5 q38.5 89.5 104.5 156 q66 66.5 154.5 105 q88.5 38.5 189.5 38.5 q72 0 134.5 -18 q62.5 -18 117.5 -52 l4 0 q-13 54 -26 97.5 q-13 43.5 -30 81 q-17 37.5 -41 71 q-24 33.5 -58 68.5 l-318 -138 l-39 90 l273 118 q-49 34 -111 63.5 q-62 29.5 -141 52.5 l0 92 q100 -14 197 -55 q97 -41 179 -99 l275 119 l39 -90 l-227 -98 ZM545 870 q-78 0 -131.5 -30 q-53.5 -30 -86.5 -84 q-33 -54 -47.5 -128 q-14.5 -74 -14.5 -161 q0 -86 15 -159 q15 -73 48 -126.5 q33 -53.5 86.5 -83.5 q53.5 -30 130.5 -30 q77 0 131 30 q54 30 88.5 83.5 q34.5 53.5 50 126.5 q15.5 73 15.5 159 q0 87 -15.5 161 q-15.5 74 -50 128 q-34.5 54 -88.5 84 q-54 30 -131 30 Z" /><glyph glyph-name="ntilde" unicode="ñ" d="M338 864 q64 28 118 46.5 q54 18.5 101 30 q47 11.5 87.5 16 q40.5 4.5 78.5 4.5 q94 0 143.5 -49 q49.5 -49 49.5 -158 l0 -754 l-203 0 l0 723 q0 22 -4.5 45 q-4.5 23 -16.5 41 q-12 18 -32.5 29.5 q-20.5 11.5 -51.5 11.5 q-51 0 -118 -12.5 q-67 -12.5 -152 -51.5 l0 -786 l-203 0 l0 942 l203 0 l0 -78 ZM484 1214 q-29 16 -54.5 27.5 q-25.5 11.5 -54.5 11.5 q-37 0 -55.5 -25 q-18.5 -25 -18.5 -82 l-69 0 q0 117 47 174 q47 57 123 57 q18 0 36 -4 q18 -4 35.5 -10.5 q17.5 -6.5 33.5 -14 q16 -7.5 30 -14.5 l47 -24 q30 -16 55.5 -27.5 q25.5 -11.5 50.5 -11.5 q38 0 56 25.5 q18 25.5 18 80.5 l70 0 q0 -115 -47.5 -173 q-47.5 -58 -122.5 -58 q-37 1 -69.5 13 q-32.5 12 -61.5 28 l-49 27 Z" /><glyph glyph-name="ograve" unicode="ò" d="M559 961 q103 0 193 -38.5 q90 -38.5 156.5 -105 q66.5 -66.5 104.5 -156 q38 -89.5 38 -190.5 q0 -102 -38 -191.5 q-38 -89.5 -104.5 -156 q-66.5 -66.5 -156.5 -105 q-90 -38.5 -193 -38.5 q-101 0 -189.5 38.5 q-88.5 38.5 -154.5 105 q-66 66.5 -104.5 156 q-38.5 89.5 -38.5 191.5 q0 101 38.5 190.5 q38.5 89.5 104.5 156 q66 66.5 154.5 105 q88.5 38.5 189.5 38.5 ZM557 870 q-78 0 -131.5 -30 q-53.5 -30 -86.5 -84 q-33 -54 -47.5 -128 q-14.5 -74 -14.5 -161 q0 -86 15 -159 q15 -73 48 -126.5 q33 -53.5 86.5 -83.5 q53.5 -30 130.5 -30 q77 0 131 30 q54 30 88.5 83.5 q34.5 53.5 50 126.5 q15.5 73 15.5 159 q0 87 -15.5 161 q-15.5 74 -50 128 q-34.5 54 -88.5 84 q-54 30 -131 30 ZM613 1085 l-96 0 l-262 293 l233 0 l125 -293 Z" /><glyph glyph-name="oacute" unicode="ó" d="M528 961 q103 0 193 -38.5 q90 -38.5 156.5 -105 q66.5 -66.5 104.5 -156 q38 -89.5 38 -190.5 q0 -102 -38 -191.5 q-38 -89.5 -104.5 -156 q-66.5 -66.5 -156.5 -105 q-90 -38.5 -193 -38.5 q-101 0 -189.5 38.5 q-88.5 38.5 -154.5 105 q-66 66.5 -104.5 156 q-38.5 89.5 -38.5 191.5 q0 101 38.5 190.5 q38.5 89.5 104.5 156 q66 66.5 154.5 105 q88.5 38.5 189.5 38.5 ZM526 870 q-78 0 -131.5 -30 q-53.5 -30 -86.5 -84 q-33 -54 -47.5 -128 q-14.5 -74 -14.5 -161 q0 -86 15 -159 q15 -73 48 -126.5 q33 -53.5 86.5 -83.5 q53.5 -30 130.5 -30 q77 0 131 30 q54 30 88.5 83.5 q34.5 53.5 50 126.5 q15.5 73 15.5 159 q0 87 -15.5 161 q-15.5 74 -50 128 q-34.5 54 -88.5 84 q-54 30 -131 30 ZM600 1378 l233 0 l-264 -293 l-94 0 l125 293 Z" /><glyph glyph-name="ocircumflex" unicode="ô" d="M557 961 q103 0 193 -38.5 q90 -38.5 156.5 -105 q66.5 -66.5 104.5 -156 q38 -89.5 38 -190.5 q0 -102 -38 -191.5 q-38 -89.5 -104.5 -156 q-66.5 -66.5 -156.5 -105 q-90 -38.5 -193 -38.5 q-101 0 -189.5 38.5 q-88.5 38.5 -154.5 105 q-66 66.5 -104.5 156 q-38.5 89.5 -38.5 191.5 q0 101 38.5 190.5 q38.5 89.5 104.5 156 q66 66.5 154.5 105 q88.5 38.5 189.5 38.5 ZM555 870 q-78 0 -131.5 -30 q-53.5 -30 -86.5 -84 q-33 -54 -47.5 -128 q-14.5 -74 -14.5 -161 q0 -86 15 -159 q15 -73 48 -126.5 q33 -53.5 86.5 -83.5 q53.5 -30 130.5 -30 q77 0 131 30 q54 30 88.5 83.5 q34.5 53.5 50 126.5 q15.5 73 15.5 159 q0 87 -15.5 161 q-15.5 74 -50 128 q-34.5 54 -88.5 84 q-54 30 -131 30 ZM439 1378 l233 0 l182 -293 l-100 0 l-199 197 l-198 -197 l-101 0 l183 293 Z" /><glyph glyph-name="otilde" unicode="õ" d="M566 961 q103 0 193 -38.5 q90 -38.5 156.5 -105 q66.5 -66.5 104.5 -156 q38 -89.5 38 -190.5 q0 -102 -38 -191.5 q-38 -89.5 -104.5 -156 q-66.5 -66.5 -156.5 -105 q-90 -38.5 -193 -38.5 q-101 0 -189.5 38.5 q-88.5 38.5 -154.5 105 q-66 66.5 -104.5 156 q-38.5 89.5 -38.5 191.5 q0 101 38.5 190.5 q38.5 89.5 104.5 156 q66 66.5 154.5 105 q88.5 38.5 189.5 38.5 ZM564 870 q-78 0 -131.5 -30 q-53.5 -30 -86.5 -84 q-33 -54 -47.5 -128 q-14.5 -74 -14.5 -161 q0 -86 15 -159 q15 -73 48 -126.5 q33 -53.5 86.5 -83.5 q53.5 -30 130.5 -30 q77 0 131 30 q54 30 88.5 83.5 q34.5 53.5 50 126.5 q15.5 73 15.5 159 q0 87 -15.5 161 q-15.5 74 -50 128 q-34.5 54 -88.5 84 q-54 30 -131 30 ZM522 1235 q-29 16 -54.5 27.5 q-25.5 11.5 -54.5 11.5 q-37 0 -55.5 -25 q-18.5 -25 -18.5 -82 l-69 0 q0 117 47 174 q47 57 123 57 q18 0 36 -4 q18 -4 35.5 -10.5 q17.5 -6.5 33.5 -14 q16 -7.5 30 -14.5 l47 -24 q30 -16 55.5 -27.5 q25.5 -11.5 50.5 -11.5 q38 0 56 25.5 q18 25.5 18 80.5 l70 0 q0 -115 -47.5 -173 q-47.5 -58 -122.5 -58 q-37 1 -69.5 13 q-32.5 12 -61.5 28 l-49 27 Z" /><glyph glyph-name="odieresis" unicode="ö" d="M546 961 q103 0 193 -38.5 q90 -38.5 156.5 -105 q66.5 -66.5 104.5 -156 q38 -89.5 38 -190.5 q0 -102 -38 -191.5 q-38 -89.5 -104.5 -156 q-66.5 -66.5 -156.5 -105 q-90 -38.5 -193 -38.5 q-101 0 -189.5 38.5 q-88.5 38.5 -154.5 105 q-66 66.5 -104.5 156 q-38.5 89.5 -38.5 191.5 q0 101 38.5 190.5 q38.5 89.5 104.5 156 q66 66.5 154.5 105 q88.5 38.5 189.5 38.5 ZM544 870 q-78 0 -131.5 -30 q-53.5 -30 -86.5 -84 q-33 -54 -47.5 -128 q-14.5 -74 -14.5 -161 q0 -86 15 -159 q15 -73 48 -126.5 q33 -53.5 86.5 -83.5 q53.5 -30 130.5 -30 q77 0 131 30 q54 30 88.5 83.5 q34.5 53.5 50 126.5 q15.5 73 15.5 159 q0 87 -15.5 161 q-15.5 74 -50 128 q-34.5 54 -88.5 84 q-54 30 -131 30 ZM479 1165 l-191 0 l0 139 l191 0 l0 -139 ZM810 1165 l-190 0 l0 139 l190 0 l0 -139 Z" /><glyph glyph-name="divide" unicode="÷" d="M625 94 l-203 0 l0 160 l203 0 l0 -160 ZM625 893 l-203 0 l0 160 l203 0 l0 -160 ZM5 504 l0 139 l1037 0 l0 -139 l-1037 0 Z" /><glyph glyph-name="oslash" unicode="ø" d="M595 961 q66 0 127 -16.5 q61 -16.5 115 -46.5 l45 63 l131 0 l-88 -126 q75 -69 118.5 -162 q43.5 -93 43.5 -202 q0 -102 -38 -191.5 q-38 -89.5 -104.5 -156 q-66.5 -66.5 -156.5 -105 q-90 -38.5 -193 -38.5 q-63 0 -120.5 15 q-57.5 15 -109.5 43 l-40 -58 l-131 0 l83 119 q-78 69 -123.5 164.5 q-45.5 95.5 -45.5 207.5 q0 101 38.5 190.5 q38.5 89.5 104.5 156 q66 66.5 154.5 105 q88.5 38.5 189.5 38.5 ZM593 870 q-78 0 -131.5 -30 q-53.5 -30 -86.5 -84 q-33 -54 -47.5 -128 q-14.5 -74 -14.5 -161 q0 -75 11 -138.5 q11 -63.5 34 -114.5 l414 591 q-33 31 -77.5 48 q-44.5 17 -101.5 17 ZM878 467 q0 70 -10 130.5 q-10 60.5 -32 111.5 l-411 -586 q32 -26 73 -40.5 q41 -14.5 95 -14.5 q77 0 131 30 q54 30 88.5 83.5 q34.5 53.5 50 126.5 q15.5 73 15.5 159 Z" /><glyph glyph-name="ugrave" unicode="ù" d="M689 78 q-65 -28 -119 -46.5 q-54 -18.5 -100.5 -29.5 q-46.5 -11 -87.5 -15.5 q-41 -4.5 -78 -4.5 q-94 0 -143.5 48.5 q-49.5 48.5 -49.5 157.5 l0 754 l203 0 l0 -723 q0 -23 4.5 -45.5 q4.5 -22.5 16 -40.5 q11.5 -18 31.5 -29.5 q20 -11.5 52 -11.5 q51 0 118.5 12.5 q67.5 12.5 152.5 51.5 l0 786 l202 0 l0 -942 l-202 0 l0 78 ZM594 1085 l-96 0 l-262 293 l233 0 l125 -293 Z" /><glyph glyph-name="uacute" unicode="ú" d="M653 78 q-65 -28 -119 -46.5 q-54 -18.5 -100.5 -29.5 q-46.5 -11 -87.5 -15.5 q-41 -4.5 -78 -4.5 q-94 0 -143.5 48.5 q-49.5 48.5 -49.5 157.5 l0 754 l203 0 l0 -723 q0 -23 4.5 -45.5 q4.5 -22.5 16 -40.5 q11.5 -18 31.5 -29.5 q20 -11.5 52 -11.5 q51 0 118.5 12.5 q67.5 12.5 152.5 51.5 l0 786 l202 0 l0 -942 l-202 0 l0 78 ZM516 1378 l233 0 l-264 -293 l-94 0 l125 293 Z" /><glyph glyph-name="ucircumflex" unicode="û" d="M694 78 q-65 -28 -119 -46.5 q-54 -18.5 -100.5 -29.5 q-46.5 -11 -87.5 -15.5 q-41 -4.5 -78 -4.5 q-94 0 -143.5 48.5 q-49.5 48.5 -49.5 157.5 l0 754 l203 0 l0 -723 q0 -23 4.5 -45.5 q4.5 -22.5 16 -40.5 q11.5 -18 31.5 -29.5 q20 -11.5 52 -11.5 q51 0 118.5 12.5 q67.5 12.5 152.5 51.5 l0 786 l202 0 l0 -942 l-202 0 l0 78 ZM393 1378 l233 0 l182 -293 l-100 0 l-199 197 l-198 -197 l-101 0 l183 293 Z" /><glyph glyph-name="udieresis" unicode="ü" d="M683 78 q-65 -28 -119 -46.5 q-54 -18.5 -100.5 -29.5 q-46.5 -11 -87.5 -15.5 q-41 -4.5 -78 -4.5 q-94 0 -143.5 48.5 q-49.5 48.5 -49.5 157.5 l0 754 l203 0 l0 -723 q0 -23 4.5 -45.5 q4.5 -22.5 16 -40.5 q11.5 -18 31.5 -29.5 q20 -11.5 52 -11.5 q51 0 118.5 12.5 q67.5 12.5 152.5 51.5 l0 786 l202 0 l0 -942 l-202 0 l0 78 ZM428 1164 l-191 0 l0 139 l191 0 l0 -139 ZM759 1164 l-190 0 l0 139 l190 0 l0 -139 Z" /><glyph glyph-name="yacute" unicode="ý" d="M442 1 l-1 -1 l-434 942 l204 0 l230 -502 l85 -218 l273 720 l97 0 l-496 -1304 l-96 0 l138 363 ZM509 1378 l233 0 l-264 -293 l-94 0 l125 293 Z" /><glyph glyph-name="thorn" unicode="þ" d="M167 -420 l0 1907 l188 0 l0 -595 q57 35 121 52 q64 17 115 17 q127 0 219.5 -34.5 q92.5 -34.5 153 -95 q60.5 -60.5 89.5 -144 q29 -83.5 29 -181.5 q0 -99 -26.5 -190.5 q-26.5 -91.5 -94 -161.5 q-67.5 -70 -183.5 -112 q-116 -42 -294 -42 l-129 0 l0 -362 l-188 -58 ZM570 877 q-64 0 -115.5 -15 q-51.5 -15 -99.5 -44 l0 -736 l129 0 q90 0 154 22 q64 22 108 58.5 q44 36.5 70.5 82 q26.5 45.5 40.5 93 q14 47.5 18.5 92 q4.5 44.5 4.5 78.5 q0 73 -20.5 139.5 q-20.5 66.5 -60 117.5 q-39.5 51 -97 81.5 q-57.5 30.5 -132.5 30.5 Z" /><glyph glyph-name="ydieresis" unicode="ÿ" d="M443 1 l-1 -1 l-434 942 l204 0 l230 -502 l85 -218 l273 720 l97 0 l-496 -1304 l-96 0 l138 363 ZM426 1165 l-191 0 l0 139 l191 0 l0 -139 ZM757 1165 l-190 0 l0 139 l190 0 l0 -139 Z" /><glyph glyph-name="dotlessi" unicode="&#x131;" d="M370 0 l-203 0 l0 942 l203 0 l0 -942 Z" /><glyph glyph-name="OE" unicode="&#x152;" d="M2275 1487 l0 -98 l-631 0 l0 -451 l610 0 l0 -98 l-610 0 l0 -742 l631 0 l0 -98 l-840 0 l0 196 q-106 -106 -244 -165.5 q-138 -59.5 -298 -59.5 q-161 0 -302 61 q-141 61 -246.5 167 q-105.5 106 -166.5 247.5 q-61 141.5 -61 303.5 q0 106 28 205 q28 99 78.5 185 q50.5 86 121 157 q70.5 71 157 121 q86.5 50 185.5 78 q99 28 206 28 q160 0 298 -59.5 q138 -59.5 244 -165.5 l0 188 l840 0 ZM893 68 q133 0 234.5 53 q101.5 53 170 145 q68.5 92 103 216.5 q34.5 124.5 34.5 267.5 q0 142 -34 266 q-34 124 -102 215 q-68 91 -169.5 143.5 q-101.5 52.5 -236.5 52.5 q-135 0 -236.5 -52.5 q-101.5 -52.5 -169.5 -143.5 q-68 -91 -102 -215 q-34 -124 -34 -266 q0 -143 34.5 -267.5 q34.5 -124.5 103 -216.5 q68.5 -92 169.5 -145 q101 -53 235 -53 Z" /><glyph glyph-name="oe" unicode="&#x153;" d="M1337 961 q102 0 172.5 -37.5 q70.5 -37.5 115 -101.5 q44.5 -64 64 -147.5 q19.5 -83.5 19.5 -176.5 l0 -47 l-606 0 q0 -56 18 -121 q18 -65 58.5 -120 q40.5 -55 105 -91.5 q64.5 -36.5 158.5 -36.5 l208 0 l0 -82 l-211 0 q-163 0 -272 41.5 q-109 41.5 -172 122.5 q-69 -85 -168 -134.5 q-99 -49.5 -217 -49.5 q-101 0 -189.5 38.5 q-88.5 38.5 -154.5 105 q-66 66.5 -104.5 156 q-38.5 89.5 -38.5 191.5 q0 101 38.5 190.5 q38.5 89.5 104.5 156 q66 66.5 154.5 105 q88.5 38.5 189.5 38.5 q118 0 215.5 -48.5 q97.5 -48.5 164.5 -130.5 q54 81 140.5 130 q86.5 49 206.5 49 ZM608 870 q-78 0 -131.5 -30 q-53.5 -30 -86.5 -84 q-33 -54 -47.5 -128 q-14.5 -74 -14.5 -161 q0 -86 15 -159 q15 -73 48 -126.5 q33 -53.5 86.5 -83.5 q53.5 -30 130.5 -30 q77 0 131 30 q54 30 88.5 83.5 q34.5 53.5 50 126.5 q15.5 73 15.5 159 q0 87 -15.5 161 q-15.5 74 -50 128 q-34.5 54 -88.5 84 q-54 30 -131 30 ZM1327 870 q-62 0 -104.5 -28 q-42.5 -28 -69 -74.5 q-26.5 -46.5 -38.5 -108 q-12 -61.5 -13 -127.5 l413 0 l0 43 q-2 58 -10.5 111 q-8.5 53 -29.5 94 q-21 41 -56.5 65.5 q-35.5 24.5 -91.5 24.5 Z" /><glyph glyph-name="circumflex" unicode="&#x2c6;" d="M256 1317 l233 0 l182 -293 l-100 0 l-199 197 l-198 -197 l-101 0 l183 293 Z" /><glyph glyph-name="caron" unicode="&#x2c7;" d="M485 1024 l-234 0 l-182 293 l101 0 l198 -197 l199 197 l100 0 l-182 -293 Z" /><glyph glyph-name="ring" unicode="&#x2da;" d="M307 1346 q45 0 82.5 -13 q37.5 -13 63.5 -36 q26 -23 40.5 -54 q14.5 -31 14.5 -67 q0 -36 -14.5 -66.5 q-14.5 -30.5 -40.5 -53 q-26 -22.5 -63.5 -35.5 q-37.5 -13 -82.5 -13 q-45 0 -82.5 13 q-37.5 13 -63.5 35.5 q-26 22.5 -40.5 53 q-14.5 30.5 -14.5 66.5 q0 36 14.5 67 q14.5 31 41 54 q26.5 23 63.5 36 q37 13 82 13 ZM307 1290 q-20 0 -36.5 -9 q-16.5 -9 -28.5 -24 q-12 -15 -18.5 -35.5 q-6.5 -20.5 -6.5 -43.5 q0 -23 6.5 -44 q6.5 -21 18.5 -37 q12 -16 28.5 -25 q16.5 -9 36.5 -9 q21 0 37.5 9 q16.5 9 28 25 q11.5 16 18 37 q6.5 21 6.5 44 q0 46 -24 79 q-24 33 -66 33 Z" /><glyph glyph-name="tilde" unicode="&#x2dc;" d="M385 1114 q-29 16 -54.5 27.5 q-25.5 11.5 -54.5 11.5 q-37 0 -55.5 -25 q-18.5 -25 -18.5 -82 l-69 0 q0 117 47 174 q47 57 123 57 q18 0 36 -4 q18 -4 35.5 -10.5 q17.5 -6.5 33.5 -14 q16 -7.5 30 -14.5 l47 -24 q30 -16 55.5 -27.5 q25.5 -11.5 50.5 -11.5 q38 0 56 25.5 q18 25.5 18 80.5 l70 0 q0 -115 -47.5 -173 q-47.5 -58 -122.5 -58 q-37 1 -69.5 13 q-32.5 12 -61.5 28 l-49 27 Z" /><glyph glyph-name="endash" unicode="&#x2013;" d="M167 504 l0 139 l1096 0 l0 -139 l-1096 0 Z" /><glyph glyph-name="emdash" unicode="&#x2014;" d="M167 504 l0 139 l1368 0 l0 -139 l-1368 0 Z" /><glyph glyph-name="quoteleft" unicode="&#x2018;" d="M328 1155 l-203 0 l0 160 q0 40 15 72 q15 32 41.5 54.5 q26.5 22.5 61.5 34 q35 11.5 75 11.5 l98 0 l0 -90 q-29 0 -46.5 -1.5 q-17.5 -1.5 -26.5 -9.5 q-9 -8 -12 -24.5 q-3 -16.5 -3 -46.5 l0 -160 Z" /><glyph glyph-name="quoteright" unicode="&#x2019;" d="M164 1487 l203 0 l0 -160 q0 -41 -15 -72.5 q-15 -31.5 -41 -54 q-26 -22.5 -61 -34 q-35 -11.5 -75 -11.5 l-99 0 l0 90 q29 0 46.5 1.5 q17.5 1.5 26.5 9.5 q9 8 12 24.5 q3 16.5 3 46.5 l0 160 Z" /><glyph glyph-name="quotesinglbase" unicode="&#x201a;" d="M164 160 l203 0 l0 -160 q0 -41 -15 -73 q-15 -32 -41 -54 q-26 -22 -61 -33.5 q-35 -11.5 -75 -11.5 l-99 0 l0 90 q29 0 46.5 1.5 q17.5 1.5 26.5 9.5 q9 8 12 24.5 q3 16.5 3 46.5 l0 160 Z" /><glyph glyph-name="quotedblleft" unicode="&#x201c;" d="M350 1155 l-203 0 l0 160 q0 40 15 72 q15 32 41.5 54.5 q26.5 22.5 61.5 34 q35 11.5 75 11.5 l98 0 l0 -90 q-29 0 -46.5 -1.5 q-17.5 -1.5 -26.5 -9.5 q-9 -8 -12 -24.5 q-3 -16.5 -3 -46.5 l0 -160 ZM700 1155 l-202 0 l0 160 q0 40 15 72 q15 32 41 54.5 q26 22.5 61 34 q35 11.5 75 11.5 l98 0 l0 -90 q-29 0 -46.5 -1.5 q-17.5 -1.5 -26.5 -9.5 q-9 -8 -12 -24.5 q-3 -16.5 -3 -46.5 l0 -160 Z" /><glyph glyph-name="quotedblright" unicode="&#x201d;" d="M210 1487 l203 0 l0 -160 q0 -41 -15 -72.5 q-15 -31.5 -41 -54 q-26 -22.5 -61 -34 q-35 -11.5 -75 -11.5 l-99 0 l0 90 q29 0 46.5 1.5 q17.5 1.5 26.5 9.5 q9 8 12 24.5 q3 16.5 3 46.5 l0 160 ZM561 1487 l202 0 l0 -160 q0 -41 -15 -72.5 q-15 -31.5 -41 -54 q-26 -22.5 -61 -34 q-35 -11.5 -75 -11.5 l-98 0 l0 90 q29 0 46.5 1.5 q17.5 1.5 26.5 9.5 q9 8 12 24.5 q3 16.5 3 46.5 l0 160 Z" /><glyph glyph-name="quotedblbase" unicode="&#x201e;" d="M207 160 l203 0 l0 -160 q0 -41 -15 -73 q-15 -32 -41 -54 q-26 -22 -61 -33.5 q-35 -11.5 -75 -11.5 l-99 0 l0 90 q29 0 46.5 1.5 q17.5 1.5 26.5 9.5 q9 8 12 24.5 q3 16.5 3 46.5 l0 160 ZM523 160 l203 0 l0 -160 q0 -41 -15 -73 q-15 -32 -41.5 -54 q-26.5 -22 -61.5 -33.5 q-35 -11.5 -75 -11.5 l-98 0 l0 90 q29 0 46.5 1.5 q17.5 1.5 26.5 9.5 q9 8 12 24.5 q3 16.5 3 46.5 l0 160 Z" /><glyph glyph-name="bullet" unicode="&#x2022;" d="M371 852 q57 0 106 -21 q49 -21 85.5 -58 q36.5 -37 57.5 -86 q21 -49 21 -105 q0 -57 -21 -107 q-21 -50 -57.5 -86.5 q-36.5 -36.5 -85.5 -58 q-49 -21.5 -106 -21.5 q-56 0 -105.5 21.5 q-49.5 21.5 -86.5 58 q-37 36.5 -58 86.5 q-21 50 -21 107 q0 56 21 105 q21 49 58 86 q37 37 86.5 58 q49.5 21 105.5 21 Z" /><glyph glyph-name="guilsinglleft" unicode="&#x2039;" d="M291 860 l143 0 l-283 -375 l283 -374 l-143 0 l-283 374 l283 375 Z" /><glyph glyph-name="guilsinglright" unicode="&#x203a;" d="M239 111 l-143 0 l283 374 l-283 375 l143 0 l283 -375 l-283 -374 Z" /><glyph glyph-name="fraction" unicode="&#x2044;" d="M801 1439 l118 0 l-801 -1545 l-118 0 l801 1545 Z" /><glyph glyph-name="foursuperior" unicode="&#x2074;" d="M624 696 l86 0 l0 -88 l-86 0 l0 -135 l-182 0 l0 135 l-439 0 l0 58 l488 688 l133 0 l0 -658 ZM442 696 l0 449 l-312 -449 l312 0 Z" /><glyph glyph-name="Euro" unicode="&#x20ac;" d="M38 741 l39 90 l129 0 q27 120 92.5 220 q65.5 100 161.5 173 q96 73 219 113.5 q123 40.5 264 40.5 q24 0 62.5 -4 q38.5 -4 82.5 -13 q44 -9 88.5 -24 q44.5 -15 80.5 -37 l-31 -73 q-28 10 -54.5 19 q-26.5 9 -56 15.5 q-29.5 6.5 -65 10.5 q-35.5 4 -80.5 4 q-108 0 -198.5 -32 q-90.5 -32 -160.5 -90 q-70 -58 -118 -140.5 q-48 -82.5 -70 -182.5 l613 0 l-31 -90 l-595 0 q-3 -35 -3 -71 q0 -17 0.5 -34 q0.5 -17 1.5 -34 l549 0 l-33 -90 l-503 0 q19 -98 63 -179.5 q44 -81.5 112 -140.5 q68 -59 160.5 -91.5 q92.5 -32.5 208.5 -32.5 q79 0 143.5 13 q64.5 13 130.5 42 l2 -84 q-84 -43 -170.5 -58.5 q-86.5 -15.5 -171.5 -15.5 q-134 0 -250.5 38 q-116.5 38 -208 109 q-91.5 71 -153.5 172 q-62 101 -86 228 l-164 0 l39 90 l113 0 q-1 17 -1.5 34 q-0.5 17 -0.5 34 q0 35 3 71 l-153 0 Z" /><glyph glyph-name="minus" unicode="&#x2212;" d="M167 504 l0 139 l1037 0 l0 -139 l-1037 0 Z" /><glyph glyph-name="Ecaron" unicode="&#x11a;" d="M1034 1487 l0 -98 l-691 0 l0 -451 l670 0 l0 -98 l-670 0 l0 -742 l691 0 l0 -98 l-910 0 l0 1487 l910 0 ZM732 1569 l-234 0 l-182 293 l101 0 l198 -197 l199 197 l100 0 l-182 -293 Z" /><glyph glyph-name="dcaron" unicode="&#x10f;" d="M635 0 q-119 0 -209.5 19 q-90.5 19 -157 53.5 q-66.5 34.5 -111 81.5 q-44.5 47 -71.5 103.5 q-27 56.5 -38 119.5 q-11 63 -11 129 q0 98 29.5 181.5 q29.5 83.5 90 144 q60.5 60.5 153 95 q92.5 34.5 219.5 34.5 q50 0 113.5 -17 q63.5 -17 121.5 -51 l0 594 l203 0 l0 -1487 l-332 0 ZM240 508 q0 -34 4.5 -78.5 q4.5 -44.5 18.5 -92 q14 -47.5 40.5 -93 q26.5 -45.5 70 -82 q43.5 -36.5 108 -58.5 q64.5 -22 153.5 -22 l129 0 l0 737 q-48 29 -100 43.5 q-52 14.5 -115 14.5 q-74 0 -131.5 -30.5 q-57.5 -30.5 -97 -81.5 q-39.5 -51 -60 -117.5 q-20.5 -66.5 -20.5 -139.5 ZM1102 1487 l203 0 l0 -160 q0 -41 -15 -72.5 q-15 -31.5 -41 -54 q-26 -22.5 -61 -34 q-35 -11.5 -75 -11.5 l-99 0 l0 90 q29 0 46.5 1.5 q17.5 1.5 26.5 9.5 q9 8 12 24.5 q3 16.5 3 46.5 l0 160 Z" /><glyph glyph-name="tcaron" unicode="&#x165;" d="M489 852 l-135 0 l0 -852 l-192 0 l0 852 l-130 0 l0 90 l130 0 l0 307 l192 58 l0 -365 l135 0 l0 -90 ZM505 1487 l203 0 l0 -160 q0 -41 -15 -72.5 q-15 -31.5 -41 -54 q-26 -22.5 -61 -34 q-35 -11.5 -75 -11.5 l-99 0 l0 90 q29 0 46.5 1.5 q17.5 1.5 26.5 9.5 q9 8 12 24.5 q3 16.5 3 46.5 l0 160 Z" /><glyph glyph-name="ccaron" unicode="&#x10d;" d="M803 784 q-52 42 -105 63 q-53 21 -122 21 q-75 0 -132.5 -29 q-57.5 -29 -96.5 -78.5 q-39 -49.5 -59.5 -114.5 q-20.5 -65 -20.5 -138 q0 -34 4.5 -78.5 q4.5 -44.5 18.5 -92 q14 -47.5 40.5 -93 q26.5 -45.5 70 -82 q43.5 -36.5 108 -58.5 q64.5 -22 153.5 -22 l149 0 l0 -82 l-149 0 q-119 0 -209.5 18.5 q-90.5 18.5 -157 51.5 q-66.5 33 -111 79.5 q-44.5 46.5 -71.5 103 q-27 56.5 -38 120.5 q-11 64 -11 133 q0 91 32.5 173.5 q32.5 82.5 97 145 q64.5 62.5 160 99.5 q95.5 37 222.5 37 q31 0 66 -7 q35 -7 70 -20.5 q35 -13.5 69.5 -34 q34.5 -20.5 64.5 -47.5 l-43 -68 ZM674 1024 l-234 0 l-182 293 l101 0 l198 -197 l199 197 l100 0 l-182 -293 Z" /><glyph glyph-name="zcaron" unicode="&#x17e;" d="M345 90 l506 0 l0 -90 l-779 0 l508 852 l-424 0 l0 90 l695 0 l-506 -852 ZM596 1024 l-234 0 l-182 293 l101 0 l198 -197 l199 197 l100 0 l-182 -293 Z" /><glyph glyph-name="rcaron" unicode="&#x159;" d="M354 868 q40 28 70.5 46 q30.5 18 54.5 28.5 q24 10.5 44.5 14.5 q20.5 4 40.5 4 q78 0 116 -54 q38 -54 45 -153 l-175 -52 q-10 72 -27 102 q-17 30 -53 30 q-21 0 -49.5 -9 q-28.5 -9 -66.5 -30 l0 -795 l-203 0 l0 942 l203 0 l0 -74 ZM543 1024 l-234 0 l-182 293 l101 0 l198 -197 l199 197 l100 0 l-182 -293 Z" /><glyph glyph-name="uring" unicode="&#x16f;" d="M689 78 q-65 -28 -119 -46.5 q-54 -18.5 -100.5 -29.5 q-46.5 -11 -87.5 -15.5 q-41 -4.5 -78 -4.5 q-94 0 -143.5 48.5 q-49.5 48.5 -49.5 157.5 l0 754 l203 0 l0 -723 q0 -23 4.5 -45.5 q4.5 -22.5 16 -40.5 q11.5 -18 31.5 -29.5 q20 -11.5 52 -11.5 q51 0 118.5 12.5 q67.5 12.5 152.5 51.5 l0 786 l202 0 l0 -942 l-202 0 l0 78 ZM504 1346 q45 0 82.5 -13 q37.5 -13 63.5 -36 q26 -23 40.5 -54 q14.5 -31 14.5 -67 q0 -36 -14.5 -66.5 q-14.5 -30.5 -40.5 -53 q-26 -22.5 -63.5 -35.5 q-37.5 -13 -82.5 -13 q-45 0 -82.5 13 q-37.5 13 -63.5 35.5 q-26 22.5 -40.5 53 q-14.5 30.5 -14.5 66.5 q0 36 14.5 67 q14.5 31 41 54 q26.5 23 63.5 36 q37 13 82 13 ZM504 1290 q-20 0 -36.5 -9 q-16.5 -9 -28.5 -24 q-12 -15 -18.5 -35.5 q-6.5 -20.5 -6.5 -43.5 q0 -23 6.5 -44 q6.5 -21 18.5 -37 q12 -16 28.5 -25 q16.5 -9 36.5 -9 q21 0 37.5 9 q16.5 9 28 25 q11.5 16 18 37 q6.5 21 6.5 44 q0 46 -24 79 q-24 33 -66 33 Z" /><glyph glyph-name="scaron" unicode="&#x161;" d="M395 961 q42 0 73 -3.5 q31 -3.5 58.5 -10.5 q27.5 -7 54.5 -16 q27 -9 60 -20 l-2 -88 q-47 17 -99.5 30 q-52.5 13 -123.5 13 q-15 0 -36 -4 q-21 -4 -40 -13.5 q-19 -9.5 -32 -25.5 q-13 -16 -13 -39 q0 -26 23.5 -63 q23.5 -37 74.5 -92 l107 -121 q34 -39 67.5 -75.5 q33.5 -36.5 59.5 -71.5 q26 -35 42.5 -69.5 q16.5 -34.5 16.5 -68.5 q0 -66 -30 -112 q-30 -46 -78 -75.5 q-48 -29.5 -108.5 -42.5 q-60.5 -13 -121.5 -13 q-85 0 -150.5 18.5 q-65.5 18.5 -123.5 52.5 l8 90 q46 -24 100 -44.5 q54 -20.5 111 -20.5 q94 0 141 33 q47 33 47 96 q0 44 -36.5 92 q-36.5 48 -90.5 106 l-106 119 q-42 53 -71.5 89 q-29.5 36 -47.5 64 q-18 28 -26.5 53 q-8.5 25 -8.5 56 q0 51 23.5 85 q23.5 34 64 54.5 q40.5 20.5 95.5 29 q55 8.5 118 8.5 ZM521 1024 l-234 0 l-182 293 l101 0 l198 -197 l199 197 l100 0 l-182 -293 Z" /><glyph glyph-name="ecaron" unicode="&#x11b;" d="M523 961 q102 0 172.5 -37.5 q70.5 -37.5 115 -101.5 q44.5 -64 64 -147.5 q19.5 -83.5 19.5 -176.5 l0 -47 l-616 0 q0 -56 18 -121 q18 -65 58.5 -120 q40.5 -55 105 -91.5 q64.5 -36.5 158.5 -36.5 l208 0 l0 -82 l-211 0 q-140 0 -241.5 32 q-101.5 32 -167 93 q-65.5 61 -96.5 149 q-31 88 -31 201 q0 94 29.5 182 q29.5 88 86 155.5 q56.5 67.5 139 108 q82.5 40.5 189.5 40.5 ZM513 870 q-62 0 -106 -28 q-44 -28 -72.5 -74.5 q-28.5 -46.5 -42 -108 q-13.5 -61.5 -14.5 -127.5 l423 0 l0 43 q-2 58 -10.5 111 q-8.5 53 -29.5 94 q-21 41 -56.5 65.5 q-35.5 24.5 -91.5 24.5 ZM632 1024 l-234 0 l-182 293 l101 0 l198 -197 l199 197 l100 0 l-182 -293 Z" /><glyph glyph-name="lcaron" unicode="&#x13e;" d="M167 1487 l203 0 l0 -1487 l-203 0 l0 1487 ZM503 1487 l203 0 l0 -160 q0 -41 -15 -72.5 q-15 -31.5 -41 -54 q-26 -22.5 -61 -34 q-35 -11.5 -75 -11.5 l-99 0 l0 90 q29 0 46.5 1.5 q17.5 1.5 26.5 9.5 q9 8 12 24.5 q3 16.5 3 46.5 l0 160 Z" /><glyph glyph-name="lacute" unicode="&#x13a;" d="M126 1487 l203 0 l0 -1487 l-203 0 l0 1487 ZM318 1855 l233 0 l-264 -293 l-94 0 l125 293 Z" /><glyph glyph-name="Lacute" unicode="&#x139;" d="M347 98 l612 0 l0 -98 l-831 0 l0 1487 l219 0 l0 -1389 ZM649 1860 l-280 -293 l-74 0 l111 293 l243 0 Z" /><glyph glyph-name="Lcaron" unicode="&#x13d;" d="M386 98 l612 0 l0 -98 l-831 0 l0 1487 l219 0 l0 -1389 ZM600 1489 l203 0 l0 -160 q0 -41 -15 -72.5 q-15 -31.5 -41 -54 q-26 -22.5 -61 -34 q-35 -11.5 -75 -11.5 l-99 0 l0 90 q29 0 46.5 1.5 q17.5 1.5 26.5 9.5 q9 8 12 24.5 q3 16.5 3 46.5 l0 160 Z" /><glyph glyph-name="Scaron" unicode="&#x160;" d="M460 1518 q66 0 115.5 -6 q49.5 -6 93 -16.5 q43.5 -10.5 86.5 -24.5 q43 -14 96 -31 l-4 -105 q-38 13 -77 25 q-39 12 -81.5 21 q-42.5 9 -90.5 14.5 q-48 5.5 -103 5.5 q-25 0 -58 -8 q-33 -8 -63 -27 q-30 -19 -51 -50 q-21 -31 -21 -77 q0 -43 34 -100.5 q34 -57.5 114 -143.5 l176 -190 q58 -60 111.5 -118.5 q53.5 -58.5 93.5 -115 q40 -56.5 64 -112 q24 -55.5 24 -109.5 q0 -105 -38.5 -178.5 q-38.5 -73.5 -100 -119 q-61.5 -45.5 -139.5 -66.5 q-78 -21 -156 -21 q-68 0 -127 7.5 q-59 7.5 -112.5 22 q-53.5 14.5 -102.5 36 q-49 21.5 -97 49.5 l13 108 q39 -18 80 -36.5 q41 -18.5 83.5 -33 q42.5 -14.5 86.5 -23.5 q44 -9 88 -9 q147 0 222 60.5 q75 60.5 75 175.5 q0 35 -15.5 71 q-15.5 36 -42.5 74.5 q-27 38.5 -63.5 79.5 q-36.5 41 -77.5 86 l-178 194 q-68 83 -114 142 q-46 59 -73.5 105 q-27.5 46 -39 84.5 q-11.5 38.5 -11.5 80.5 q0 81 33 134.5 q33 53.5 87 85.5 q54 32 122 45.5 q68 13.5 139 13.5 ZM597 1569 l-234 0 l-182 293 l101 0 l198 -197 l199 197 l100 0 l-182 -293 Z" /><glyph glyph-name="Zcaron" unicode="&#x17d;" d="M1171 1487 l-823 -1389 l811 0 l0 -98 l-1114 0 l821 1389 l-727 0 l0 98 l1032 0 ZM744 1569 l-234 0 l-182 293 l101 0 l198 -197 l199 197 l100 0 l-182 -293 Z" /><glyph glyph-name="Ncaron" unicode="&#x147;" d="M1293 0 l-168 0 l-824 1155 l0 -1155 l-102 0 l0 1298 l-133 189 l268 0 l856 -1202 l0 1202 l103 0 l0 -1487 ZM856 1569 l-234 0 l-182 293 l101 0 l198 -197 l199 197 l100 0 l-182 -293 Z" /><glyph glyph-name="ncaron" unicode="&#x148;" d="M335 864 q64 28 118 46.5 q54 18.5 101 30 q47 11.5 87.5 16 q40.5 4.5 78.5 4.5 q94 0 143.5 -49 q49.5 -49 49.5 -158 l0 -754 l-203 0 l0 723 q0 22 -4.5 45 q-4.5 23 -16.5 41 q-12 18 -32.5 29.5 q-20.5 11.5 -51.5 11.5 q-51 0 -118 -12.5 q-67 -12.5 -152 -51.5 l0 -786 l-203 0 l0 942 l203 0 l0 -78 ZM637 1024 l-234 0 l-182 293 l101 0 l198 -197 l199 197 l100 0 l-182 -293 Z" /><glyph glyph-name="racute" unicode="&#x155;" d="M306 868 q40 28 70.5 46 q30.5 18 54.5 28.5 q24 10.5 44.5 14.5 q20.5 4 40.5 4 q78 0 116 -54 q38 -54 45 -153 l-175 -52 q-10 72 -27 102 q-17 30 -53 30 q-21 0 -49.5 -9 q-28.5 -9 -66.5 -30 l0 -795 l-203 0 l0 942 l203 0 l0 -74 ZM365 1317 l233 0 l-264 -293 l-94 0 l125 293 Z" /><glyph glyph-name="Zacute" unicode="&#x179;" d="M1142 1487 l-823 -1389 l811 0 l0 -98 l-1114 0 l821 1389 l-727 0 l0 98 l1032 0 ZM897 1860 l-280 -293 l-74 0 l111 293 l243 0 Z" /><glyph glyph-name="afii10029" unicode="&#x41b;" d="M84 0 l0 242 q29 0 48 5.5 q19 5.5 32 15 q13 9.5 21 22.5 q8 13 14 27 q45 113 74 252 q29 139 46.5 292 q17.5 153 24 314 q6.5 161 6.5 317 l802 0 l0 -1487 l-212 0 l0 1374 l-481 0 q0 -91 -5 -195.5 q-5 -104.5 -14.5 -214 q-9.5 -109.5 -24 -221 q-14.5 -111.5 -33 -216 q-18.5 -104.5 -42 -199 q-23.5 -94.5 -50.5 -170.5 q-32 -86 -73.5 -122 q-41.5 -36 -102.5 -36 l-30 0 Z" /><glyph glyph-name="afii10094" unicode="&#x44c;" d="M358 942 l0 -404 q42 28 86 49.5 q44 21.5 88.5 36 q44.5 14.5 87.5 22 q43 7.5 82 7.5 q56 0 110.5 -18 q54.5 -18 97 -55 q42.5 -37 69 -93 q26.5 -56 26.5 -131 q0 -80 -33.5 -145.5 q-33.5 -65.5 -93 -112 q-59.5 -46.5 -140 -72.5 q-80.5 -26 -173.5 -26 l-398 0 l0 942 l191 0 ZM603 533 q-22 0 -51.5 -4.5 q-29.5 -4.5 -62 -14 q-32.5 -9.5 -66.5 -25 q-34 -15.5 -65 -37.5 l0 -368 l144 0 q155 0 224.5 63.5 q69.5 63.5 69.5 189.5 q0 42 -12.5 77.5 q-12.5 35.5 -37 62 q-24.5 26.5 -60.5 41.5 q-36 15 -83 15 Z" /><glyph glyph-name="afii10096" unicode="&#x44e;" d="M355 527 l159 0 q9 92 46 171.5 q37 79.5 95 138 q58 58.5 135.5 91.5 q77.5 33 167.5 33 q98 0 180.5 -38.5 q82.5 -38.5 142 -104.5 q59.5 -66 92.5 -155.5 q33 -89.5 33 -191.5 q0 -101 -33 -189.5 q-33 -88.5 -92.5 -154 q-59.5 -65.5 -142 -103.5 q-82.5 -38 -180.5 -38 q-93 0 -172 35 q-79 35 -138 96 q-59 61 -94.5 143.5 q-35.5 82.5 -41.5 178.5 l-157 0 l0 -439 l-189 0 l0 942 l189 0 l0 -415 ZM721 471 q0 -80 13 -152.5 q13 -72.5 41 -128 q28 -55.5 73 -88.5 q45 -33 110 -33 q64 0 109.5 33 q45.5 33 74 88.5 q28.5 55.5 41.5 128 q13 72.5 13 152.5 q0 74 -13 147 q-13 73 -41.5 130.5 q-28.5 57.5 -74 93 q-45.5 35.5 -109.5 35.5 q-65 0 -110 -33.5 q-45 -33.5 -73 -90 q-28 -56.5 -41 -130 q-13 -73.5 -13 -152.5 Z" /><glyph glyph-name="afii10074" unicode="&#x438;" d="M356 314 l440 513 l0 115 l188 0 l0 -942 l-188 0 l0 693 l-440 -515 l0 -178 l-189 0 l0 942 l189 0 l0 -628 Z" /><glyph glyph-name="uni0441" unicode="&#x441;" d="M831 784 q-52 42 -105 63 q-53 21 -122 21 q-75 0 -132.5 -29 q-57.5 -29 -96.5 -78.5 q-39 -49.5 -59.5 -114.5 q-20.5 -65 -20.5 -138 q0 -34 4.5 -78.5 q4.5 -44.5 18.5 -92 q14 -47.5 40.5 -93 q26.5 -45.5 70 -82 q43.5 -36.5 108 -58.5 q64.5 -22 153.5 -22 l149 0 l0 -82 l-149 0 q-119 0 -209.5 18.5 q-90.5 18.5 -157 51.5 q-66.5 33 -111 79.5 q-44.5 46.5 -71.5 103 q-27 56.5 -38 120.5 q-11 64 -11 133 q0 91 32.5 173.5 q32.5 82.5 97 145 q64.5 62.5 160 99.5 q95.5 37 222.5 37 q31 0 66 -7 q35 -7 70 -20.5 q35 -13.5 69.5 -34 q34.5 -20.5 64.5 -47.5 l-43 -68 Z" /><glyph glyph-name="afii10028" unicode="&#x41a;" d="M380 1487 l0 -541 l202 0 l436 541 l157 0 l-414 -528 l467 -959 l-234 0 l-408 825 l-206 0 l0 -825 l-213 0 l0 1487 l213 0 Z" /><glyph glyph-name="afii10095" unicode="&#x44d;" d="M190 529 l469 0 q-5 81 -28.5 145 q-23.5 64 -62 108 q-38.5 44 -89 67.5 q-50.5 23.5 -109.5 23.5 q-38 0 -73.5 -10 q-35.5 -10 -67 -28 q-31.5 -18 -57.5 -42.5 q-26 -24.5 -45 -53.5 l-37 0 l0 113 q41 48 120.5 78.5 q79.5 30.5 188.5 30.5 q94 0 179.5 -36.5 q85.5 -36.5 150.5 -100.5 q65 -64 103 -149.5 q38 -85.5 38 -184.5 q0 -95 -26.5 -183.5 q-26.5 -88.5 -90 -156.5 q-63.5 -68 -168.5 -109 q-105 -41 -261 -41 l-234 0 l0 84 l179 0 q99 0 170 24 q71 24 118 69.5 q47 45.5 71.5 112 q24.5 66.5 30.5 152.5 l-469 0 l0 87 Z" /><glyph glyph-name="uni0440" unicode="&#x440;" d="M344 892 q57 35 121 52 q64 17 115 17 q127 0 219.5 -34.5 q92.5 -34.5 153 -95 q60.5 -60.5 89.5 -144 q29 -83.5 29 -181.5 q0 -99 -26.5 -190.5 q-26.5 -91.5 -94 -161.5 q-67.5 -70 -183.5 -112 q-116 -42 -294 -42 l-129 0 l0 -362 l-202 -58 l0 1362 l202 0 l0 -50 ZM559 877 q-64 0 -115.5 -15 q-51.5 -15 -99.5 -44 l0 -736 l129 0 q90 0 154 22 q64 22 108 58.5 q44 36.5 70.5 82 q26.5 45.5 40.5 93 q14 47.5 18.5 92 q4.5 44.5 4.5 78.5 q0 73 -20.5 139.5 q-20.5 66.5 -60 117.5 q-39.5 51 -97 81.5 q-57.5 30.5 -132.5 30.5 Z" /><glyph glyph-name="uni043E" unicode="&#x43e;" d="M587 961 q103 0 193 -38.5 q90 -38.5 156.5 -105 q66.5 -66.5 104.5 -156 q38 -89.5 38 -190.5 q0 -102 -38 -191.5 q-38 -89.5 -104.5 -156 q-66.5 -66.5 -156.5 -105 q-90 -38.5 -193 -38.5 q-101 0 -189.5 38.5 q-88.5 38.5 -154.5 105 q-66 66.5 -104.5 156 q-38.5 89.5 -38.5 191.5 q0 101 38.5 190.5 q38.5 89.5 104.5 156 q66 66.5 154.5 105 q88.5 38.5 189.5 38.5 ZM585 870 q-78 0 -131.5 -30 q-53.5 -30 -86.5 -84 q-33 -54 -47.5 -128 q-14.5 -74 -14.5 -161 q0 -86 15 -159 q15 -73 48 -126.5 q33 -53.5 86.5 -83.5 q53.5 -30 130.5 -30 q77 0 131 30 q54 30 88.5 83.5 q34.5 53.5 50 126.5 q15.5 73 15.5 159 q0 87 -15.5 161 q-15.5 74 -50 128 q-34.5 54 -88.5 84 q-54 30 -131 30 Z" /><glyph glyph-name="afii10077" unicode="&#x43b;" d="M83 0 l0 199 q74 0 103 56 q39 81 63.5 253 q24.5 172 32.5 434 l564 0 l0 -942 l-190 0 l0 854 l-292 0 q-6 -95 -14.5 -198 q-8.5 -103 -21.5 -200 q-13 -97 -30.5 -181.5 q-17.5 -84.5 -40.5 -142.5 q-15 -38 -33.5 -63 q-18.5 -25 -39 -40.5 q-20.5 -15.5 -41.5 -22 q-21 -6.5 -40 -6.5 l-20 0 Z" /><glyph glyph-name="afii10084" unicode="&#x442;" d="M23 942 l817 0 l0 -88 l-312 0 l0 -854 l-189 0 l0 854 l-316 0 l0 88 Z" /><glyph glyph-name="uni0435" unicode="&#x435;" d="M544 961 q102 0 172.5 -37.5 q70.5 -37.5 115 -101.5 q44.5 -64 64 -147.5 q19.5 -83.5 19.5 -176.5 l0 -47 l-616 0 q0 -56 18 -121 q18 -65 58.5 -120 q40.5 -55 105 -91.5 q64.5 -36.5 158.5 -36.5 l208 0 l0 -82 l-211 0 q-140 0 -241.5 32 q-101.5 32 -167 93 q-65.5 61 -96.5 149 q-31 88 -31 201 q0 94 29.5 182 q29.5 88 86 155.5 q56.5 67.5 139 108 q82.5 40.5 189.5 40.5 ZM534 870 q-62 0 -106 -28 q-44 -28 -72.5 -74.5 q-28.5 -46.5 -42 -108 q-13.5 -61.5 -14.5 -127.5 l423 0 l0 43 q-2 58 -10.5 111 q-8.5 53 -29.5 94 q-21 41 -56.5 65.5 q-35.5 24.5 -91.5 24.5 Z" /><glyph glyph-name="afii10081" unicode="&#x43f;" d="M167 0 l0 942 l796 0 l0 -942 l-189 0 l0 823 l-418 0 l0 -823 l-189 0 Z" /><glyph glyph-name="afii10067" unicode="&#x432;" d="M167 942 l455 0 q70 0 132.5 -11.5 q62.5 -11.5 108.5 -38.5 q46 -27 73 -71.5 q27 -44.5 27 -111.5 q0 -74 -54 -128 q-54 -54 -155 -74 q54 -8 100 -28.5 q46 -20.5 79.5 -51 q33.5 -30.5 52.5 -70.5 q19 -40 19 -87 q0 -72 -29.5 -123 q-29.5 -51 -79.5 -84 q-50 -33 -118 -48 q-68 -15 -144 -15 l-467 0 l0 942 ZM356 459 l0 -375 l205 0 q115 0 175 46 q60 46 60 140 q0 58 -19 95 q-19 37 -52.5 58 q-33.5 21 -79.5 28.5 q-46 7.5 -101 7.5 l-188 0 ZM356 854 l0 -307 l236 0 q40 0 73 8.5 q33 8.5 55.5 28 q22.5 19.5 35 50.5 q12.5 31 12.5 75 q0 80 -53 112.5 q-53 32.5 -169 32.5 l-190 0 Z" /><glyph glyph-name="afii10069" unicode="&#x434;" d="M91 -194 l0 278 l74 0 q33 76 59 171 q26 95 44.5 204.5 q18.5 109.5 28.5 231.5 q10 122 12 251 l579 0 l0 -858 l128 0 l0 -278 l-110 0 l0 194 l-703 0 l0 -194 l-112 0 ZM700 84 l0 770 l-305 0 q-6 -105 -16.5 -212.5 q-10.5 -107.5 -26 -208.5 q-15.5 -101 -37 -190.5 q-21.5 -89.5 -50.5 -158.5 l435 0 Z" /><glyph glyph-name="afii10078" unicode="&#x43c;" d="M167 0 l0 942 l216 0 l285 -439 l337 439 l167 0 l0 -942 l-188 0 l0 764 l-388 -513 l-341 542 l0 -793 l-88 0 Z" /><glyph glyph-name="afii10079" unicode="&#x43d;" d="M356 582 l418 0 l0 360 l189 0 l0 -942 l-189 0 l0 494 l-418 0 l0 -494 l-189 0 l0 942 l189 0 l0 -360 Z" /><glyph glyph-name="afii10093" unicode="&#x44b;" d="M358 942 l-2 -411 q78 63 158.5 92.5 q80.5 29.5 151.5 29.5 q56 0 108.5 -18 q52.5 -18 93 -55 q40.5 -37 64.5 -93 q24 -56 24 -131 q0 -80 -31.5 -145.5 q-31.5 -65.5 -88.5 -112 q-57 -46.5 -135 -72.5 q-78 -26 -171 -26 l-363 0 l0 942 l191 0 ZM1053 942 l188 0 l0 -942 l-188 0 l0 942 ZM574 533 q-45 0 -102.5 -21 q-57.5 -21 -115.5 -70 l0 -358 l111 0 q77 0 130.5 16 q53.5 16 87 48 q33.5 32 48.5 79 q15 47 15 110 q0 42 -10.5 77.5 q-10.5 35.5 -32 62 q-21.5 26.5 -54.5 41.5 q-33 15 -77 15 Z" /><glyph glyph-name="uni0443" unicode="&#x443;" d="M474 1 l-1 -1 l-434 942 l204 0 l230 -502 l85 -218 l273 720 l97 0 l-496 -1304 l-96 0 l138 363 Z" /><glyph glyph-name="afii10090" unicode="&#x448;" d="M167 942 l189 0 l0 -822 l293 0 l0 822 l189 0 l0 -822 l292 0 l0 822 l189 0 l0 -942 l-1152 0 l0 942 Z" /><glyph glyph-name="uni0430" unicode="&#x430;" d="M483 874 q-48 0 -83.5 -3 q-35.5 -3 -64.5 -8 q-29 -5 -54 -11.5 q-25 -6.5 -50 -13.5 l-24 65 q84 31 175.5 44.5 q91.5 13.5 173.5 13.5 q105 0 172.5 -11 q67.5 -11 105.5 -36.5 q38 -25.5 52.5 -68 q14.5 -42.5 14.5 -106.5 l0 -739 l-328 0 q-134 0 -228.5 28 q-94.5 28 -154.5 75.5 q-60 47.5 -88 109 q-28 61.5 -28 129.5 q0 84 26.5 148 q26.5 64 76.5 107.5 q50 43.5 122 66 q72 22.5 164 22.5 q50 0 113.5 -17 q63.5 -17 121.5 -51 l0 125 q0 23 -5 46.5 q-5 23.5 -26 42 q-21 18.5 -64.5 30.5 q-43.5 12 -119.5 12 ZM698 82 l0 463 q-48 29 -100 43 q-52 14 -115 14 q-50 0 -88.5 -18 q-38.5 -18 -64.5 -51 q-26 -33 -39.5 -79 q-13.5 -46 -13.5 -102 q0 -16 1.5 -42 q1.5 -26 10 -56 q8.5 -30 26 -60.5 q17.5 -30.5 49.5 -55.5 q32 -25 81 -40.5 q49 -15.5 120 -15.5 l133 0 Z" /><glyph glyph-name="afii10073" unicode="&#x437;" d="M509 733 q0 32 -14 58 q-14 26 -37.5 44 q-23.5 18 -54 28 q-30.5 10 -64.5 10 q-35 0 -68.5 -7 q-33.5 -7 -64.5 -18.5 q-31 -11.5 -60 -25.5 q-29 -14 -56 -27 l-42 59 q29 21 65 40.5 q36 19.5 78 34.5 q42 15 90.5 23.5 q48.5 8.5 103.5 8.5 q66 0 124 -15.5 q58 -15.5 101.5 -44 q43.5 -28.5 69 -69 q25.5 -40.5 25.5 -89.5 q0 -38 -18 -75 q-18 -37 -51 -69 q-33 -32 -80 -56.5 q-47 -24.5 -106 -37.5 q63 -11 120.5 -37 q57.5 -26 100.5 -64.5 q43 -38.5 68.5 -89 q25.5 -50.5 25.5 -111.5 q0 -74 -25.5 -138.5 q-25.5 -64.5 -69.5 -120.5 q-44 -56 -104 -104 q-60 -48 -129 -89 q-69 -41 -144.5 -75.5 q-75.5 -34.5 -150.5 -62.5 l-33 88 q98 43 180 96.5 q82 53.5 141 116.5 q59 63 92 135.5 q33 72.5 33 153.5 q0 78 -27.5 127.5 q-27.5 49.5 -74.5 77.5 q-47 28 -109 38 q-62 10 -130 10 l0 88 q68 3 122.5 15 q54.5 12 93 35.5 q38.5 23.5 59 57.5 q20.5 34 20.5 81 Z" /><glyph glyph-name="afii10041" unicode="&#x427;" d="M242 1487 l0 -567 q0 -101 15 -161.5 q15 -60.5 61 -89.5 q46 -28 130 -28 q37 0 85.5 9 q48.5 9 102.5 24 q54 15 111 35.5 q57 20.5 111 44.5 l0 733 l212 0 l0 -1487 l-212 0 l0 648 q-60 -26 -124.5 -50 q-64.5 -24 -131 -42.5 q-66.5 -18.5 -132.5 -30 q-66 -11.5 -128 -11.5 q-79 0 -137.5 17 q-58.5 17 -97.5 59 q-39 42 -58 112 q-19 70 -19 175 l0 610 l212 0 Z" /><glyph glyph-name="afii10072" unicode="&#x436;" d="M653 942 l188 0 l0 -387 l166 0 l215 387 l101 0 l-232 -423 l271 -519 l-196 0 l-241 467 l-84 0 l0 -467 l-188 0 l0 467 l-84 0 l-241 -467 l-196 0 l272 519 l-232 423 l100 0 l216 -387 l165 0 l0 387 Z" /><glyph glyph-name="afii10021" unicode="&#x414;" d="M89 -237 l0 339 l105 0 q54 123 92 284 q38 161 62 342.5 q24 181.5 35.5 375 q11.5 193.5 11.5 383.5 l823 0 l0 -1385 l174 0 l0 -339 l-134 0 l0 237 l-1033 0 l0 -237 l-136 0 ZM1005 102 l0 1272 l-500 0 q0 -104 -6.5 -220 q-6.5 -116 -18.5 -234.5 q-12 -118.5 -28.5 -236 q-16.5 -117.5 -37 -224 q-20.5 -106.5 -44 -198 q-23.5 -91.5 -48.5 -159.5 l683 0 Z" /><glyph glyph-name="afii10089" unicode="&#x447;" d="M615 383 q-57 -21 -101.5 -36.5 q-44.5 -15.5 -83 -25.5 q-38.5 -10 -74.5 -15 q-36 -5 -76 -5 q-45 0 -88 10.5 q-43 10.5 -77.5 36.5 q-34.5 26 -55.5 70.5 q-21 44.5 -21 112.5 l0 411 l188 0 l0 -377 q0 -43 8.5 -72 q8.5 -29 24.5 -46 q16 -17 40 -24.5 q24 -7.5 54 -7.5 q28 0 55 2 q27 2 58 7.5 q31 5.5 67 15.5 q36 10 82 27 l0 475 l188 0 l0 -942 l-188 0 l0 383 Z" /><glyph glyph-name="uni0493" unicode="&#x493;" d="M167 942 l601 0 l0 -88 l-412 0 l0 -308 l313 0 l0 -102 l-313 0 l0 -444 l-189 0 l0 942 Z" /><glyph glyph-name="afii10066" unicode="&#x431;" d="M100 579 q1 176 36.5 323 q35.5 147 117.5 252.5 q82 105.5 215.5 164.5 q133.5 59 329.5 59 l226 0 l-42 -158 l-246 0 q-112 0 -202.5 -23 q-90.5 -23 -158.5 -79 q-68 -56 -113 -149.5 q-45 -93.5 -65 -233.5 q30 55 73 97.5 q43 42.5 93.5 71 q50.5 28.5 107 43 q56.5 14.5 113.5 14.5 q106 0 193 -38.5 q87 -38.5 148.5 -104.5 q61.5 -66 95.5 -155.5 q34 -89.5 34 -191.5 q0 -101 -34 -189.5 q-34 -88.5 -95.5 -154 q-61.5 -65.5 -148.5 -103.5 q-87 -38 -193 -38 q-104 0 -193 38 q-89 38 -154 112 q-65 74 -101.5 183 q-36.5 109 -36.5 250 l0 10 ZM309 471 q0 -80 16 -152.5 q16 -72.5 50 -128 q34 -55.5 86 -88.5 q52 -33 124 -33 q72 0 122 33 q50 33 81 88.5 q31 55.5 45 128 q14 72.5 14 152.5 q0 74 -14 147 q-14 73 -45 130.5 q-31 57.5 -81 93 q-50 35.5 -122 35.5 q-72 0 -124 -33.5 q-52 -33.5 -86 -90 q-34 -56.5 -50 -130 q-16 -73.5 -16 -152.5 Z" /><glyph glyph-name="afii10088" unicode="&#x446;" d="M74 942 l189 0 l0 -822 l418 0 l0 822 l189 0 l0 -858 l128 0 l0 -278 l-111 0 l0 194 l-813 0 l0 942 Z" /><glyph glyph-name="uni04A3" unicode="&#x4a3;" d="M681 494 l-418 0 l0 -494 l-189 0 l0 942 l189 0 l0 -360 l418 0 l0 360 l189 0 l0 -858 l128 0 l0 -278 l-111 0 l0 194 l-206 0 l0 494 Z" /><glyph glyph-name="afii10068" unicode="&#x433;" d="M167 942 l601 0 l0 -88 l-412 0 l0 -854 l-189 0 l0 942 Z" /><glyph glyph-name="uni04E7" unicode="&#x4e7;" d="M546 961 q103 0 193 -38.5 q90 -38.5 156.5 -105 q66.5 -66.5 104.5 -156 q38 -89.5 38 -190.5 q0 -102 -38 -191.5 q-38 -89.5 -104.5 -156 q-66.5 -66.5 -156.5 -105 q-90 -38.5 -193 -38.5 q-101 0 -189.5 38.5 q-88.5 38.5 -154.5 105 q-66 66.5 -104.5 156 q-38.5 89.5 -38.5 191.5 q0 101 38.5 190.5 q38.5 89.5 104.5 156 q66 66.5 154.5 105 q88.5 38.5 189.5 38.5 ZM544 870 q-78 0 -131.5 -30 q-53.5 -30 -86.5 -84 q-33 -54 -47.5 -128 q-14.5 -74 -14.5 -161 q0 -86 15 -159 q15 -73 48 -126.5 q33 -53.5 86.5 -83.5 q53.5 -30 130.5 -30 q77 0 131 30 q54 30 88.5 83.5 q34.5 53.5 50 126.5 q15.5 73 15.5 159 q0 87 -15.5 161 q-15.5 74 -50 128 q-34.5 54 -88.5 84 q-54 30 -131 30 ZM479 1165 l-191 0 l0 139 l191 0 l0 -139 ZM810 1165 l-190 0 l0 139 l190 0 l0 -139 Z" /><glyph glyph-name="afii10076" unicode="&#x43a;" d="M356 942 l0 -387 l201 0 l241 387 l100 0 l-256 -423 l296 -519 l-196 0 l-269 467 l-117 0 l0 -467 l-189 0 l0 942 l189 0 Z" /><glyph glyph-name="uni04F1" unicode="&#x4f1;" d="M443 1 l-1 -1 l-434 942 l204 0 l230 -502 l85 -218 l273 720 l97 0 l-496 -1304 l-96 0 l138 363 ZM426 1165 l-191 0 l0 139 l191 0 l0 -139 ZM757 1165 l-190 0 l0 139 l190 0 l0 -139 Z" /><glyph glyph-name="uni041E" unicode="&#x41e;" d="M895 -29 q-110 0 -211.5 28 q-101.5 28 -190 78.5 q-88.5 50.5 -161 121.5 q-72.5 71 -124.5 157.5 q-52 86.5 -80.5 186 q-28.5 99.5 -28.5 207.5 q0 106 28.5 205 q28.5 99 80.5 185 q52 86 124.5 157 q72.5 71 161 121 q88.5 50 190 78 q101.5 28 211.5 28 q109 0 210 -27.5 q101 -27.5 189 -78 q88 -50.5 160.5 -121.5 q72.5 -71 124 -157 q51.5 -86 80 -185 q28.5 -99 28.5 -205 q0 -108 -28.5 -207.5 q-28.5 -99.5 -80 -186 q-51.5 -86.5 -124 -157.5 q-72.5 -71 -160.5 -121.5 q-88 -50.5 -189 -78.5 q-101 -28 -210 -28 ZM895 68 q136 0 240.5 53 q104.5 53 175.5 145 q71 92 107.5 216.5 q36.5 124.5 36.5 267.5 q0 142 -36 266 q-36 124 -106.5 215 q-70.5 91 -175.5 143.5 q-105 52.5 -242 52.5 q-139 0 -243.5 -52.5 q-104.5 -52.5 -175 -143.5 q-70.5 -91 -106 -215 q-35.5 -124 -35.5 -266 q0 -143 36 -267.5 q36 -124.5 106.5 -216.5 q70.5 -92 175.5 -145 q105 -53 242 -53 Z" /><glyph glyph-name="afii10086" unicode="&#x444;" d="M546 0 l-42 0 q-105 0 -192.5 35.5 q-87.5 35.5 -150.5 98.5 q-63 63 -98.5 149.5 q-35.5 86.5 -35.5 187.5 q0 102 35.5 188.5 q35.5 86.5 98.5 149 q63 62.5 150.5 98 q87.5 35.5 192.5 35.5 l42 0 l0 524 l188 0 l0 -524 l42 0 q104 0 191.5 -35.5 q87.5 -35.5 151 -98 q63.5 -62.5 99 -149 q35.5 -86.5 35.5 -188.5 q0 -101 -35.5 -187.5 q-35.5 -86.5 -99 -149.5 q-63.5 -63 -151 -98.5 q-87.5 -35.5 -191.5 -35.5 l-42 0 l0 -345 l-188 -42 l0 387 ZM236 471 q0 -80 14.5 -150.5 q14.5 -70.5 47 -123 q32.5 -52.5 83.5 -83 q51 -30.5 123 -30.5 l42 0 l0 774 l-42 0 q-72 0 -123 -30.5 q-51 -30.5 -83.5 -83.5 q-32.5 -53 -47 -123.5 q-14.5 -70.5 -14.5 -149.5 ZM734 858 l0 -774 l42 0 q72 0 123 30.5 q51 30.5 83.5 83 q32.5 52.5 47 123 q14.5 70.5 14.5 150.5 q0 79 -14.5 149.5 q-14.5 70.5 -47 123.5 q-32.5 53 -83.5 83.5 q-51 30.5 -123 30.5 l-42 0 Z" /><glyph glyph-name="afii10075" unicode="&#x439;" d="M322 314 l440 513 l0 115 l188 0 l0 -942 l-188 0 l0 693 l-440 -515 l0 -178 l-189 0 l0 942 l189 0 l0 -628 ZM395 1308 q0 -63 37 -99.5 q37 -36.5 128 -36.5 q93 0 129.5 36.5 q36.5 36.5 36.5 99.5 l150 0 q0 -54 -25 -96 q-25 -42 -68 -70.5 q-43 -28.5 -100.5 -43 q-57.5 -14.5 -122.5 -14.5 q-62 0 -118 12.5 q-56 12.5 -99 39.5 q-43 27 -69 69.5 q-26 42.5 -27 102.5 l148 0 Z" /><glyph glyph-name="afii10020" unicode="&#x413;" d="M167 1487 l905 0 l0 -121 l-693 0 l0 -1366 l-212 0 l0 1487 Z" /><glyph glyph-name="uni049A" unicode="&#x49a;" d="M926 0 l-408 825 l-206 0 l0 -825 l-213 0 l0 1487 l213 0 l0 -541 l202 0 l436 541 l157 0 l-414 -528 l419 -857 l174 0 l0 -339 l-134 0 l0 237 l-226 0 Z" /><glyph glyph-name="afii10097" unicode="&#x44f;" d="M898 0 l-188 0 l0 337 l-102 0 l-283 -337 l-242 0 l330 373 q-53 9 -100.5 30.5 q-47.5 21.5 -84 55 q-36.5 33.5 -58 78.5 q-21.5 45 -21.5 102 q0 150 108 226.5 q108 76.5 303 76.5 l338 0 l0 -942 ZM359 641 q0 -50 17 -89.5 q17 -39.5 48 -68 q31 -28.5 74.5 -43.5 q43.5 -15 96.5 -15 l115 0 l0 429 l-115 0 q-53 0 -96.5 -11.5 q-43.5 -11.5 -74.5 -37 q-31 -25.5 -48 -66 q-17 -40.5 -17 -98.5 Z" /><glyph glyph-name="uni0451" unicode="&#x451;" d="M506 961 q102 0 172.5 -37.5 q70.5 -37.5 115 -101.5 q44.5 -64 64 -147.5 q19.5 -83.5 19.5 -176.5 l0 -47 l-616 0 q0 -56 18 -121 q18 -65 58.5 -120 q40.5 -55 105 -91.5 q64.5 -36.5 158.5 -36.5 l208 0 l0 -82 l-211 0 q-140 0 -241.5 32 q-101.5 32 -167 93 q-65.5 61 -96.5 149 q-31 88 -31 201 q0 94 29.5 182 q29.5 88 86 155.5 q56.5 67.5 139 108 q82.5 40.5 189.5 40.5 ZM496 870 q-62 0 -106 -28 q-44 -28 -72.5 -74.5 q-28.5 -46.5 -42 -108 q-13.5 -61.5 -14.5 -127.5 l423 0 l0 43 q-2 58 -10.5 111 q-8.5 53 -29.5 94 q-21 41 -56.5 65.5 q-35.5 24.5 -91.5 24.5 ZM425 1165 l-191 0 l0 139 l191 0 l0 -139 ZM756 1165 l-190 0 l0 139 l190 0 l0 -139 Z" /><glyph glyph-name="uni0456" unicode="&#x456;" d="M336 0 l-203 0 l0 942 l203 0 l0 -942 ZM336 1100 l-203 0 l0 119 l203 0 l0 -119 Z" /><glyph glyph-name="uni04CC" unicode="&#x4cc;" d="M620 0 l0 -194 l-111 0 l0 278 l104 0 l0 299 q-57 -21 -101.5 -36.5 q-44.5 -15.5 -83 -25.5 q-38.5 -10 -74.5 -15 q-36 -5 -76 -5 q-45 0 -88 10.5 q-43 10.5 -77.5 36.5 q-34.5 26 -55.5 70.5 q-21 44.5 -21 112.5 l0 411 l188 0 l0 -377 q0 -43 8.5 -72 q8.5 -29 24.5 -46 q16 -17 40 -24.5 q24 -7.5 54 -7.5 q28 0 55 2 q27 2 58 7.5 q31 5.5 67 15.5 q36 10 82 27 l0 475 l188 0 l0 -942 l-181 0 Z" /><glyph glyph-name="uni0421" unicode="&#x421;" d="M889 1518 q174 0 322.5 -56.5 q148.5 -56.5 263.5 -156.5 l-56 -74 q-46 39 -102 73 q-56 34 -118 58.5 q-62 24.5 -129 39 q-67 14.5 -135 14.5 q-146 0 -259 -53 q-113 -53 -190 -145 q-77 -92 -117 -215 q-40 -123 -40 -264 q0 -138 39.5 -260 q39.5 -122 116 -214 q76.5 -92 189.5 -145.5 q113 -53.5 259 -53.5 q70 0 142 14 q72 14 139 41 q67 27 126.5 66 q59.5 39 105.5 89 l57 -73 q-118 -112 -274 -175 q-156 -63 -340 -63 q-111 0 -213 27.5 q-102 27.5 -190.5 78.5 q-88.5 51 -161 121.5 q-72.5 70.5 -124 156.5 q-51.5 86 -80 184.5 q-28.5 98.5 -28.5 205.5 q0 107 28.5 207 q28.5 100 80 186.5 q51.5 86.5 124 157.5 q72.5 71 161 121.5 q88.5 50.5 190.5 78.5 q102 28 213 28 Z" /><glyph glyph-name="uni0410" unicode="&#x410;" d="M1370 0 l-231 0 l-82 193 l-813 0 l-80 -193 l-121 0 l545 1296 l-80 191 l234 0 l628 -1487 ZM285 291 l731 0 l-369 864 l-362 -864 Z" /><glyph glyph-name="uni02C9" unicode="&#x2c9;" d="M167 1280 l604 0 l0 -102 l-604 0 l0 102 Z" /><glyph glyph-name="macron" unicode="¯" d="M167 1280 l604 0 l0 -102 l-604 0 l0 102 Z" /><glyph glyph-name="amacron" unicode="&#x101;" d="M445 874 q-48 0 -83.5 -3 q-35.5 -3 -64.5 -8 q-29 -5 -54 -11.5 q-25 -6.5 -50 -13.5 l-24 65 q84 31 175.5 44.5 q91.5 13.5 173.5 13.5 q105 0 172.5 -11 q67.5 -11 105.5 -36.5 q38 -25.5 52.5 -68 q14.5 -42.5 14.5 -106.5 l0 -739 l-328 0 q-134 0 -228.5 28 q-94.5 28 -154.5 75.5 q-60 47.5 -88 109 q-28 61.5 -28 129.5 q0 84 26.5 148 q26.5 64 76.5 107.5 q50 43.5 122 66 q72 22.5 164 22.5 q50 0 113.5 -17 q63.5 -17 121.5 -51 l0 125 q0 23 -5 46.5 q-5 23.5 -26 42 q-21 18.5 -64.5 30.5 q-43.5 12 -119.5 12 ZM660 82 l0 463 q-48 29 -100 43 q-52 14 -115 14 q-50 0 -88.5 -18 q-38.5 -18 -64.5 -51 q-26 -33 -39.5 -79 q-13.5 -46 -13.5 -102 q0 -16 1.5 -42 q1.5 -26 10 -56 q8.5 -30 26 -60.5 q17.5 -30.5 49.5 -55.5 q32 -25 81 -40.5 q49 -15.5 120 -15.5 l133 0 ZM185 1280 l604 0 l0 -102 l-604 0 l0 102 Z" /><glyph glyph-name="emacron" unicode="&#x113;" d="M502 961 q102 0 172.5 -37.5 q70.5 -37.5 115 -101.5 q44.5 -64 64 -147.5 q19.5 -83.5 19.5 -176.5 l0 -47 l-616 0 q0 -56 18 -121 q18 -65 58.5 -120 q40.5 -55 105 -91.5 q64.5 -36.5 158.5 -36.5 l208 0 l0 -82 l-211 0 q-140 0 -241.5 32 q-101.5 32 -167 93 q-65.5 61 -96.5 149 q-31 88 -31 201 q0 94 29.5 182 q29.5 88 86 155.5 q56.5 67.5 139 108 q82.5 40.5 189.5 40.5 ZM492 870 q-62 0 -106 -28 q-44 -28 -72.5 -74.5 q-28.5 -46.5 -42 -108 q-13.5 -61.5 -14.5 -127.5 l423 0 l0 43 q-2 58 -10.5 111 q-8.5 53 -29.5 94 q-21 41 -56.5 65.5 q-35.5 24.5 -91.5 24.5 ZM158 1280 l604 0 l0 -102 l-604 0 l0 102 Z" /><glyph glyph-name="umacron" unicode="&#x16b;" d="M674 78 q-65 -28 -119 -46.5 q-54 -18.5 -100.5 -29.5 q-46.5 -11 -87.5 -15.5 q-41 -4.5 -78 -4.5 q-94 0 -143.5 48.5 q-49.5 48.5 -49.5 157.5 l0 754 l203 0 l0 -723 q0 -23 4.5 -45.5 q4.5 -22.5 16 -40.5 q11.5 -18 31.5 -29.5 q20 -11.5 52 -11.5 q51 0 118.5 12.5 q67.5 12.5 152.5 51.5 l0 786 l202 0 l0 -942 l-202 0 l0 78 ZM187 1280 l604 0 l0 -102 l-604 0 l0 102 Z" /><glyph glyph-name="uni02BB" unicode="&#x2bb;" d="M328 1155 l-203 0 l0 160 q0 40 15 72 q15 32 41.5 54.5 q26.5 22.5 61.5 34 q35 11.5 75 11.5 l98 0 l0 -90 q-29 0 -46.5 -1.5 q-17.5 -1.5 -26.5 -9.5 q-9 -8 -12 -24.5 q-3 -16.5 -3 -46.5 l0 -160 Z" /><glyph glyph-name="uni02BC" unicode="&#x2bc;" d="M164 1487 l203 0 l0 -160 q0 -40 -15 -72 q-15 -32 -41.5 -54.5 q-26.5 -22.5 -61.5 -34 q-35 -11.5 -75 -11.5 l-98 0 l0 90 q29 0 46.5 1.5 q17.5 1.5 26.5 9.5 q9 8 12 24.5 q3 16.5 3 46.5 l0 160 Z" /><glyph glyph-name="uni02BD" unicode="&#x2bd;" d="M326 1327 q0 -30 3 -46.5 q3 -16.5 12 -24.5 q9 -8 26.5 -9.5 q17.5 -1.5 46.5 -1.5 l0 -90 l-98 0 q-40 0 -75 11.5 q-35 11.5 -61.5 34 q-26.5 22.5 -41.5 54.5 q-15 32 -15 72 l0 160 l203 0 l0 -160 Z" /><glyph glyph-name="omacron" unicode="&#x14d;" d="M540 961 q103 0 193 -38.5 q90 -38.5 156.5 -105 q66.5 -66.5 104.5 -156 q38 -89.5 38 -190.5 q0 -102 -38 -191.5 q-38 -89.5 -104.5 -156 q-66.5 -66.5 -156.5 -105 q-90 -38.5 -193 -38.5 q-101 0 -189.5 38.5 q-88.5 38.5 -154.5 105 q-66 66.5 -104.5 156 q-38.5 89.5 -38.5 191.5 q0 101 38.5 190.5 q38.5 89.5 104.5 156 q66 66.5 154.5 105 q88.5 38.5 189.5 38.5 ZM538 870 q-78 0 -131.5 -30 q-53.5 -30 -86.5 -84 q-33 -54 -47.5 -128 q-14.5 -74 -14.5 -161 q0 -86 15 -159 q15 -73 48 -126.5 q33 -53.5 86.5 -83.5 q53.5 -30 130.5 -30 q77 0 131 30 q54 30 88.5 83.5 q34.5 53.5 50 126.5 q15.5 73 15.5 159 q0 87 -15.5 161 q-15.5 74 -50 128 q-34.5 54 -88.5 84 q-54 30 -131 30 ZM240 1280 l604 0 l0 -102 l-604 0 l0 102 Z" /><glyph glyph-name="uni04A1" unicode="&#x4a1;" d="M85 942 l462 0 l0 -387 l201 0 l241 387 l100 0 l-256 -423 l296 -519 l-196 0 l-269 467 l-117 0 l0 -467 l-189 0 l0 867 l-179 0 l0 -209 l-94 0 l0 284 Z" /><glyph glyph-name="uni04BB" unicode="&#x4bb;" d="M369 864 q64 28 118 46.5 q54 18.5 101 30 q47 11.5 87.5 16 q40.5 4.5 78.5 4.5 q94 0 143.5 -49 q49.5 -49 49.5 -158 l0 -754 l-203 0 l0 723 q0 22 -4.5 45 q-4.5 23 -16 41 q-11.5 18 -32 29.5 q-20.5 11.5 -51.5 11.5 q-51 0 -118.5 -12.5 q-67.5 -12.5 -152.5 -51.5 l0 -786 l-202 0 l0 1487 l202 0 l0 -623 Z" /><glyph glyph-name="afii10073.ss01" unicode="&#x499;" d="M506 753 q0 32 -14 55 q-14 23 -37.5 37.5 q-23.5 14.5 -54 21 q-30.5 6.5 -64.5 6.5 q-35 0 -68.5 -7 q-33.5 -7 -64.5 -18.5 q-31 -11.5 -60 -25.5 q-29 -14 -56 -27 l-42 59 q58 43 142.5 75 q84.5 32 194.5 32 q66 0 124 -12 q58 -12 101.5 -37 q43.5 -25 69 -62 q25.5 -37 25.5 -86 q0 -39 -18 -72.5 q-18 -33.5 -51 -61.5 q-33 -28 -80 -49 q-47 -21 -106 -34 q60 -8 116 -28 q56 -20 100 -52.5 q44 -32.5 70.5 -78.5 q26.5 -46 26.5 -106 q0 -73 -31 -126 q-31 -53 -87.5 -87.5 q-56.5 -34.5 -134.5 -51.5 q-78 -17 -171 -17 l-78 0 l0 -61 q52 0 90 -14 q38 -14 63 -37.5 q25 -23.5 37.5 -53 q12.5 -29.5 12.5 -59.5 q0 -49 -32.5 -85.5 q-32.5 -36.5 -82 -61 q-49.5 -24.5 -109 -36.5 q-59.5 -12 -112.5 -12 l0 53 q33 4 67 13 q34 9 61.5 25.5 q27.5 16.5 44.5 42.5 q17 26 17 64 q0 20 -7 39.5 q-7 19.5 -24 34.5 q-17 15 -45 24.5 q-28 9.5 -70 9.5 l0 114 l-130 0 l0 88 l286 0 q50 0 91.5 11.5 q41.5 11.5 71.5 36 q30 24.5 47 62 q17 37.5 17 89.5 q0 67 -28 108 q-28 41 -75 64 q-47 23 -109 31 q-62 8 -130 8 l0 88 q68 3 123 12 q55 9 93.5 28 q38.5 19 59 50 q20.5 31 20.5 77 Z" /><glyph glyph-name="uni04D9" unicode="&#x4d9;" d="M443 0 q-102 0 -172.5 37.5 q-70.5 37.5 -115 101.5 q-44.5 64 -64 147.5 q-19.5 83.5 -19.5 176.5 l0 47 l616 0 q0 56 -18 121 q-18 65 -58.5 120 q-40.5 55 -105 91.5 q-64.5 36.5 -158.5 36.5 l-208 0 l0 82 l211 0 q140 0 241.5 -32 q101.5 -32 167 -93 q65.5 -61 96.5 -149 q31 -88 31 -201 q0 -94 -29.5 -182 q-29.5 -88 -86 -155.5 q-56.5 -67.5 -139 -108 q-82.5 -40.5 -189.5 -40.5 ZM453 91 q62 0 106 28 q44 28 72.5 74.5 q28.5 46.5 42 108 q13.5 61.5 14.5 127.5 l-423 0 l0 -43 q2 -58 10.5 -111 q8.5 -53 29.5 -94 q21 -41 56.5 -65.5 q35.5 -24.5 91.5 -24.5 Z" /><glyph glyph-name="afii10037" unicode="&#x423;" d="M312 1487 l439 -765 l331 765 l140 0 l-671 -1487 l-140 0 l221 482 l-590 1005 l270 0 Z" /><glyph glyph-name="uni04AB" unicode="&#x4ab;" d="M766 784 q-52 42 -105 63 q-53 21 -122 21 q-75 0 -132.5 -29 q-57.5 -29 -96.5 -78.5 q-39 -49.5 -59.5 -114.5 q-20.5 -65 -20.5 -138 q0 -34 4.5 -78.5 q4.5 -44.5 18.5 -92 q14 -47.5 40.5 -93 q26.5 -45.5 70 -82 q43.5 -36.5 108 -58.5 q64.5 -22 153.5 -22 l149 0 l0 -82 l-149 0 q-44 0 -83 2 l0 -63 q46 0 84 -12.5 q38 -12.5 64 -35 q26 -22.5 40.5 -52.5 q14.5 -30 14.5 -66 q0 -47 -31.5 -83 q-31.5 -36 -80.5 -60.5 q-49 -24.5 -108.5 -37 q-59.5 -12.5 -115.5 -12.5 l0 53 q36 4 70 13.5 q34 9.5 61 26.5 q27 17 43 42.5 q16 25.5 16 60.5 q0 54 -37 82 q-37 28 -109 28 l0 125 q-20 4 -38 7 q-90 19 -156.5 52 q-66.5 33 -111 79.5 q-44.5 46.5 -71.5 103 q-27 56.5 -38 120.5 q-11 64 -11 133 q0 91 32.5 173.5 q32.5 82.5 97 145 q64.5 62.5 160 99.5 q95.5 37 222.5 37 q31 0 66 -7 q35 -7 70 -20.5 q35 -13.5 69.5 -34 q34.5 -20.5 64.5 -47.5 l-43 -68 Z" /><glyph glyph-name="afii10047" unicode="&#x42d;" d="M424 837 l836 0 q-14 125 -61 229 q-47 104 -122 178.5 q-75 74.5 -175 116 q-100 41.5 -219 41.5 q-79 0 -155 -21.5 q-76 -21.5 -144 -56.5 q-68 -35 -126 -79 q-58 -44 -100 -90 l-79 75 q58 61 131 113.5 q73 52.5 157 90.5 q84 38 176.5 60 q92.5 22 190.5 22 q113 0 215 -26 q102 -26 189 -74.5 q87 -48.5 156.5 -117.5 q69.5 -69 119 -155.5 q49.5 -86.5 76 -188 q26.5 -101.5 26.5 -215.5 q0 -169 -61.5 -310 q-61.5 -141 -168 -243 q-106.5 -102 -248.5 -159 q-142 -57 -304 -57 q-113 0 -209.5 27 q-96.5 27 -178 74.5 q-81.5 47.5 -148 112 q-66.5 64.5 -119.5 139.5 l89 58 q50 -59 103.5 -110.5 q53.5 -51.5 115 -90 q61.5 -38.5 134.5 -61 q73 -22.5 162 -22.5 q111 0 215 44 q104 44 184.5 124.5 q80.5 80.5 130.5 195 q50 114.5 54 255.5 l-843 0 l0 121 Z" /><glyph glyph-name="uni0445" unicode="&#x445;" d="M585 557 l347 -557 l-216 0 l-241 387 l-244 -387 l-107 0 l298 472 l-292 470 l216 0 l186 -299 l189 299 l106 0 l-242 -385 Z" /><glyph glyph-name="uni0420" unicode="&#x420;" d="M386 391 l0 -391 l-219 0 l0 1487 l372 0 q157 0 269 -26.5 q112 -26.5 188 -70.5 q76 -44 122 -101.5 q46 -57.5 70 -119 q24 -61.5 31.5 -123 q7.5 -61.5 7.5 -114.5 q0 -52 -8.5 -112.5 q-8.5 -60.5 -34 -120.5 q-25.5 -60 -72 -115.5 q-46.5 -55.5 -123 -98.5 q-76.5 -43 -187 -68.5 q-110.5 -25.5 -263.5 -25.5 l-153 0 ZM386 1389 l0 -900 l123 0 q111 0 201 25 q90 25 153.5 80 q63.5 55 97.5 140.5 q34 85.5 34 207.5 q0 93 -17.5 162.5 q-17.5 69.5 -49.5 119 q-32 49.5 -76.5 81.5 q-44.5 32 -98 51 q-53.5 19 -114.5 26 q-61 7 -126 7 l-127 0 Z" /><glyph glyph-name="uni0412" unicode="&#x412;" d="M167 0 l0 1487 l465 0 q120 0 206.5 -22 q86.5 -22 142 -63 q55.5 -41 82 -99 q26.5 -58 26.5 -129 q0 -47 -17 -92 q-17 -45 -56 -82.5 q-39 -37.5 -104 -65 q-65 -27.5 -161 -39.5 l0 -2 q236 -34 348.5 -148.5 q112.5 -114.5 112.5 -300.5 q0 -93 -30 -174 q-30 -81 -97.5 -141 q-67.5 -60 -176.5 -94.5 q-109 -34.5 -268 -34.5 l-473 0 ZM386 840 l0 -742 l197 0 q93 0 165 24 q72 24 120.5 70 q48.5 46 74 112 q25.5 66 25.5 149 q0 100 -36.5 173.5 q-36.5 73.5 -104 120.5 q-67.5 47 -163.5 70 q-96 23 -214 23 l-64 0 ZM386 1389 l0 -451 l150 0 q69 0 128 12.5 q59 12.5 102.5 40 q43.5 27.5 68.5 72.5 q25 45 25 111 q0 61 -22.5 102.5 q-22.5 41.5 -64.5 66.5 q-42 25 -102 35.5 q-60 10.5 -135 10.5 l-150 0 Z" /><glyph glyph-name="afii10042" unicode="&#x428;" d="M1135 1487 l0 -1385 l544 0 l0 1385 l212 0 l0 -1487 l-1724 0 l0 1487 l212 0 l0 -1385 l544 0 l0 1385 l212 0 Z" /><glyph glyph-name="afii10092" unicode="&#x44a;" d="M546 942 l0 -404 q84 57 175 86 q91 29 168 29 q57 0 111.5 -18 q54.5 -18 97 -55 q42.5 -37 69 -93 q26.5 -56 26.5 -131 q0 -80 -33.5 -145.5 q-33.5 -65.5 -93 -112 q-59.5 -46.5 -140 -72.5 q-80.5 -26 -173.5 -26 l-398 0 l0 854 l-301 0 l0 88 l492 0 ZM791 533 q-22 0 -51 -4.5 q-29 -4.5 -62 -14 q-33 -9.5 -67 -25 q-34 -15.5 -65 -37.5 l0 -368 l145 0 q153 0 222.5 64 q69.5 64 69.5 189 q0 42 -12.5 77.5 q-12.5 35.5 -36.5 62 q-24 26.5 -60 41.5 q-36 15 -83 15 Z" /><glyph glyph-name="afii10091" unicode="&#x449;" d="M71 942 l189 0 l0 -822 l293 0 l0 822 l189 0 l0 -822 l292 0 l0 822 l189 0 l0 -858 l128 0 l0 -278 l-112 0 l0 194 l-1168 0 l0 942 Z" /><glyph glyph-name="uni01B7" unicode="&#x1b7;" d="M457 919 l339 368 l-673 0 l0 200 l1027 0 l-490 -532 q20 2 38.5 3 q18.5 1 35.5 1 q80 0 155 -27.5 q75 -27.5 133 -79.5 q58 -52 93 -127 q35 -75 35 -170 q0 -113 -35.5 -205 q-35.5 -92 -97 -161.5 q-61.5 -69.5 -144 -115 q-82.5 -45.5 -176.5 -64.5 q-94 -19 -194 -10 q-100 9 -197 48 q-58 25 -109.5 59 q-51.5 34 -98.5 76 l0 191 q77 -81 167 -134.5 q90 -53.5 179.5 -76.5 q89.5 -23 173 -13.5 q83.5 9.5 147.5 54.5 q64 45 102.5 127.5 q38.5 82.5 38.5 205.5 q0 66 -22 121 q-22 55 -61 94 q-39 39 -92 60.5 q-53 21.5 -114 21.5 q-47 0 -73 -4 q-26 -4 -47 -8 l-40 98 Z" /><glyph glyph-name="uni0292" unicode="&#x292;" d="M208 501 l234 287 l-366 0 l0 156 l672 0 l-363 -414 l25 -12 q25 -6 54 -13 q63 -11 120.5 -37 q57.5 -26 100.5 -64.5 q43 -38.5 68.5 -89 q25.5 -50.5 25.5 -111.5 q0 -74 -25.5 -138.5 q-25.5 -64.5 -69.5 -120.5 q-44 -56 -104 -104 q-60 -48 -129 -89 q-69 -41 -144.5 -75.5 q-75.5 -34.5 -150.5 -62.5 l-33 88 q98 43 180 96.5 q82 53.5 141 116.5 q59 63 92 135.5 q33 72.5 33 153.5 q0 78 -27.5 127.5 q-27.5 49.5 -74.5 77.5 q-47 28 -109 38 l-13 2 l-137 53 Z" /><glyph glyph-name="uni05E6" unicode="&#x5e6;" d="M284 1140 q2 -14 4.5 -26.5 q2.5 -12.5 12.5 -25.5 q10 -13 29 -27 q19 -14 54 -30 q51 -24 76.5 -41.5 q25.5 -17.5 25.5 -46.5 q0 -19 -15 -52.5 q-15 -33.5 -32 -78.5 q-11 -27 -15.5 -49 q-4.5 -22 -4.5 -45 q0 -24 14.5 -52.5 q14.5 -28.5 40 -61 q25.5 -32.5 60 -67.5 q34.5 -35 73.5 -71 q38 31 74.5 72 q36.5 41 64.5 82 q28 41 45 77 q17 36 17 57 q0 23 -14 40 q-14 17 -43 40 q-30 24 -49 40 q-19 16 -30 29.5 q-11 13.5 -15.5 26 q-4.5 12.5 -4.5 29.5 q0 18 13 42 q13 24 32 49.5 q19 25.5 41 50.5 q22 25 40 45 q7 2 19.5 -0.5 q12.5 -2.5 22.5 -6.5 q-3 -22 -1 -37.5 q2 -15.5 12 -29.5 q10 -14 29.5 -30.5 q19.5 -16.5 51.5 -40.5 q51 -38 76 -64 q25 -26 25 -58 q0 -20 -14 -52.5 q-14 -32.5 -38 -73 q-24 -40.5 -56.5 -86.5 q-32.5 -46 -69.5 -92.5 q-37 -46.5 -77 -91 q-40 -44.5 -79 -82.5 q38 -34 76.5 -64.5 q38.5 -30.5 73 -56.5 q34.5 -26 64 -46.5 q29.5 -20.5 50.5 -34.5 q4 -3 2 -8 q-6 -16 -14.5 -40 q-8.5 -24 -17.5 -50.5 q-9 -26.5 -17 -52.5 q-8 -26 -13 -46 q-1 -4 -4 -5.5 q-3 -1.5 -6 -1.5 q-45 0 -107 1 q-62 1 -127 1.5 q-65 0.5 -126.5 1.5 q-61.5 1 -107.5 1 l-58 0 q-29 0 -51.5 -1 q-22.5 -1 -42 -4.5 q-19.5 -3.5 -37.5 -9 q-18 -5.5 -39 -14.5 q-11 2 -22 6 q-11 4 -18 12 q10 34 26.5 73 q16.5 39 37.5 84 q12 27 44.5 47 q32.5 20 92.5 20 q9 0 38 -0.5 q29 -0.5 67 -1 q38 -0.5 79 -1.5 q41 -1 73 -2 q7 0 20.5 -0.5 q13.5 -0.5 28.5 -1.5 q15 -1 29 -2 q14 -1 23 -2 q-7 6 -17 14 q-10 8 -21 17 q-11 9 -21 17 q-10 8 -17 14 q-83 75 -141.5 132.5 q-58.5 57.5 -95.5 103.5 q-37 46 -54 83.5 q-17 37.5 -17 73.5 q0 29 2.5 55 q2.5 26 10.5 61 q2 11 -14.5 21.5 q-16.5 10.5 -64.5 35.5 q-34 18 -55 31.5 q-21 13.5 -33 25.5 q-12 12 -16 24.5 q-4 12.5 -4 27.5 q0 16 9.5 42 q9.5 26 24.5 55 q15 29 32.5 58 q17.5 29 33.5 50 q2 1 8.5 1.5 q6.5 0.5 14 -0.5 q7.5 -1 14 -2 q6.5 -1 9.5 -3 Z" /><glyph glyph-name="uni05E7" unicode="&#x5e7;" d="M227 1137 q13 -29 27.5 -45.5 q14.5 -16.5 33.5 -25 q19 -8.5 44 -11 q25 -2.5 59 -2.5 l428 0 q69 0 117 -24.5 q48 -24.5 77 -66.5 q29 -42 42 -98.5 q13 -56.5 13 -120.5 q0 -86 -16.5 -168.5 q-16.5 -82.5 -42 -155.5 q-25.5 -73 -57.5 -131.5 q-32 -58.5 -63 -95.5 q-42 -51 -125.5 -99 q-83.5 -48 -209.5 -109 q-23 3 -41 11 q22 111 57 220 q121 48 190 84.5 q69 36.5 99 68.5 q22 24 38.5 56.5 q16.5 32.5 27.5 69.5 q11 37 16.5 76.5 q5.5 39.5 5.5 77.5 q0 37 -8 70 q-8 33 -25.5 58 q-17.5 25 -44.5 39.5 q-27 14.5 -66 14.5 l-484 0 q-36 0 -70 3 q-34 3 -60.5 14 q-26.5 11 -42.5 32 q-16 21 -16 56 q0 9 3.5 28 q3.5 19 10.5 44.5 q7 25.5 16.5 57 q9.5 31.5 21.5 64.5 q10 5 22 7 q12 2 23 1 ZM348 627 q-11 -51 -14.5 -99 q-3.5 -48 -3.5 -99 q0 -112 6.5 -269 q6.5 -157 24.5 -346 q2 -14 3 -27 q1 -13 1 -26 q0 -14 -3.5 -27 q-3.5 -13 -14.5 -24 q-49 -52 -89 -104 q-27 -3 -53 0 q-1 9 -1.5 32.5 q-0.5 23.5 -1 56.5 q-0.5 33 -0.5 75 q0 41 0 88 q0 61 0.5 143.5 q0.5 82.5 2 170 q1.5 87.5 3.5 172 q2 84.5 4 150.5 q1 24 14 43 q21 30 39.5 53 q18.5 23 44.5 50 q20 -3 38 -13 Z" /><glyph glyph-name="uni05B5" unicode="&#x5b5;" d="M478 -333 q-35 0 -58.5 23.5 q-23.5 23.5 -23.5 58.5 q0 35 23.5 58.5 q23.5 23.5 58.5 23.5 q35 0 58.5 -23.5 q23.5 -23.5 23.5 -58.5 q0 -35 -23.5 -58.5 q-23.5 -23.5 -58.5 -23.5 ZM224 -333 q-35 0 -58.5 23.5 q-23.5 23.5 -23.5 58.5 q0 35 23.5 58.5 q23.5 23.5 58.5 23.5 q35 0 58.5 -23.5 q23.5 -23.5 23.5 -58.5 q0 -35 -23.5 -58.5 q-23.5 -23.5 -58.5 -23.5 Z" /><glyph glyph-name="uni05B6" unicode="&#x5b6;" d="M500 -251 q0 -35 -23.5 -58.5 q-23.5 -23.5 -58.5 -23.5 q-35 0 -58.5 23.5 q-23.5 23.5 -23.5 58.5 q0 35 23.5 58.5 q23.5 23.5 58.5 23.5 q35 0 58.5 -23.5 q23.5 -23.5 23.5 -58.5 ZM361 -495 q0 -35 -23.5 -58.5 q-23.5 -23.5 -58.5 -23.5 q-35 0 -58.5 23.5 q-23.5 23.5 -23.5 58.5 q0 35 23.5 58.5 q23.5 23.5 58.5 23.5 q35 0 58.5 -23.5 q23.5 -23.5 23.5 -58.5 ZM222 -251 q0 -35 -23.5 -58.5 q-23.5 -23.5 -58.5 -23.5 q-35 0 -58.5 23.5 q-23.5 23.5 -23.5 58.5 q0 35 23.5 58.5 q23.5 23.5 58.5 23.5 q35 0 58.5 -23.5 q23.5 -23.5 23.5 -58.5 Z" /><glyph glyph-name="uni05B7" unicode="&#x5b7;" d="M518 -288 l-357 0 l9 94 l357 0 l-9 -94 Z" /><glyph glyph-name="uni05B8" unicode="&#x5b8;" d="M270 -288 q-2 -10 -2 -16 q0 -6 0 -13 q0 -26 3 -45.5 q3 -19.5 8 -34.5 q5 -15 11 -26 q6 -11 12 -20 q9 -14 16 -28 q7 -14 7 -35 q0 -32 -20.5 -56.5 q-20.5 -24.5 -60.5 -24.5 q-40 0 -60.5 24.5 q-20.5 24.5 -20.5 56.5 q0 21 7 35 q7 14 16 28 q6 9 12 20 q6 11 11 26 q5 15 8 34.5 q3 19.5 3 45.5 q0 7 0 13 q0 6 -2 16 l-157 0 l9 94 l357 0 l-9 -94 l-148 0 Z" /><glyph glyph-name="uni05B9" unicode="&#x5b9;" d="M105 1304 q0 35 23.5 58.5 q23.5 23.5 58.5 23.5 q35 0 58.5 -23.5 q23.5 -23.5 23.5 -58.5 q0 -35 -23.5 -58.5 q-23.5 -23.5 -58.5 -23.5 q-35 0 -58.5 23.5 q-23.5 23.5 -23.5 58.5 Z" /><glyph glyph-name="uni05D0" unicode="&#x5d0;" d="M416 -7 q-23 17 -44.5 26.5 q-21.5 9.5 -51.5 9.5 q-32 0 -74.5 -11.5 q-42.5 -11.5 -108.5 -34.5 q-7 7 -14.5 19 q-7.5 12 -10.5 25 q31 24 69.5 51 q38.5 27 83.5 55 q-35 38 -59 70 q-24 32 -39 59.5 q-15 27.5 -21.5 53.5 q-6.5 26 -6.5 52 q0 32 9.5 66.5 q9.5 34.5 30 75 q20.5 40.5 52.5 88 q32 47.5 77 106.5 q-28 30 -52.5 55 q-24.5 25 -43 48 q-18.5 23 -29 44.5 q-10.5 21.5 -10.5 45.5 q0 29 13 56 q23 48 48.5 91.5 q25.5 43.5 51.5 88.5 q11 3 25 1.5 q14 -1.5 25 -6.5 q-1 -8 -1 -17 q0 -9 0 -16 q0 -21 3 -40.5 q3 -19.5 11 -39.5 q8 -20 22 -42 q14 -22 37 -48 q42 -45 89.5 -92.5 q47.5 -47.5 96.5 -94 q49 -46.5 98 -91 q49 -44.5 94 -85.5 q32 34 54.5 60.5 q22.5 26.5 37 46.5 q14.5 20 21 36 q6.5 16 6.5 31 q0 23 -15.5 43.5 q-15.5 20.5 -52.5 52.5 q-30 26 -49 44 q-19 18 -29.5 32.5 q-10.5 14.5 -14 26.5 q-3.5 12 -3.5 26 q0 24 29.5 67.5 q29.5 43.5 101.5 109.5 q8 2 21 -2 q13 -4 23 -9 q-1 -10 -1.5 -17 q-0.5 -7 -0.5 -13 q0 -11 3 -20 q3 -9 12 -19.5 q9 -10.5 25 -25.5 q16 -15 42 -38 q58 -52 81 -82.5 q23 -30.5 23 -55.5 q0 -19 -8.5 -47 q-8.5 -28 -35.5 -69.5 q-27 -41.5 -76.5 -99.5 q-49.5 -58 -131.5 -137 q43 -39 73.5 -67.5 q30.5 -28.5 52.5 -49.5 q22 -21 37.5 -36 q15.5 -15 28.5 -27 q39 -36 60 -65 q21 -29 21 -52 q0 -18 -8 -37 q-20 -46 -38 -90 q-18 -44 -37 -93 q-25 -2 -44 3 q-15 40 -35.5 74 q-20.5 34 -44 64 q-23.5 30 -49.5 57 q-26 27 -52 53 q-53 52 -114.5 110 q-61.5 58 -121.5 113 q-60 55 -113.5 103 q-53.5 48 -91.5 81 q-44 -58 -58.5 -99.5 q-14.5 -41.5 -14.5 -78.5 q0 -30 13.5 -61 q13.5 -31 43 -68 q29.5 -37 76.5 -82 q47 -45 115 -105 q2 -5 0 -10 l-131 -147 Z" /><glyph glyph-name="uni05D1" unicode="&#x5d1;" d="M281 1137 q13 -29 27.5 -45.5 q14.5 -16.5 33.5 -25 q19 -8.5 44 -11 q25 -2.5 59 -2.5 l286 0 q64 0 106.5 -14.5 q42.5 -14.5 67 -40 q24.5 -25.5 34.5 -60.5 q10 -35 10 -75 q0 -35 -2 -65 q-2 -30 -4.5 -61 q-2.5 -31 -4.5 -64 q-2 -33 -2 -73 q0 -11 0.5 -38 q0.5 -27 2 -61.5 q1.5 -34.5 4.5 -73.5 q3 -39 9 -75.5 q6 -36.5 14.5 -66 q8.5 -29.5 21.5 -45.5 q16 -20 40.5 -26.5 q24.5 -6.5 62.5 -6.5 q4 0 3 -6 q-16 -51 -29 -97 q-13 -46 -25 -97 q-1 -4 -4 -5.5 q-3 -1.5 -6 -1.5 l-655 0 q-36 0 -63.5 -0.5 q-27.5 -0.5 -51.5 -3 q-24 -2.5 -45.5 -8.5 q-21.5 -6 -45.5 -17 q-11 2 -22 6 q-11 4 -18 12 q8 34 22.5 77.5 q14.5 43.5 32.5 88.5 q11 28 43 46 q32 18 97 18 l512 0 q-8 54 -11 102 q-3 48 -3 95 q0 37 1.5 77 q1.5 40 4 78 q2.5 38 4 71.5 q1.5 33.5 1.5 57.5 q0 29 -6.5 53 q-6.5 24 -24 41 q-17.5 17 -46.5 26.5 q-29 9.5 -74 9.5 l-309 0 q-36 0 -70 3 q-34 3 -60.5 14 q-26.5 11 -42.5 32 q-16 21 -16 56 q0 9 3.5 28 q3.5 19 10.5 44.5 q7 25.5 16.5 57 q9.5 31.5 21.5 64.5 q10 5 22 7 q12 2 23 1 Z" /><glyph glyph-name="uni05D2" unicode="&#x5d2;" d="M379 1144 q4 -25 12 -41 q8 -16 23 -28 q15 -12 39.5 -22 q24.5 -10 61.5 -24 q40 -14 65.5 -27.5 q25.5 -13.5 40.5 -26.5 q15 -13 21 -26 q6 -13 6 -28 q0 -21 -7.5 -41.5 q-7.5 -20.5 -22.5 -53.5 q-15 -33 -25.5 -57 q-10.5 -24 -16.5 -47 q-6 -23 -9 -48.5 q-3 -25.5 -3 -60.5 q0 -56 17 -117.5 q17 -61.5 41 -119.5 q24 -58 48.5 -107.5 q24.5 -49.5 39.5 -80.5 q4 -8 5 -13 q1 -5 1 -10 q0 -7 -6 -19 q-25 -45 -45 -85.5 q-20 -40.5 -37 -80.5 q-29 -3 -57 0 q-17 113 -34.5 187.5 q-17.5 74.5 -36.5 133.5 q-14 -24 -26 -48 q-12 -24 -23 -51 q-11 -27 -22 -58 q-11 -31 -23 -69 q-5 -15 -14 -20 q-9 -5 -24 -10 q-34 -9 -74 -20.5 q-40 -11.5 -78 -23 q-38 -11.5 -70.5 -22 q-32.5 -10.5 -52.5 -18.5 q-11 -2 -24 2 q-13 4 -21 10 q11 38 21.5 79.5 q10.5 41.5 24.5 86.5 q8 29 19 46 q11 17 38 25 q70 21 122 34.5 q52 13.5 89.5 31 q37.5 17.5 64 43.5 q26.5 26 45.5 71 q-9 39 -13 79 q-4 40 -4 91 q0 32 4.5 64.5 q4.5 32.5 9.5 60.5 q5 23 8 42 q3 19 3 31 q0 22 -20.5 33 q-20.5 11 -53.5 23 q-38 14 -68 26.5 q-30 12.5 -51 27 q-21 14.5 -32 32.5 q-11 18 -9 43 q1 13 9.5 38.5 q8.5 25.5 21 54.5 q12.5 29 27.5 57.5 q15 28.5 29 48.5 q7 4 21 4 q7 0 13.5 -0.5 q6.5 -0.5 11.5 -1.5 Z" /><glyph glyph-name="uni05D3" unicode="&#x5d3;" d="M858 842 q-72 0 -101 -36 q-29 -36 -29 -109 q0 -51 2.5 -104.5 q2.5 -53.5 7 -106.5 q4.5 -53 10.5 -104.5 q6 -51.5 13 -97.5 q6 -41 11.5 -80.5 q5.5 -39.5 5.5 -56.5 q0 -28 -18 -50 q-22 -28 -43.5 -58 q-21.5 -30 -40.5 -59 q-28 -3 -55 0 q-7 64 -9.5 145.5 q-2.5 81.5 -2.5 171.5 q0 78 1.5 157 q1.5 79 4 150 q2.5 71 5.5 129.5 q3 58.5 6 96.5 l-430 0 q-36 0 -70 3 q-34 3 -60.5 14 q-26.5 11 -42.5 32 q-16 21 -16 56 q0 9 3.5 28 q3.5 19 10.5 44.5 q7 25.5 16.5 57 q9.5 31.5 21.5 64.5 q10 5 22 7 q12 2 23 1 q13 -29 27.5 -45.5 q14.5 -16.5 33.5 -25 q19 -8.5 44 -11 q25 -2.5 59 -2.5 l641 0 q6 0 5 -7 q-15 -55 -26 -100 q-11 -45 -22 -97 q-1 -7 -8 -7 Z" /><glyph glyph-name="uni05D4" unicode="&#x5d4;" d="M368 564 q-7 -25 -12 -44 q-5 -19 -8 -36 q-3 -17 -4.5 -34 q-1.5 -17 -2.5 -37 l-8 -308 q0 -9 -1.5 -17 q-1.5 -8 -8.5 -13 q-16 -12 -33 -25.5 q-17 -13.5 -32.5 -26 q-15.5 -12.5 -29 -24 q-13.5 -11.5 -22.5 -19.5 q-25 -3 -49 0 l31 380 q4 51 20.5 93.5 q16.5 42.5 38.5 65.5 q11 12 31.5 29.5 q20.5 17.5 43.5 31.5 q10 -2 24 -6 q14 -4 22 -10 ZM247 1137 q13 -29 27.5 -45.5 q14.5 -16.5 33.5 -25 q19 -8.5 44 -11 q25 -2.5 59 -2.5 l411 0 q63 0 105.5 -9 q42.5 -9 68 -26.5 q25.5 -17.5 36 -44 q10.5 -26.5 10.5 -61.5 q0 -34 -10.5 -74.5 q-10.5 -40.5 -22.5 -88.5 q0 -148 13 -263.5 q13 -115.5 25 -203.5 q6 -42 11 -77 q5 -35 5 -55 q0 -19 -4 -30 q-4 -11 -13 -23 q-21 -29 -40 -58 q-19 -29 -36 -59 q-28 -3 -55 0 q-3 19 -6.5 55 q-3.5 36 -6.5 77.5 q-3 41.5 -5 82.5 q-2 41 -2 71 q0 87 0.5 150 q0.5 63 1.5 107.5 q1 44.5 2 74.5 q1 30 2 52 q1 27 1.5 48 q0.5 21 0.5 48 q0 24 -3 40 q-3 16 -13.5 26 q-10.5 10 -31.5 14 q-21 4 -56 4 l-460 0 q-36 0 -70 3 q-34 3 -60.5 14 q-26.5 11 -42.5 32 q-16 21 -16 56 q0 9 3.5 28 q3.5 19 10.5 44.5 q7 25.5 16.5 57 q9.5 31.5 21.5 64.5 q10 5 22 7 q12 2 23 1 Z" /><glyph glyph-name="uni05D5" unicode="&#x5d5;" d="M259 -20 q-2 20 -4 56.5 q-2 36.5 -4 78 q-2 41.5 -3 83.5 q-1 42 -1 72 q0 103 3 176.5 q3 73.5 7 128.5 q4 55 7 97 q3 42 3 82 q0 15 -7 24.5 q-7 9.5 -19 16 q-12 6.5 -27.5 10.5 q-15.5 4 -31.5 9 q-39 11 -70.5 20.5 q-31.5 9.5 -54.5 22 q-23 12.5 -35.5 29.5 q-12.5 17 -12.5 42 q0 14 6.5 40.5 q6.5 26.5 17 57 q10.5 30.5 23.5 60.5 q13 30 25 51 q8 5 21.5 5.5 q13.5 0.5 24.5 -1.5 q6 -24 16.5 -39.5 q10.5 -15.5 28.5 -26.5 q18 -11 44 -19 q26 -8 64 -18 q34 -9 56 -17 q22 -8 34 -16.5 q12 -8.5 16.5 -18.5 q4.5 -10 4.5 -22 q0 -8 -3 -26.5 q-3 -18.5 -6 -39.5 q-5 -34 -10.5 -82.5 q-5.5 -48.5 -5.5 -123.5 q0 -105 9.5 -208.5 q9.5 -103.5 23.5 -197.5 q6 -42 11 -79 q5 -37 5 -57 q0 -19 -4 -30 q-4 -11 -13 -23 q-22 -29 -44.5 -60 q-22.5 -31 -39.5 -57 q-28 -3 -55 0 Z" /><glyph glyph-name="uni05D6" unicode="&#x5d6;" d="M165 1145 q4 -24 16.5 -40.5 q12.5 -16.5 31.5 -28.5 q19 -12 43.5 -20.5 q24.5 -8.5 53.5 -16.5 q27 -8 57.5 -17 q30.5 -9 60.5 -20 q30 -11 58 -25 q28 -14 51 -32 q7 -4 4 -13 q-9 -21 -19 -47 q-10 -26 -20 -53 q-10 -27 -19 -53 q-9 -26 -16 -47 q-2 -5 -7 -1 q-29 20 -56.5 33 q-27.5 13 -65.5 24 q-18 -108 -18 -219 q0 -104 16.5 -205.5 q16.5 -101.5 51.5 -197.5 q3 -8 5.5 -15 q2.5 -7 2.5 -15 q0 -14 -18 -38 q-23 -29 -45.5 -60.5 q-22.5 -31.5 -39.5 -57.5 q-14 -2 -23 -2 q-9 0 -23 2 q-26 91 -36 174.5 q-10 83.5 -10 158.5 q0 61 4 118.5 q4 57.5 9.5 108.5 q5.5 51 9.5 95.5 q4 44.5 4 80.5 q0 47 -9 75.5 q-9 28.5 -44 38.5 q-64 17 -96 39.5 q-32 22.5 -32 65.5 q0 14 6.5 40 q6.5 26 17 56 q10.5 30 23.5 59.5 q13 29.5 25 50.5 q8 5 21.5 5.5 q13.5 0.5 24.5 -1.5 Z" /><glyph glyph-name="uni05D7" unicode="&#x5d7;" d="M232 1137 q13 -29 27.5 -45.5 q14.5 -16.5 33.5 -25 q19 -8.5 44 -11 q25 -2.5 59 -2.5 l471 0 q63 0 105.5 -9 q42.5 -9 68 -26.5 q25.5 -17.5 36 -44 q10.5 -26.5 10.5 -61.5 q0 -34 -10.5 -74.5 q-10.5 -40.5 -22.5 -88.5 q0 -148 13 -263.5 q13 -115.5 25 -203.5 q6 -42 11 -77 q5 -35 5 -55 q0 -19 -4 -30 q-4 -11 -13 -23 q-21 -29 -40 -58 q-19 -29 -36 -59 q-28 -3 -55 0 q-3 19 -6.5 55 q-3.5 36 -6.5 77.5 q-3 41.5 -5 82.5 q-2 41 -2 71 q0 87 0.5 150 q0.5 63 1.5 107.5 q1 44.5 2 74.5 q1 30 2 52 q1 27 1.5 48 q0.5 21 0.5 48 q0 24 -3 40 q-3 16 -13.5 26 q-10.5 10 -31.5 14 q-21 4 -56 4 l-474 0 q-5 -78 -6.5 -156.5 q-1.5 -78.5 -1.5 -156.5 q0 -103 2 -205 q2 -102 4 -207 q0 -9 -1.5 -17 q-1.5 -8 -8.5 -13 q-15 -12 -32 -25.5 q-17 -13.5 -32.5 -26 q-15.5 -12.5 -29 -24 q-13.5 -11.5 -22.5 -19.5 q-25 -3 -49 0 q10 215 24 427.5 q14 212.5 48 423.5 q-29 2 -53.5 6.5 q-24.5 4.5 -42.5 15 q-18 10.5 -28 28.5 q-10 18 -10 47 q0 9 4 29 q4 20 11.5 47 q7.5 27 18 59.5 q10.5 32.5 22.5 65.5 q10 5 22 7 q12 2 23 1 Z" /><glyph glyph-name="uni05D8" unicode="&#x5d8;" d="M512 737 q7 26 18.5 65 q11.5 39 25 80 q13.5 41 27 80 q13.5 39 24.5 65 q16 24 38.5 40.5 q22.5 16.5 47 27.5 q24.5 11 49.5 16 q25 5 48 5 q58 0 104 -19 q46 -19 81.5 -51 q35.5 -32 60 -75.5 q24.5 -43.5 40.5 -92 q16 -48.5 23 -100 q7 -51.5 7 -100.5 q0 -50 -7 -107.5 q-7 -57.5 -21 -116 q-14 -58.5 -36 -115.5 q-22 -57 -51 -106 q-29 -49 -66.5 -88 q-37.5 -39 -82.5 -61 q-38 -18 -85 -34 q-47 -16 -99 -30 q-52 -14 -107 -27 q-55 -13 -108 -25 q-20 3 -34 7.5 q-14 4.5 -29 14.5 q-41 62 -75 143.5 q-34 81.5 -59 164 q-25 82.5 -38.5 155 q-13.5 72.5 -11.5 116.5 q0 23 5.5 50.5 q5.5 27.5 13.5 55 q8 27.5 17 53.5 q9 26 16 46 q4 8 4 17 q0 12 -12.5 21 q-12.5 9 -44.5 27 q-25 14 -46 26 q-21 12 -36 24 q-15 12 -23 26 q-8 14 -7 32 q0 16 9.5 40.5 q9.5 24.5 24.5 51.5 q15 27 32.5 53.5 q17.5 26.5 33.5 47.5 q8 2 20 2 q7 0 13 -0.5 q6 -0.5 9 -2.5 q2 -16 6 -27 q4 -11 16 -21.5 q12 -10.5 34.5 -23 q22.5 -12.5 61.5 -31.5 q43 -21 66 -41.5 q23 -20.5 22 -40.5 q0 -16 -10.5 -38.5 q-10.5 -22.5 -24.5 -50.5 q-10 -20 -23.5 -47.5 q-13.5 -27.5 -25.5 -58 q-12 -30.5 -20.5 -63.5 q-8.5 -33 -8.5 -65 q0 -28 8 -66.5 q8 -38.5 21 -82 q13 -43.5 30 -88 q17 -44.5 35 -83.5 q18 -39 36 -69.5 q18 -30.5 33 -45.5 q40 7 95.5 18.5 q55.5 11.5 111 26.5 q55.5 15 103.5 32 q48 17 72 36 q63 51 96.5 130 q33.5 79 33.5 164 q0 56 -15 107.5 q-15 51.5 -45.5 90.5 q-30.5 39 -76 62.5 q-45.5 23.5 -105.5 23.5 q-21 0 -46.5 -6.5 q-25.5 -6.5 -51 -25 q-25.5 -18.5 -49.5 -51.5 q-24 -33 -42 -85 q-14 3 -26.5 7 q-12.5 4 -23.5 11 Z" /><glyph glyph-name="uni05D9" unicode="&#x5d9;" d="M134 1153 q4 -27 13 -44 q9 -17 26.5 -29 q17.5 -12 44.5 -22 q27 -10 66 -22 q38 -12 67 -22.5 q29 -10.5 49 -24 q20 -13.5 30 -31 q10 -17.5 10 -42.5 q0 -60 -31.5 -172 q-31.5 -112 -99.5 -274 q-38 8 -68 24 q10 36 18 72 q8 36 14 68 q6 32 9 58.5 q3 26.5 3 43.5 q0 16 -4.5 27.5 q-4.5 11.5 -14.5 20.5 q-10 9 -26.5 17 q-16.5 8 -40.5 16 q-42 14 -75 25.5 q-33 11.5 -55.5 25 q-22.5 13.5 -34 31 q-11.5 17.5 -11.5 43.5 q0 17 6 43.5 q6 26.5 15.5 55.5 q9.5 29 21 57 q11.5 28 22.5 49 q8 5 21.5 5.5 q13.5 0.5 24.5 0.5 Z" /><glyph glyph-name="uni05DA" unicode="&#x5da;" d="M838 842 q-71 0 -99.5 -36 q-28.5 -36 -28.5 -109 q0 -116 4 -228.5 q4 -112.5 10.5 -213.5 q6.5 -101 14 -187 q7.5 -86 14.5 -150 q6 -57 10 -92 q4 -35 4 -44 q0 -19 -4 -30.5 q-4 -11.5 -13 -22.5 q-22 -28 -47 -61 q-25 -33 -44 -62 q-28 -3 -55 0 q-3 46 -5.5 122 q-2.5 76 -4.5 170 q-2 94 -3 199.5 q-1 105.5 -1 209.5 q0 83 1 162 q1 79 3.5 147.5 q2.5 68.5 5 123.5 q2.5 55 5.5 90 l-410 0 q-36 0 -70 3 q-34 3 -60.5 14 q-26.5 11 -42.5 32 q-16 21 -16 56 q0 9 3.5 28 q3.5 19 10.5 44.5 q7 25.5 16.5 57 q9.5 31.5 21.5 64.5 q10 5 22 7 q12 2 23 1 q13 -29 27.5 -45.5 q14.5 -16.5 33.5 -25 q19 -8.5 44 -11 q25 -2.5 59 -2.5 l624 0 q4 0 3 -6 q-15 -55 -26 -100.5 q-11 -45.5 -22 -97.5 q-1 -7 -8 -7 Z" /><glyph glyph-name="uni05DB" unicode="&#x5db;" d="M272 1137 q13 -29 27.5 -45.5 q14.5 -16.5 33.5 -25 q19 -8.5 44 -11 q25 -2.5 59 -2.5 l237 0 q73 0 132 -29 q59 -29 101 -90.5 q42 -61.5 64.5 -157.5 q22.5 -96 22.5 -229 q0 -66 -9.5 -141 q-9.5 -75 -24.5 -147.5 q-15 -72.5 -34 -137.5 q-19 -65 -38 -111 q-3 -7 -7.5 -8.5 q-4.5 -1.5 -12.5 -1.5 l-488 0 q-38 0 -66.5 -0.5 q-28.5 -0.5 -52.5 -3 q-24 -2.5 -45.5 -8.5 q-21.5 -6 -45.5 -17 q-11 2 -22 6 q-11 4 -18 12 q8 34 22.5 77.5 q14.5 43.5 32.5 88.5 q11 28 43.5 46 q32.5 18 100.5 18 l480 0 q12 0 16 7 q8 18 16 46.5 q8 28.5 14.5 63.5 q6.5 35 10.5 75.5 q4 40.5 4 82.5 q0 72 -14.5 133.5 q-14.5 61.5 -42.5 106.5 q-28 45 -69 70.5 q-41 25.5 -93 25.5 l-286 0 q-36 0 -70 3 q-34 3 -60.5 14 q-26.5 11 -42.5 32 q-16 21 -16 56 q0 9 3.5 28 q3.5 19 10.5 44.5 q7 25.5 16.5 57 q9.5 31.5 21.5 64.5 q10 5 22 7 q12 2 23 1 Z" /><glyph glyph-name="uni05DC" unicode="&#x5dc;" d="M436 233 q105 51 169 110.5 q64 59.5 99.5 120.5 q35.5 61 47.5 119.5 q12 58.5 12 108.5 q0 78 -34.5 108 q-34.5 30 -100.5 30 l-359 0 q-56 0 -93.5 11 q-37.5 11 -60 32 q-22.5 21 -32 51 q-9.5 30 -9.5 68 q0 77 3.5 124.5 q3.5 47.5 14 82 q10.5 34.5 29 65 q18.5 30.5 49.5 72.5 q5 6 6 9.5 q1 3.5 1 5.5 q0 10 -11.5 19.5 q-11.5 9.5 -33.5 26.5 q-38 30 -63 56 q-25 26 -25 53 q0 15 11 35 q11 20 28.5 42.5 q17.5 22.5 40 46.5 q22.5 24 45.5 47 q9 0 21 -4 q12 -4 20 -9 q-4 -19 -3 -31.5 q1 -12.5 8.5 -24 q7.5 -11.5 23 -24 q15.5 -12.5 41.5 -32.5 q42 -32 59 -51 q17 -19 17 -38 q0 -15 -9 -32.5 q-9 -17.5 -23 -35.5 q-14 -18 -31.5 -37 q-17.5 -19 -34.5 -37 q-17 -18 -27 -34.5 q-10 -16.5 -16 -35 q-6 -18.5 -8 -41 q-2 -22.5 -2 -51.5 q0 -32 4 -52.5 q4 -20.5 16.5 -32.5 q12.5 -12 36 -16.5 q23.5 -4.5 61.5 -4.5 l343 0 q62 0 106 -19 q44 -19 72 -51.5 q28 -32.5 41 -75 q13 -42.5 13 -90.5 q0 -93 -30.5 -203.5 q-30.5 -110.5 -90.5 -222.5 q-60 -112 -147.5 -217.5 q-87.5 -105.5 -201.5 -189.5 q-23 3 -41 11 q9 57 21.5 119 q12.5 62 26.5 119 Z" /><glyph glyph-name="uni05DD" unicode="&#x5dd;" d="M259 833 q-74 2 -101.5 26.5 q-27.5 24.5 -27.5 68.5 q0 9 4 29 q4 20 11.5 47 q7.5 27 18 59.5 q10.5 32.5 22.5 65.5 q10 5 22 7 q12 2 23 1 q13 -29 27.5 -45.5 q14.5 -16.5 33.5 -25 q19 -8.5 44 -11 q25 -2.5 59 -2.5 l419 0 q89 0 139.5 -29.5 q50.5 -29.5 75 -85.5 q24.5 -56 30 -138.5 q5.5 -82.5 5.5 -187.5 q0 -75 -4 -157 q-4 -82 -12 -162 q-8 -80 -21.5 -153 q-13.5 -73 -31.5 -130 q-3 -10 -15 -10 l-728 0 q-23 0 -29 20 q-17 69 -27.5 146 q-10.5 77 -10.5 156 q0 142 22.5 268.5 q22.5 126.5 51.5 242.5 ZM351 830 q-29 -150 -37 -252.5 q-8 -102.5 -8 -171.5 q0 -64 6 -101 q6 -37 20 -56 q14 -19 35.5 -24.5 q21.5 -5.5 53.5 -5.5 l431 0 q37 0 56.5 19.5 q19.5 19.5 28.5 51.5 q9 32 10 74.5 q1 42.5 1 89.5 q0 106 -4 178 q-4 72 -20.5 116 q-16.5 44 -49.5 63 q-33 19 -92 19 l-431 0 Z" /><glyph glyph-name="uni05DE" unicode="&#x5de;" d="M142 -20 l0 33 q0 67 4.5 134 q4.5 67 11.5 129 q7 62 15.5 117.5 q8.5 55.5 17 99 q8.5 43.5 15.5 73 q7 29.5 11 40.5 q16 42 42 80.5 q26 38.5 52 76.5 q11 17 11 32 q0 14 -10.5 26.5 q-10.5 12.5 -36.5 27.5 q-52 28 -82 51.5 q-30 23.5 -30 56.5 q0 15 11 39.5 q11 24.5 26.5 51.5 q15.5 27 34 53.5 q18.5 26.5 33.5 44.5 q7 3 18.5 1 q11.5 -2 20.5 -6 q1 -23 5.5 -37.5 q4.5 -14.5 15.5 -26.5 q11 -12 29.5 -23.5 q18.5 -11.5 48.5 -28.5 q32 -19 52.5 -37 q20.5 -18 26.5 -36 q30 25 55.5 47.5 q25.5 22.5 48.5 44 q23 21.5 44 42.5 q21 21 43 44 q11 2 19.5 3.5 q8.5 1.5 19.5 -0.5 q127 -63 207 -104 q80 -41 99 -63 q21 -24 36.5 -79.5 q15.5 -55.5 26.5 -130 q11 -74.5 16.5 -162 q5.5 -87.5 5.5 -175.5 q0 -125 -15.5 -231.5 q-15.5 -106.5 -35.5 -177.5 q-2 -6 -8 -8 q-6 -2 -13 -2 l-359 0 q-38 0 -67 -0.5 q-29 -0.5 -53.5 -3.5 q-24.5 -3 -46.5 -9.5 q-22 -6.5 -45 -17.5 q-24 3 -36 20 q16 34 37.5 75 q21.5 41 49.5 86 q9 13 21.5 25 q12.5 12 30.5 20 q18 8 43 13 q25 5 59 5 l211 0 q42 0 64.5 16 q22.5 16 33 44 q10.5 28 12.5 64.5 q2 36.5 2 78.5 q0 68 -7 128 q-7 60 -20 108.5 q-13 48.5 -33 84 q-20 35.5 -45 53.5 q-27 19 -64 39 q-37 20 -72.5 36 q-35.5 16 -65.5 26.5 q-30 10.5 -43 10.5 q-35 0 -67.5 -12.5 q-32.5 -12.5 -62 -32.5 q-29.5 -20 -54 -45 q-24.5 -25 -43.5 -51 q-29 -40 -46.5 -78 q-17.5 -38 -27 -93.5 q-9.5 -55.5 -14.5 -140 q-5 -84.5 -9 -217.5 q-1 -19 -2.5 -36 q-1.5 -17 -9.5 -29 q-14 -23 -29.5 -48.5 q-15.5 -25.5 -30 -50 q-14.5 -24.5 -27 -47.5 q-12.5 -23 -21.5 -41 q-28 -3 -55 0 Z" /><glyph glyph-name="uni05DF" unicode="&#x5df;" d="M242 -394 q-28 -3 -55 0 q-3 48 -7 108.5 q-4 60.5 -7 128 q-3 67.5 -5 138 q-2 70.5 -2 137.5 q0 95 1 163 q1 68 4.5 119.5 q3.5 51.5 11 91.5 q7.5 40 19.5 78.5 q12 38.5 29.5 81 q17.5 42.5 42.5 99.5 q4 9 4.5 13 q0.5 4 0.5 8 q0 15 -15 24.5 q-15 9.5 -61 22.5 q-36 10 -65 19.5 q-29 9.5 -49 21.5 q-20 12 -30.5 28 q-10.5 16 -10.5 40 q0 14 6.5 40.5 q6.5 26.5 17 57 q10.5 30.5 23.5 60.5 q13 30 25 51 q8 5 21.5 5.5 q13.5 0.5 24.5 -1.5 q7 -25 15.5 -40 q8.5 -15 23.5 -25 q15 -10 39.5 -18 q24.5 -8 62.5 -19 q40 -12 66.5 -23.5 q26.5 -11.5 42 -24 q15.5 -12.5 21.5 -26 q6 -13.5 6 -28.5 q0 -29 -14 -67.5 q-14 -38.5 -37 -89.5 q-26 -55 -44.5 -101.5 q-18.5 -46.5 -30.5 -91 q-12 -44.5 -17.5 -90 q-5.5 -45.5 -5.5 -97.5 q0 -51 4 -117 q4 -66 11 -142.5 q7 -76.5 16 -161 q9 -84.5 19 -171.5 q2 -12 3.5 -25 q1.5 -13 1.5 -22 q0 -19 -4 -29.5 q-4 -10.5 -14 -21.5 q-23 -26 -46 -52 q-23 -26 -43 -52 Z" /><glyph glyph-name="uni05E0" unicode="&#x5e0;" d="M331 1142 q6 -25 15 -40 q9 -15 25 -25.5 q16 -10.5 41 -19 q25 -8.5 63 -19.5 q42 -12 68.5 -24 q26.5 -12 41.5 -24.5 q15 -12.5 20.5 -26 q5.5 -13.5 5.5 -29.5 q0 -19 -5.5 -38.5 q-5.5 -19.5 -15.5 -52.5 q-13 -45 -21.5 -102.5 q-8.5 -57.5 -8.5 -127.5 q0 -74 11 -147.5 q11 -73.5 24 -133.5 q13 -60 24 -100 q11 -40 11 -46 q0 -1 -2 -7 q-8 -24 -14.5 -45 q-6.5 -21 -11.5 -41 q-5 -20 -10 -40.5 q-5 -20.5 -11 -45.5 q-1 -4 -4 -5.5 q-3 -1.5 -6 -1.5 l-290 0 q-36 0 -62.5 -0.5 q-26.5 -0.5 -48.5 -3 q-22 -2.5 -41 -8.5 q-19 -6 -39 -17 q-11 2 -22 6 q-11 4 -18 12 q9 34 25.5 77.5 q16.5 43.5 36.5 88.5 q12 28 41.5 45 q29.5 17 94.5 17 l214 0 q-6 51 -11 104 q-5 53 -5 107 q0 79 3.5 137 q3.5 58 8 97.5 q4.5 39.5 8.5 63 q4 23.5 4 33.5 q0 13 -6.5 21 q-6.5 8 -18.5 14 q-12 6 -27.5 10.5 q-15.5 4.5 -33.5 9.5 q-39 11 -70.5 20.5 q-31.5 9.5 -54 22 q-22.5 12.5 -34.5 29.5 q-12 17 -12 42 q0 14 6.5 40.5 q6.5 26.5 17 57.5 q10.5 31 23.5 61 q13 30 25 51 q8 5 21.5 5.5 q13.5 0.5 24.5 -1.5 Z" /><glyph glyph-name="uni05E1" unicode="&#x5e1;" d="M336 -23 q-33 39 -65 104.5 q-32 65.5 -57.5 139 q-25.5 73.5 -41.5 144 q-16 70.5 -16 118.5 q0 36 9 79.5 q9 43.5 23.5 89.5 q14.5 46 32.5 92.5 q18 46.5 35 88.5 q-79 4 -112 27 q-33 23 -33 68 q0 9 4 29 q4 20 11.5 47 q7.5 27 18 59.5 q10.5 32.5 22.5 65.5 q10 5 22 7 q12 2 23 1 q13 -29 27.5 -45.5 q14.5 -16.5 33.5 -25 q19 -8.5 44 -11 q25 -2.5 59 -2.5 l396 0 q81 0 135.5 -31 q54.5 -31 87.5 -81.5 q33 -50.5 46.5 -115.5 q13.5 -65 13.5 -134 q0 -79 -14 -168.5 q-14 -89.5 -45.5 -173.5 q-31.5 -84 -81.5 -154 q-50 -70 -121 -110 q-25 -14 -62 -28 q-37 -14 -79.5 -27 q-42.5 -13 -86 -24 q-43.5 -11 -81.5 -19.5 q-38 -8.5 -66.5 -14 q-28.5 -5.5 -40.5 -6.5 q-23 3 -41 11 ZM358 830 q-12 -29 -25 -64.5 q-13 -35.5 -24.5 -73.5 q-11.5 -38 -18.5 -76.5 q-7 -38.5 -7 -73.5 q0 -40 12 -86 q12 -46 31.5 -92.5 q19.5 -46.5 43.5 -90.5 q24 -44 48 -79 q14 1 43.5 6 q29.5 5 67 13 q37.5 8 79.5 19 q42 11 80.5 23 q38.5 12 69.5 25 q31 13 47 26 q32 26 57 61.5 q25 35.5 42 76 q17 40.5 26 84.5 q9 44 9 86 q0 46 -11.5 86 q-11.5 40 -35.5 68.5 q-24 28.5 -61.5 45 q-37.5 16.5 -89.5 16.5 l-383 0 Z" /><glyph glyph-name="uni05E2" unicode="&#x5e2;" d="M804 1141 q3 -22 8.5 -36 q5.5 -14 18 -25 q12.5 -11 35 -21 q22.5 -10 59.5 -24 q32 -12 57.5 -22.5 q25.5 -10.5 43.5 -22.5 q18 -12 27.5 -27 q9.5 -15 9.5 -36 q0 -20 -9 -67.5 q-9 -47.5 -24 -109.5 q-15 -62 -35 -133.5 q-20 -71.5 -41 -139.5 q-21 -68 -42.5 -127.5 q-21.5 -59.5 -39.5 -97.5 q-15 -30 -32 -54.5 q-17 -24.5 -39 -47 q-22 -22.5 -51 -44 q-29 -21.5 -69 -45.5 q-30 -18 -66 -37.5 q-36 -19.5 -80.5 -43 q-44.5 -23.5 -97 -52 q-52.5 -28.5 -115.5 -64.5 q-32 -18 -53 -32.5 q-21 -14.5 -36 -28.5 q-15 -14 -27 -29.5 q-12 -15.5 -24 -34.5 q-23 -3 -43 8 q1 22 2.5 41.5 q1.5 19.5 3.5 38.5 q2 19 5 39.5 q3 20.5 7 44.5 q3 14 9 31 q6 17 18 35 q12 18 31 35.5 q19 17.5 49 32.5 q48 25 88.5 47.5 q40.5 22.5 78.5 42.5 q-38 81 -64.5 140 q-26.5 59 -43 100.5 q-16.5 41.5 -25.5 69.5 q-9 28 -13.5 48 q-4.5 20 -5 35.5 q-0.5 15.5 -0.5 32.5 q0 28 14 78 q14 50 45 123 q4 9 4 16 q0 11 -15.5 21 q-15.5 10 -57.5 31 q-34 18 -55 31.5 q-21 13.5 -33 25.5 q-12 12 -16 24.5 q-4 12.5 -4 27.5 q0 16 9.5 42 q9.5 26 24.5 55 q15 29 32.5 58 q17.5 29 33.5 50 q2 1 8.5 1.5 q6.5 0.5 14 -0.5 q7.5 -1 14 -2 q6.5 -1 9.5 -3 q2 -14 4.5 -26.5 q2.5 -12.5 12.5 -25.5 q10 -13 29 -27 q19 -14 54 -30 q51 -24 77 -41.5 q26 -17.5 26 -46.5 q0 -26 -16.5 -64.5 q-16.5 -38.5 -36 -81 q-19.5 -42.5 -36 -84 q-16.5 -41.5 -16.5 -71.5 q0 -15 1.5 -28.5 q1.5 -13.5 7 -32.5 q5.5 -19 16.5 -47 q11 -28 30.5 -70.5 q19.5 -42.5 49 -103 q29.5 -60.5 71.5 -144.5 q35 19 61.5 33.5 q26.5 14.5 47 28 q20.5 13.5 36.5 26 q16 12.5 30 27.5 q26 28 51.5 75 q25.5 47 45.5 102.5 q20 55.5 32.5 115 q12.5 59.5 12.5 113.5 q0 21 -4 34.5 q-4 13.5 -13 23.5 q-9 10 -24.5 18 q-15.5 8 -37.5 17 q-36 15 -61 26.5 q-25 11.5 -41 23.5 q-16 12 -23 26.5 q-7 14.5 -7 34.5 q0 19 7.5 45 q7.5 26 18.5 54 q11 28 24 55 q13 27 24 48 q10 2 21 1 q11 -1 22 -3 Z" /><glyph glyph-name="uni05E3" unicode="&#x5e3;" d="M287 391 q-90 18 -145.5 36.5 q-55.5 18.5 -86.5 41 q-31 22.5 -41.5 49.5 q-10.5 27 -10.5 62 q0 25 11 59.5 q11 34.5 29 73 q18 38.5 41.5 79.5 q23.5 41 48.5 80 q-36 14 -54.5 33.5 q-18.5 19.5 -18.5 51.5 q0 14 6 38 q6 24 15.5 51.5 q9.5 27.5 22 56 q12.5 28.5 25.5 50.5 q8 5 21.5 5.5 q13.5 0.5 24.5 -1.5 q8 -23 18.5 -39 q10.5 -16 31 -27.5 q20.5 -11.5 54 -20.5 q33.5 -9 86.5 -18 q22 -4 52.5 -9 q30.5 -5 63.5 -10 q33 -5 64.5 -9.5 q31.5 -4.5 54.5 -7.5 q39 -5 69.5 -22 q30.5 -17 52 -49.5 q21.5 -32.5 33 -82.5 q11.5 -50 11.5 -121 q0 -32 -1 -91.5 q-1 -59.5 -1 -131.5 q0 -87 4 -173.5 q4 -86.5 10 -165.5 q6 -79 12.5 -146 q6.5 -67 11.5 -115 q6 -57 10 -92 q4 -35 4 -44 q0 -19 -4 -30.5 q-4 -11.5 -13 -22.5 q-22 -28 -47 -61 q-25 -33 -44 -62 q-28 -3 -55 0 q-3 43 -5.5 114.5 q-2.5 71.5 -4.5 159 q-2 87.5 -3 186.5 q-1 99 -1 198 q0 48 1.5 99 q1.5 51 3 98 q1.5 47 3 85.5 q1.5 38.5 1.5 60.5 q0 60 -9.5 96.5 q-9.5 36.5 -27.5 57.5 q-18 21 -44 30 q-26 9 -59 14 q-47 7 -94.5 14.5 q-47.5 7.5 -87.5 13.5 q-40 6 -69 9.5 q-29 3.5 -38 3.5 q-4 -4 -13 -19 q-9 -15 -18 -35 q-9 -20 -15.5 -41.5 q-6.5 -21.5 -6.5 -38.5 q0 -30 11.5 -48.5 q11.5 -18.5 34 -30.5 q22.5 -12 56.5 -21 q34 -9 78 -19 l-59 -202 Z" /><glyph glyph-name="uni05E4" unicode="&#x5e4;" d="M485 409 q-91 17 -148 36 q-57 19 -89.5 42 q-32.5 23 -44 50.5 q-11.5 27.5 -11.5 62.5 q0 25 10 56.5 q10 31.5 26.5 66 q16.5 34.5 39 72.5 q22.5 38 47.5 77 q-36 14 -54.5 33.5 q-18.5 19.5 -18.5 51.5 q0 14 6 38 q6 24 15.5 51.5 q9.5 27.5 22 56 q12.5 28.5 25.5 50.5 q8 5 21.5 5.5 q13.5 0.5 24.5 -1.5 q8 -23 18.5 -39 q10.5 -16 31 -27.5 q20.5 -11.5 54 -20.5 q33.5 -9 86.5 -18 q63 -11 138.5 -21.5 q75.5 -10.5 165.5 -21.5 q43 -5 73 -40.5 q30 -35.5 49 -98.5 q19 -63 28 -152 q9 -89 9 -201 q0 -37 -2.5 -81.5 q-2.5 -44.5 -8 -92.5 q-5.5 -48 -12.5 -96 q-7 -48 -16.5 -92 q-9.5 -44 -20.5 -81.5 q-11 -37.5 -24 -63.5 q-4 -10 -16 -10 l-573 0 q-38 0 -67 -0.5 q-29 -0.5 -53.5 -3.5 q-24.5 -3 -46.5 -9.5 q-22 -6.5 -45 -17.5 q-11 2 -22 7 q-11 5 -16 13 q14 34 33 74.5 q19 40.5 45 85.5 q17 28 50.5 46 q33.5 18 101.5 18 l447 0 q40 0 65 23.5 q25 23.5 39 62.5 q14 39 19 89.5 q5 50.5 5 105.5 q0 139 -36 215 q-36 76 -105 87 q-59 9 -118.5 18 q-59.5 9 -108.5 16 q-49 7 -82.5 11.5 q-33.5 4.5 -40.5 4.5 q-4 -4 -11.5 -15.5 q-7.5 -11.5 -15 -27 q-7.5 -15.5 -13 -33.5 q-5.5 -18 -5.5 -34 q0 -34 12.5 -54 q12.5 -20 36.5 -32.5 q24 -12.5 59 -20.5 q35 -8 79 -18 l-58 -202 Z" /><glyph glyph-name="uni05E5" unicode="&#x5e5;" d="M344 -394 q-28 -3 -55 0 q-8 102 -17 208.5 q-9 106.5 -16.5 206.5 q-7.5 100 -12.5 186 q-5 86 -5 146 q0 84 3.5 136.5 q3.5 52.5 10 91.5 q6.5 39 17.5 75 q11 36 26 87 q4 15 4 27 q0 17 -16.5 26.5 q-16.5 9.5 -53.5 23.5 q-36 12 -63.5 22.5 q-27.5 10.5 -47 23 q-19.5 12.5 -29.5 28.5 q-10 16 -10 40 q0 14 6.5 39.5 q6.5 25.5 17 55 q10.5 29.5 23 58.5 q12.5 29 24.5 50 q8 5 21.5 5.5 q13.5 0.5 24.5 -1.5 q7 -25 15 -40 q8 -15 22 -25.5 q14 -10.5 37.5 -19.5 q23.5 -9 61.5 -22 q37 -13 62 -24 q25 -11 40 -22 q15 -11 21.5 -22.5 q6.5 -11.5 6.5 -26.5 q0 -17 -8 -37.5 q-8 -20.5 -20 -49.5 q-23 -53 -37.5 -90.5 q-14.5 -37.5 -23 -73 q-8.5 -35.5 -12 -75.5 q-3.5 -40 -3.5 -97 q0 -12 0 -21 q0 -8 1 -15 q78 15 138 39.5 q60 24.5 104.5 52.5 q44.5 28 75 58 q30.5 30 49.5 57.5 q19 27.5 27 50.5 q8 23 8 37 q0 23 -13.5 40 q-13.5 17 -42.5 40 q-30 24 -47.5 38 q-17.5 14 -26.5 24.5 q-9 10.5 -11.5 21 q-2.5 10.5 -2.5 27.5 q0 18 12 41 q12 23 30.5 47 q18.5 24 39.5 48 q21 24 39 44 q7 2 19.5 -0.5 q12.5 -2.5 22.5 -6.5 q-3 -22 -1 -37.5 q2 -15.5 12 -29.5 q10 -14 29.5 -30.5 q19.5 -16.5 51.5 -40.5 q25 -19 42 -32 q17 -13 27.5 -25 q10.5 -12 15.5 -23.5 q5 -11.5 5 -27.5 q0 -20 -14.5 -58 q-14.5 -38 -45 -87 q-30.5 -49 -77.5 -105 q-47 -56 -113 -111 q-66 -55 -151.5 -105.5 q-85.5 -50.5 -191.5 -87.5 q6 -64 14 -132 q8 -68 18 -136 q10 -68 21.5 -135 q11.5 -67 23.5 -128 q2 -12 4 -23.5 q2 -11.5 2 -20.5 q0 -32 -19 -54 q-23 -26 -46 -52 q-23 -26 -43 -52 Z" /><glyph glyph-name="uni05E8" unicode="&#x5e8;" d="M99 1137 q13 -29 27.5 -45.5 q14.5 -16.5 33.5 -25 q19 -8.5 44 -11 q25 -2.5 59 -2.5 l296 0 q63 0 116 -13 q53 -13 91.5 -43 q38.5 -30 59.5 -78 q21 -48 21 -118 q0 -29 -3 -59 q-2 -23 -3.5 -50.5 q-1.5 -27.5 -1.5 -69.5 q0 -88 10.5 -173.5 q10.5 -85.5 22.5 -166.5 q6 -42 12.5 -78 q6.5 -36 6.5 -56 q0 -19 -4 -29 q-4 -10 -14 -22 q-22 -27 -45 -58.5 q-23 -31.5 -41 -58.5 q-28 -3 -55 0 q-2 19 -4 55 q-2 36 -4 77.5 q-2 41.5 -3 82.5 q-1 41 -1 71 q0 94 1 152.5 q1 58.5 2.5 98 q1.5 39.5 3.5 68.5 q2 29 3 65 q2 87 -44 133.5 q-46 46.5 -152 46.5 l-349 0 q-36 0 -69.5 2.5 q-33.5 2.5 -59 12.5 q-25.5 10 -41 30.5 q-15.5 20.5 -15.5 55.5 q0 9 4 28.5 q4 19.5 11 46 q7 26.5 17 58.5 q10 32 22 65 q10 5 22 7 q12 2 23 1 Z" /><glyph glyph-name="uni05E9" unicode="&#x5e9;" d="M733 786 q0 9 -3.5 16 q-3.5 7 -12 13 q-8.5 6 -22 12.5 q-13.5 6.5 -34.5 15.5 q-20 9 -37.5 17 q-17.5 8 -31 18.5 q-13.5 10.5 -21 24 q-7.5 13.5 -7.5 32.5 q0 16 7 41.5 q7 25.5 18.5 54 q11.5 28.5 25.5 57 q14 28.5 28 50.5 q6 2 22 2 q8 0 14.5 -1 q6.5 -1 9.5 -2 q3 -17 6.5 -29 q3.5 -12 15 -23.5 q11.5 -11.5 33.5 -23.5 q22 -12 62 -28 q45 -17 66 -31.5 q21 -14.5 22 -37.5 q0 -40 -14 -95.5 q-14 -55.5 -38.5 -120.5 q-24.5 -65 -58.5 -137 q-34 -72 -73 -144.5 q-39 -72.5 -82.5 -142 q-43.5 -69.5 -87.5 -129.5 q51 7 113 18.5 q62 11.5 122.5 26 q60.5 14.5 112.5 31 q52 16.5 84 31.5 q33 16 66 54.5 q33 38.5 62.5 87.5 q29.5 49 55 102.5 q25.5 53.5 44 100.5 q18.5 47 29 81.5 q10.5 34.5 10.5 44.5 q0 17 -15 30.5 q-15 13.5 -60 30.5 q-23 8 -43 16 q-20 8 -35 18.5 q-15 10.5 -23.5 24.5 q-8.5 14 -8.5 34 q0 22 6.5 49 q6.5 27 17 55 q10.5 28 22.5 55 q12 27 23 49 q3 1 9 2 q6 1 13 1 q7 0 14 -0.5 q7 -0.5 10 -1.5 q4 -22 11.5 -35 q7.5 -13 21.5 -23 q14 -10 35.5 -18 q21.5 -8 53.5 -19 q51 -18 77.5 -38.5 q26.5 -20.5 26.5 -47.5 q0 -34 -19 -105 q-19 -71 -51 -160 q-32 -89 -74 -185.5 q-42 -96.5 -87 -180.5 q-45 -84 -91 -145 q-46 -61 -86 -80 q-36 -17 -86 -33.5 q-50 -16.5 -106.5 -31 q-56.5 -14.5 -114.5 -27 q-58 -12.5 -109 -21.5 q-51 -9 -91 -14 q-40 -5 -60 -5 q-13 2 -27 6 q-14 4 -24 10 q-35 107 -60 196.5 q-25 89.5 -41 166 q-16 76.5 -23.5 141 q-7.5 64.5 -7.5 121.5 q0 46 9.5 87 q9.5 41 23.5 83 q4 11 3 18.5 q-1 7.5 -8 14.5 q-7 7 -21 15 q-14 8 -35 20 q-25 13 -46 24.5 q-21 11.5 -36 23.5 q-15 12 -23.5 26 q-8.5 14 -8.5 32 q0 16 9 40 q9 24 23 51 q14 27 30.5 54 q16.5 27 32.5 48 q2 1 8.5 1.5 q6.5 0.5 14 -0.5 q7.5 -1 14 -2 q6.5 -1 9.5 -3 q2 -16 6 -26.5 q4 -10.5 15.5 -20 q11.5 -9.5 33.5 -21 q22 -11.5 61 -29.5 q86 -41 86 -78 q0 -16 -9.5 -38.5 q-9.5 -22.5 -23.5 -51.5 q-9 -20 -20 -45 q-11 -25 -20 -53.5 q-9 -28.5 -15.5 -59 q-6.5 -30.5 -6.5 -62.5 q0 -45 11.5 -97 q11.5 -52 29 -107 q17.5 -55 38.5 -110 q21 -55 41 -106 q33 44 66 95 q33 51 63 104 q30 53 55.5 105 q25.5 52 44.5 98.5 q19 46.5 30 85 q11 38.5 11 62.5 Z" /><glyph glyph-name="uni05EA" unicode="&#x5ea;" d="M877 830 l-397 0 q-22 -50 -36 -88.5 q-14 -38.5 -22.5 -69.5 q-8.5 -31 -11.5 -57 q-3 -26 -3 -51 q0 -31 6.5 -68.5 q6.5 -37.5 21 -83 q14.5 -45.5 36.5 -101 q22 -55.5 52 -123.5 q1 -4 0 -8 q-8 -24 -14.5 -45.5 q-6.5 -21.5 -12 -42 q-5.5 -20.5 -10.5 -41.5 q-5 -21 -11 -46 q-1 -4 -4 -5.5 q-3 -1.5 -6 -1.5 q-27 1 -70 3.5 q-43 2.5 -88 2.5 q-49 0 -92 -5.5 q-43 -5.5 -59 -22.5 q-11 2 -22 6 q-11 4 -18 12 q18 69 58 157 q6 14 16.5 25 q10.5 11 28.5 18.5 q18 7.5 45.5 12.5 q27.5 5 66.5 7 q-20 62 -31.5 105.5 q-11.5 43.5 -17.5 75 q-6 31.5 -7.5 53.5 q-1.5 22 -1.5 41 q0 24 5 54 q5 30 16.5 70 q11.5 40 31.5 93 q20 53 50 124 q-31 1 -59.5 5.5 q-28.5 4.5 -50.5 16 q-22 11.5 -35.5 31.5 q-13.5 20 -13.5 52 q0 9 3.5 28 q3.5 19 10.5 44.5 q7 25.5 16.5 57 q9.5 31.5 21.5 64.5 q10 5 22 7 q12 2 23 1 q13 -29 27.5 -45.5 q14.5 -16.5 33.5 -25 q19 -8.5 44 -11 q25 -2.5 59 -2.5 l424 0 q55 0 100 -11.5 q45 -11.5 77 -38 q32 -26.5 49 -69 q17 -42.5 17 -103.5 q0 -46 -5.5 -90 q-5.5 -44 -5.5 -92 q0 -94 10.5 -188 q10.5 -94 22.5 -179 q6 -42 11 -77 q5 -35 5 -55 q0 -19 -4 -30.5 q-4 -11.5 -13 -23.5 q-22 -29 -40.5 -57.5 q-18.5 -28.5 -35.5 -58.5 q-28 -3 -55 0 q-3 19 -6.5 55 q-3.5 36 -6.5 77.5 q-3 41.5 -5 82.5 q-2 41 -2 71 q0 102 1 165 q1 63 2 106 q1 43 2.5 75 q1.5 32 2.5 71 q1 35 -5 62.5 q-6 27.5 -23 46 q-17 18.5 -45.5 28.5 q-28.5 10 -72.5 10 Z" /><glyph glyph-name="uniFB1D" unicode="&#xfb1d;" d="M131 1153 q4 -27 13 -44 q9 -17 26.5 -29 q17.5 -12 44.5 -22 q27 -10 66 -22 q38 -12 67 -22.5 q29 -10.5 49 -24 q20 -13.5 30 -31 q10 -17.5 10 -42.5 q0 -60 -31.5 -172 q-31.5 -112 -99.5 -274 q-38 8 -68 24 q10 36 18 72 q8 36 14 68 q6 32 9 58.5 q3 26.5 3 43.5 q0 16 -4.5 27.5 q-4.5 11.5 -14.5 20.5 q-10 9 -26.5 17 q-16.5 8 -40.5 16 q-42 14 -75 25.5 q-33 11.5 -55.5 25 q-22.5 13.5 -34 31 q-11.5 17.5 -11.5 43.5 q0 17 6 43.5 q6 26.5 15.5 55.5 q9.5 29 21 57 q11.5 28 22.5 49 q8 5 21.5 5.5 q13.5 0.5 24.5 0.5 ZM143 -251 q0 35 23.5 58.5 q23.5 23.5 58.5 23.5 q35 0 58.5 -23.5 q23.5 -23.5 23.5 -58.5 q0 -35 -23.5 -58.5 q-23.5 -23.5 -58.5 -23.5 q-35 0 -58.5 23.5 q-23.5 23.5 -23.5 58.5 Z" /><glyph glyph-name="uniFB1E" unicode="&#xfb1e;" d="M365 1280 q37 16 83.5 32.5 q46.5 16.5 90.5 30.5 q44 14 81.5 24.5 q37.5 10.5 58.5 15.5 q6 -5 8.5 -13.5 q2.5 -8.5 4.5 -15.5 q-106 -48 -188 -89.5 q-82 -41.5 -139 -76.5 q-57 35 -138.5 76.5 q-81.5 41.5 -187.5 89.5 q2 7 4.5 15.5 q2.5 8.5 8.5 13.5 q21 -5 58.5 -15.5 q37.5 -10.5 81.5 -24.5 q44 -14 90 -30.5 q46 -16.5 83 -32.5 Z" /><glyph glyph-name="uniFB1F" unicode="&#xfb1f;" d="M973 287 l-860 0 l9 94 l860 0 l-9 -94 ZM184 1153 q4 -27 13 -44 q9 -17 26.5 -29 q17.5 -12 44.5 -22 q27 -10 66 -22 q38 -12 67 -22.5 q29 -10.5 49 -24 q20 -13.5 30 -31 q10 -17.5 10 -42.5 q0 -60 -31.5 -172 q-31.5 -112 -99.5 -274 q-38 8 -68 24 q10 36 18 72 q8 36 14 68 q6 32 9 58.5 q3 26.5 3 43.5 q0 16 -4.5 27.5 q-4.5 11.5 -14.5 20.5 q-10 9 -26.5 17 q-16.5 8 -40.5 16 q-42 14 -75 25.5 q-33 11.5 -55.5 25 q-22.5 13.5 -34 31 q-11.5 17.5 -11.5 43.5 q0 17 6 43.5 q6 26.5 15.5 55.5 q9.5 29 21 57 q11.5 28 22.5 49 q8 5 21.5 5.5 q13.5 0.5 24.5 0.5 ZM696 1153 q4 -27 13 -44 q9 -17 26.5 -29 q17.5 -12 44.5 -22 q27 -10 66 -22 q38 -12 67 -22.5 q29 -10.5 49 -24 q20 -13.5 30 -31 q10 -17.5 10 -42.5 q0 -60 -31.5 -172 q-31.5 -112 -99.5 -274 q-38 8 -68 24 q10 36 18 72 q8 36 14 68 q6 32 9 58.5 q3 26.5 3 43.5 q0 16 -4.5 27.5 q-4.5 11.5 -14.5 20.5 q-10 9 -26.5 17 q-16.5 8 -40.5 16 q-42 14 -75 25.5 q-33 11.5 -55.5 25 q-22.5 13.5 -34 31 q-11.5 17.5 -11.5 43.5 q0 17 6 43.5 q6 26.5 15.5 55.5 q9.5 29 21 57 q11.5 28 22.5 49 q8 5 21.5 5.5 q13.5 0.5 24.5 0.5 Z" /><glyph glyph-name="uni05E2.alt" unicode="&#xfb20;" d="M825 1141 q3 -22 8.5 -36 q5.5 -14 18.5 -24.5 q13 -10.5 35.5 -20.5 q22.5 -10 59.5 -24 q31 -12 54.5 -21.5 q23.5 -9.5 39.5 -20 q16 -10.5 23.5 -24 q7.5 -13.5 7.5 -34.5 q0 -19 -4 -60 q-4 -41 -11.5 -95.5 q-7.5 -54.5 -18 -118.5 q-10.5 -64 -22.5 -130 q-12 -66 -26 -130 q-14 -64 -28.5 -118.5 q-14.5 -54.5 -29 -95 q-14.5 -40.5 -28.5 -59.5 q-16 -20 -32.5 -32.5 q-16.5 -12.5 -36.5 -21 q-20 -8.5 -44.5 -14 q-24.5 -5.5 -56.5 -11.5 q-88 -16 -194 -26 q-106 -10 -244 -22 q-27 -2 -46 -8.5 q-19 -6.5 -34 -17.5 q-15 -11 -27 -27 q-12 -16 -25 -37 q-23 -3 -43 8 q5 46 12 91 q7 45 19 97 q6 24 21.5 42.5 q15.5 18.5 37 31 q21.5 12.5 47 19.5 q25.5 7 51.5 9 q23 2 45.5 3 q22.5 1 42.5 3 q-36 94 -57.5 150.5 q-21.5 56.5 -32.5 91 q-11 34.5 -14.5 56 q-3.5 21.5 -3.5 45.5 q0 28 16 80.5 q16 52.5 47 125.5 q4 9 4 16 q0 11 -15.5 21 q-15.5 10 -57.5 31 q-34 18 -54.5 31 q-20.5 13 -31 24.5 q-10.5 11.5 -14 23.5 q-3.5 12 -3.5 27 q0 16 9.5 42 q9.5 26 24.5 55 q15 29 32.5 58 q17.5 29 33.5 50 q2 1 8.5 1.5 q6.5 0.5 14 -0.5 q7.5 -1 14 -2 q6.5 -1 9.5 -3 q2 -14 4.5 -26.5 q2.5 -12.5 12.5 -25.5 q10 -13 29 -27 q19 -14 54 -30 q50 -24 74 -40 q24 -16 24 -45 q0 -26 -17 -65.5 q-17 -39.5 -37.5 -83 q-20.5 -43.5 -37.5 -85.5 q-17 -42 -17 -72 q0 -14 1.5 -27.5 q1.5 -13.5 7 -32 q5.5 -18.5 15 -45 q9.5 -26.5 26.5 -67 q17 -40.5 42 -98.5 q25 -58 60 -139 q61 6 103 11.5 q42 5.5 69.5 11.5 q27.5 6 44.5 13.5 q17 7.5 29 17.5 q23 19 43.5 69 q20.5 50 35.5 114 q15 64 24 134 q9 70 9 130 q0 21 -5 35.5 q-5 14.5 -15 25 q-10 10.5 -26.5 19 q-16.5 8.5 -38.5 17.5 q-36 15 -61 27 q-25 12 -41 24 q-16 12 -23 26.5 q-7 14.5 -7 34.5 q0 19 7.5 45 q7.5 26 18.5 54 q11 28 24 55 q13 27 24 48 q10 2 21 1 q11 -1 22 -3 Z" /><glyph glyph-name="uni05D0.wide" unicode="&#xfb21;" d="M331 1128 q-1 -8 -1 -17 q0 -9 0 -16 q0 -64 37 -114 q37 -50 122 -102 q85 -52 224 -113.5 q139 -61.5 344 -148.5 q42 -18 87.5 -37.5 q45.5 -19.5 89.5 -39 q44 -19.5 84.5 -38 q40.5 -18.5 74.5 -34.5 q61 61 97 106 q36 45 55 76.5 q19 31.5 25 52.5 q6 21 6 36 q0 23 -14.5 42 q-14.5 19 -53.5 51 q-32 27 -52 45 q-20 18 -31 32 q-11 14 -15 26 q-4 12 -4 26 q0 24 29.5 67.5 q29.5 43.5 101.5 109.5 q13 -1 23.5 -3.5 q10.5 -2.5 20.5 -7.5 q-1 -10 -1.5 -17 q-0.5 -7 -0.5 -13 q0 -11 3 -20 q3 -9 12.5 -19.5 q9.5 -10.5 26.5 -25.5 q17 -15 44 -38 q31 -26 52 -46 q21 -20 34 -36.5 q13 -16.5 18.5 -30 q5.5 -13.5 5.5 -25.5 q0 -19 -6.5 -47 q-6.5 -28 -35 -77 q-28.5 -49 -87 -123.5 q-58.5 -74.5 -162.5 -185.5 q131 -67 201.5 -121 q70.5 -54 70.5 -96 q0 -18 -8 -37 q-20 -46 -38 -90 q-18 -44 -37 -93 q-25 -2 -44 3 q-13 38 -26.5 68 q-13.5 30 -39 57 q-25.5 27 -67.5 55 q-42 28 -111.5 63 q-69.5 35 -171 80 q-101.5 45 -245.5 106 q-165 70 -303 129 q-138 59 -244 113 q-32 -38 -50 -67 q-18 -29 -27 -52 q-9 -23 -11.5 -41.5 q-2.5 -18.5 -2.5 -36.5 q0 -30 12.5 -60.5 q12.5 -30.5 41 -66.5 q28.5 -36 74.5 -81 q46 -45 114 -105 q2 -5 0 -10 l-131 -147 q-23 17 -44.5 26.5 q-21.5 9.5 -51.5 9.5 q-32 0 -74.5 -11.5 q-42.5 -11.5 -108.5 -34.5 q-7 7 -14.5 19 q-7.5 12 -10.5 25 q31 24 69.5 51 q38.5 27 83.5 55 q-35 38 -59 70 q-24 32 -39 59.5 q-15 27.5 -21.5 53.5 q-6.5 26 -6.5 52 q0 31 9.5 66 q9.5 35 30.5 76 q21 41 54 89.5 q33 48.5 80 105.5 q-81 49 -125.5 96 q-44.5 47 -44.5 98 q0 29 13 56 q23 48 48.5 90.5 q25.5 42.5 51.5 87.5 q11 3 25 1.5 q14 -1.5 25 -6.5 Z" /><glyph glyph-name="uni05D3.wide" unicode="&#xfb22;" d="M1528 842 q-72 0 -101 -36 q-29 -36 -29 -109 q0 -51 2.5 -104.5 q2.5 -53.5 7 -106.5 q4.5 -53 10.5 -104.5 q6 -51.5 13 -97.5 q6 -41 11.5 -80.5 q5.5 -39.5 5.5 -56.5 q0 -28 -18 -50 q-22 -28 -43.5 -58 q-21.5 -30 -40.5 -59 q-28 -3 -55 0 q-7 64 -9.5 145.5 q-2.5 81.5 -2.5 171.5 q0 78 1.5 157 q1.5 79 4 150 q2.5 71 5.5 129.5 q3 58.5 6 96.5 l-1106 0 q-36 0 -70 3 q-34 3 -60.5 14 q-26.5 11 -42.5 32 q-16 21 -16 56 q0 9 3.5 28 q3.5 19 10.5 44.5 q7 25.5 16.5 57 q9.5 31.5 21.5 64.5 q10 5 22 7 q12 2 23 1 q13 -29 27.5 -45.5 q14.5 -16.5 33.5 -25 q19 -8.5 44 -11 q25 -2.5 59 -2.5 l1317 0 q6 0 5 -7 q-15 -55 -26 -100 q-11 -45 -22 -97 q-1 -7 -8 -7 Z" /><glyph glyph-name="uni05D4.wide" unicode="&#xfb23;" d="M374 564 q-7 -25 -12 -44 q-5 -19 -8 -36 q-3 -17 -4.5 -34 q-1.5 -17 -2.5 -37 l-8 -308 q0 -9 -1.5 -17 q-1.5 -8 -8.5 -13 q-16 -12 -33 -25.5 q-17 -13.5 -32.5 -26 q-15.5 -12.5 -29 -24 q-13.5 -11.5 -22.5 -19.5 q-25 -3 -49 0 l31 380 q4 51 20.5 93.5 q16.5 42.5 38.5 65.5 q11 12 31.5 29.5 q20.5 17.5 43.5 31.5 q10 -2 24 -6 q14 -4 22 -10 ZM253 1137 q13 -29 27.5 -45.5 q14.5 -16.5 33.5 -25 q19 -8.5 44 -11 q25 -2.5 59 -2.5 l1067 0 q63 0 105.5 -9 q42.5 -9 68 -26.5 q25.5 -17.5 36 -44 q10.5 -26.5 10.5 -61.5 q0 -34 -10.5 -74.5 q-10.5 -40.5 -22.5 -88.5 q0 -148 13 -263.5 q13 -115.5 25 -203.5 q6 -42 11 -77 q5 -35 5 -55 q0 -19 -4 -30 q-4 -11 -13 -23 q-21 -29 -40 -58 q-19 -29 -36 -59 q-28 -3 -55 0 q-3 19 -6.5 55 q-3.5 36 -6.5 77.5 q-3 41.5 -5 82.5 q-2 41 -2 71 q0 87 0.5 150 q0.5 63 1.5 107.5 q1 44.5 2 74.5 q1 30 2 52 q1 27 1.5 48 q0.5 21 0.5 48 q0 24 -3 40 q-3 16 -13.5 26 q-10.5 10 -31.5 14 q-21 4 -56 4 l-1116 0 q-36 0 -70 3 q-34 3 -60.5 14 q-26.5 11 -42.5 32 q-16 21 -16 56 q0 9 3.5 28 q3.5 19 10.5 44.5 q7 25.5 16.5 57 q9.5 31.5 21.5 64.5 q10 5 22 7 q12 2 23 1 Z" /><glyph glyph-name="uni05DB.wide" unicode="&#xfb24;" d="M287 1137 q13 -29 27.5 -45.5 q14.5 -16.5 33.5 -25 q19 -8.5 44 -11 q25 -2.5 59 -2.5 l860 0 q73 0 132 -29 q59 -29 101 -90.5 q42 -61.5 64.5 -157.5 q22.5 -96 22.5 -229 q0 -66 -9.5 -141 q-9.5 -75 -24.5 -147.5 q-15 -72.5 -34 -137.5 q-19 -65 -38 -111 q-3 -7 -7.5 -8.5 q-4.5 -1.5 -12.5 -1.5 l-1111 0 q-38 0 -66.5 -0.5 q-28.5 -0.5 -52.5 -3 q-24 -2.5 -45.5 -8.5 q-21.5 -6 -45.5 -17 q-11 2 -22 6 q-11 4 -18 12 q8 34 22.5 77.5 q14.5 43.5 32.5 88.5 q11 28 43.5 46 q32.5 18 100.5 18 l1103 0 q12 0 16 7 q8 18 16 46.5 q8 28.5 14.5 63.5 q6.5 35 10.5 75.5 q4 40.5 4 82.5 q0 72 -14.5 133.5 q-14.5 61.5 -42.5 106.5 q-28 45 -69 70.5 q-41 25.5 -93 25.5 l-909 0 q-36 0 -70 3 q-34 3 -60.5 14 q-26.5 11 -42.5 32 q-16 21 -16 56 q0 9 3.5 28 q3.5 19 10.5 44.5 q7 25.5 16.5 57 q9.5 31.5 21.5 64.5 q10 5 22 7 q12 2 23 1 Z" /><glyph glyph-name="uni05DC.wide" unicode="&#xfb25;" d="M1026 233 q105 51 169 110.5 q64 59.5 99.5 120.5 q35.5 61 47.5 119.5 q12 58.5 12 108.5 q0 78 -34.5 108 q-34.5 30 -100.5 30 l-975 0 q-56 0 -93.5 11 q-37.5 11 -60 32 q-22.5 21 -32 51 q-9.5 30 -9.5 68 q0 77 3.5 124.5 q3.5 47.5 14 82 q10.5 34.5 29 65 q18.5 30.5 49.5 72.5 q5 6 6 9.5 q1 3.5 1 5.5 q0 10 -11.5 19.5 q-11.5 9.5 -33.5 26.5 q-38 30 -63 56 q-25 26 -25 53 q0 15 11 35 q11 20 28.5 42.5 q17.5 22.5 40 46.5 q22.5 24 45.5 47 q9 0 21 -4 q12 -4 20 -9 q-4 -19 -3 -31.5 q1 -12.5 8.5 -24 q7.5 -11.5 23 -24 q15.5 -12.5 41.5 -32.5 q42 -32 59 -51 q17 -19 17 -38 q0 -15 -9 -32.5 q-9 -17.5 -23 -35.5 q-14 -18 -31.5 -37 q-17.5 -19 -34.5 -37 q-17 -18 -27 -34.5 q-10 -16.5 -16 -35 q-6 -18.5 -8 -41 q-2 -22.5 -2 -51.5 q0 -32 4 -52.5 q4 -20.5 16.5 -32.5 q12.5 -12 36 -16.5 q23.5 -4.5 61.5 -4.5 l959 0 q62 0 106 -19 q44 -19 72 -51.5 q28 -32.5 41 -75 q13 -42.5 13 -90.5 q0 -93 -30.5 -203.5 q-30.5 -110.5 -90.5 -222.5 q-60 -112 -147.5 -217.5 q-87.5 -105.5 -201.5 -189.5 q-23 3 -41 11 q9 57 21.5 119 q12.5 62 26.5 119 Z" /><glyph glyph-name="uni05DD.wide" unicode="&#xfb26;" d="M266 833 q-67 4 -93 27 q-26 23 -26 68 q0 9 4 29 q4 20 11.5 47 q7.5 27 18 59.5 q10.5 32.5 22.5 65.5 q10 5 22 7 q12 2 23 1 q13 -29 27.5 -45.5 q14.5 -16.5 33.5 -25 q19 -8.5 44 -11 q25 -2.5 59 -2.5 l1085 0 q89 0 139.5 -29.5 q50.5 -29.5 75 -85.5 q24.5 -56 30 -138.5 q5.5 -82.5 5.5 -187.5 q0 -75 -4 -157 q-4 -82 -12 -162 q-8 -80 -21.5 -153 q-13.5 -73 -31.5 -130 q-3 -10 -15 -10 l-1404 0 q-23 0 -29 20 q-17 69 -27.5 146 q-10.5 77 -10.5 156 q0 142 22.5 268.5 q22.5 126.5 51.5 242.5 ZM358 830 q-29 -150 -37 -252.5 q-8 -102.5 -8 -171.5 q0 -64 6 -101 q6 -37 20 -56 q14 -19 35.5 -24.5 q21.5 -5.5 53.5 -5.5 l1107 0 q37 0 56.5 19.5 q19.5 19.5 28.5 51.5 q9 32 10 74.5 q1 42.5 1 89.5 q0 106 -4 178 q-4 72 -20.5 116 q-16.5 44 -49.5 63 q-33 19 -92 19 l-1107 0 Z" /><glyph glyph-name="uni05E8.wide" unicode="&#xfb27;" d="M99 1137 q13 -29 27.5 -45.5 q14.5 -16.5 33.5 -25 q19 -8.5 44 -11 q25 -2.5 59 -2.5 l923 0 q63 0 116 -13 q53 -13 91.5 -43 q38.5 -30 59.5 -78 q21 -48 21 -118 q0 -29 -3 -59 q-2 -23 -3.5 -50.5 q-1.5 -27.5 -1.5 -69.5 q0 -88 10.5 -173.5 q10.5 -85.5 22.5 -166.5 q6 -42 12.5 -78 q6.5 -36 6.5 -56 q0 -19 -4 -29 q-4 -10 -14 -22 q-22 -27 -45 -58.5 q-23 -31.5 -41 -58.5 q-28 -3 -55 0 q-2 19 -4 55 q-2 36 -4 77.5 q-2 41.5 -3 82.5 q-1 41 -1 71 q0 94 1 152.5 q1 58.5 2.5 98 q1.5 39.5 3.5 68.5 q2 29 3 65 q2 87 -44 133.5 q-46 46.5 -152 46.5 l-976 0 q-36 0 -69.5 2.5 q-33.5 2.5 -59 12.5 q-25.5 10 -41 30.5 q-15.5 20.5 -15.5 55.5 q0 9 4 28.5 q4 19.5 11 46 q7 26.5 17 58.5 q10 32 22 65 q10 5 22 7 q12 2 23 1 Z" /><glyph glyph-name="uni05EA.wide" unicode="&#xfb28;" d="M499 830 q-22 -50 -36 -88.5 q-14 -38.5 -22.5 -69.5 q-8.5 -31 -11.5 -57 q-3 -26 -3 -51 q0 -31 6.5 -68.5 q6.5 -37.5 21 -83 q14.5 -45.5 36.5 -101 q22 -55.5 52 -123.5 q1 -4 0 -8 q-8 -24 -14.5 -45.5 q-6.5 -21.5 -12 -42 q-5.5 -20.5 -10.5 -41.5 q-5 -21 -11 -46 q-1 -4 -4 -5.5 q-3 -1.5 -6 -1.5 q-27 1 -70 3.5 q-43 2.5 -88 2.5 q-49 0 -92 -5.5 q-43 -5.5 -59 -22.5 q-11 2 -22 6 q-11 4 -18 12 q18 69 58 157 q6 14 16.5 25 q10.5 11 28.5 18.5 q18 7.5 45.5 12.5 q27.5 5 66.5 7 q-20 62 -31.5 105.5 q-11.5 43.5 -17.5 75 q-6 31.5 -7.5 53.5 q-1.5 22 -1.5 41 q0 24 5 54 q5 30 16.5 70 q11.5 40 31.5 93 q20 53 50 124 q-31 1 -59.5 5.5 q-28.5 4.5 -50.5 16 q-22 11.5 -35.5 31.5 q-13.5 20 -13.5 52 q0 9 3.5 28 q3.5 19 10.5 44.5 q7 25.5 16.5 57 q9.5 31.5 21.5 64.5 q10 5 22 7 q12 2 23 1 q13 -29 27.5 -45.5 q14.5 -16.5 33.5 -25 q19 -8.5 44 -11 q25 -2.5 59 -2.5 l1120 0 q55 0 100 -11.5 q45 -11.5 77 -38 q32 -26.5 49 -69 q17 -42.5 17 -103.5 q0 -46 -5.5 -90 q-5.5 -44 -5.5 -92 q0 -94 10.5 -188 q10.5 -94 22.5 -179 q6 -42 11 -77 q5 -35 5 -55 q0 -19 -4 -30.5 q-4 -11.5 -13 -23.5 q-22 -29 -40.5 -57.5 q-18.5 -28.5 -35.5 -58.5 q-28 -3 -55 0 q-3 19 -6.5 55 q-3.5 36 -6.5 77.5 q-3 41.5 -5 82.5 q-2 41 -2 71 q0 102 1 165 q1 63 2 106 q1 43 2.5 75 q1.5 32 2.5 71 q1 35 -5 62.5 q-6 27.5 -23 46 q-17 18.5 -45.5 28.5 q-28.5 10 -72.5 10 l-1093 0 Z" /><glyph glyph-name="uniFB29" unicode="&#xfb29;" d="M988 516 q3 -44 0 -87 l-946 0 q-3 43 0 87 l430 0 l0 430 q43 3 87 0 l0 -430 l429 0 Z" /><glyph glyph-name="uniFB2A" unicode="&#xfb2a;" d="M675 786 q0 9 -3.5 16 q-3.5 7 -12 13 q-8.5 6 -22 12.5 q-13.5 6.5 -34.5 15.5 q-20 9 -37.5 17 q-17.5 8 -31 18.5 q-13.5 10.5 -21 24 q-7.5 13.5 -7.5 32.5 q0 16 7 41.5 q7 25.5 18.5 54 q11.5 28.5 25.5 57 q14 28.5 28 50.5 q6 2 22 2 q8 0 14.5 -1 q6.5 -1 9.5 -2 q3 -17 6.5 -29 q3.5 -12 15 -23.5 q11.5 -11.5 33.5 -23.5 q22 -12 62 -28 q45 -17 66 -31.5 q21 -14.5 22 -37.5 q0 -40 -14 -95.5 q-14 -55.5 -38.5 -120.5 q-24.5 -65 -58.5 -137 q-34 -72 -73 -144.5 q-39 -72.5 -82.5 -142 q-43.5 -69.5 -87.5 -129.5 q51 7 113 18.5 q62 11.5 122.5 26 q60.5 14.5 112.5 31 q52 16.5 84 31.5 q33 16 66 54.5 q33 38.5 62.5 87.5 q29.5 49 55 102.5 q25.5 53.5 44 100.5 q18.5 47 29 81.5 q10.5 34.5 10.5 44.5 q0 17 -15 30.5 q-15 13.5 -60 30.5 q-23 8 -43 16 q-20 8 -35 18.5 q-15 10.5 -23.5 24.5 q-8.5 14 -8.5 34 q0 22 6.5 49 q6.5 27 17 55 q10.5 28 22.5 55 q12 27 23 49 q3 1 9 2 q6 1 13 1 q7 0 14 -0.5 q7 -0.5 10 -1.5 q4 -22 11.5 -35 q7.5 -13 21.5 -23 q14 -10 35.5 -18 q21.5 -8 53.5 -19 q51 -18 77.5 -38.5 q26.5 -20.5 26.5 -47.5 q0 -34 -19 -105 q-19 -71 -51 -160 q-32 -89 -74 -185.5 q-42 -96.5 -87 -180.5 q-45 -84 -91 -145 q-46 -61 -86 -80 q-36 -17 -86 -33.5 q-50 -16.5 -106.5 -31 q-56.5 -14.5 -114.5 -27 q-58 -12.5 -109 -21.5 q-51 -9 -91 -14 q-40 -5 -60 -5 q-13 2 -27 6 q-14 4 -24 10 q-35 107 -60 196.5 q-25 89.5 -41 166 q-16 76.5 -23.5 141 q-7.5 64.5 -7.5 121.5 q0 46 9.5 87 q9.5 41 23.5 83 q4 11 3 18.5 q-1 7.5 -8 14.5 q-7 7 -21 15 q-14 8 -35 20 q-25 13 -46 24.5 q-21 11.5 -36 23.5 q-15 12 -23.5 26 q-8.5 14 -8.5 32 q0 16 9 40 q9 24 23 51 q14 27 30.5 54 q16.5 27 32.5 48 q2 1 8.5 1.5 q6.5 0.5 14 -0.5 q7.5 -1 14 -2 q6.5 -1 9.5 -3 q2 -16 6 -26.5 q4 -10.5 15.5 -20 q11.5 -9.5 33.5 -21 q22 -11.5 61 -29.5 q86 -41 86 -78 q0 -16 -9.5 -38.5 q-9.5 -22.5 -23.5 -51.5 q-9 -20 -20 -45 q-11 -25 -20 -53.5 q-9 -28.5 -15.5 -59 q-6.5 -30.5 -6.5 -62.5 q0 -45 11.5 -97 q11.5 -52 29 -107 q17.5 -55 38.5 -110 q21 -55 41 -106 q33 44 66 95 q33 51 63 104 q30 53 55.5 105 q25.5 52 44.5 98.5 q19 46.5 30 85 q11 38.5 11 62.5 ZM1003 1304 q0 35 23.5 58.5 q23.5 23.5 58.5 23.5 q35 0 58.5 -23.5 q23.5 -23.5 23.5 -58.5 q0 -35 -23.5 -58.5 q-23.5 -23.5 -58.5 -23.5 q-35 0 -58.5 23.5 q-23.5 23.5 -23.5 58.5 Z" /><glyph glyph-name="uniFB2B" unicode="&#xfb2b;" d="M718 786 q0 9 -3.5 16 q-3.5 7 -12 13 q-8.5 6 -22 12.5 q-13.5 6.5 -34.5 15.5 q-20 9 -37.5 17 q-17.5 8 -31 18.5 q-13.5 10.5 -21 24 q-7.5 13.5 -7.5 32.5 q0 16 7 41.5 q7 25.5 18.5 54 q11.5 28.5 25.5 57 q14 28.5 28 50.5 q6 2 22 2 q8 0 14.5 -1 q6.5 -1 9.5 -2 q3 -17 6.5 -29 q3.5 -12 15 -23.5 q11.5 -11.5 33.5 -23.5 q22 -12 62 -28 q45 -17 66 -31.5 q21 -14.5 22 -37.5 q0 -40 -14 -95.5 q-14 -55.5 -38.5 -120.5 q-24.5 -65 -58.5 -137 q-34 -72 -73 -144.5 q-39 -72.5 -82.5 -142 q-43.5 -69.5 -87.5 -129.5 q51 7 113 18.5 q62 11.5 122.5 26 q60.5 14.5 112.5 31 q52 16.5 84 31.5 q33 16 66 54.5 q33 38.5 62.5 87.5 q29.5 49 55 102.5 q25.5 53.5 44 100.5 q18.5 47 29 81.5 q10.5 34.5 10.5 44.5 q0 17 -15 30.5 q-15 13.5 -60 30.5 q-23 8 -43 16 q-20 8 -35 18.5 q-15 10.5 -23.5 24.5 q-8.5 14 -8.5 34 q0 22 6.5 49 q6.5 27 17 55 q10.5 28 22.5 55 q12 27 23 49 q3 1 9 2 q6 1 13 1 q7 0 14 -0.5 q7 -0.5 10 -1.5 q4 -22 11.5 -35 q7.5 -13 21.5 -23 q14 -10 35.5 -18 q21.5 -8 53.5 -19 q51 -18 77.5 -38.5 q26.5 -20.5 26.5 -47.5 q0 -34 -19 -105 q-19 -71 -51 -160 q-32 -89 -74 -185.5 q-42 -96.5 -87 -180.5 q-45 -84 -91 -145 q-46 -61 -86 -80 q-36 -17 -86 -33.5 q-50 -16.5 -106.5 -31 q-56.5 -14.5 -114.5 -27 q-58 -12.5 -109 -21.5 q-51 -9 -91 -14 q-40 -5 -60 -5 q-13 2 -27 6 q-14 4 -24 10 q-35 107 -60 196.5 q-25 89.5 -41 166 q-16 76.5 -23.5 141 q-7.5 64.5 -7.5 121.5 q0 46 9.5 87 q9.5 41 23.5 83 q4 11 3 18.5 q-1 7.5 -8 14.5 q-7 7 -21 15 q-14 8 -35 20 q-25 13 -46 24.5 q-21 11.5 -36 23.5 q-15 12 -23.5 26 q-8.5 14 -8.5 32 q0 16 9 40 q9 24 23 51 q14 27 30.5 54 q16.5 27 32.5 48 q2 1 8.5 1.5 q6.5 0.5 14 -0.5 q7.5 -1 14 -2 q6.5 -1 9.5 -3 q2 -16 6 -26.5 q4 -10.5 15.5 -20 q11.5 -9.5 33.5 -21 q22 -11.5 61 -29.5 q86 -41 86 -78 q0 -16 -9.5 -38.5 q-9.5 -22.5 -23.5 -51.5 q-9 -20 -20 -45 q-11 -25 -20 -53.5 q-9 -28.5 -15.5 -59 q-6.5 -30.5 -6.5 -62.5 q0 -45 11.5 -97 q11.5 -52 29 -107 q17.5 -55 38.5 -110 q21 -55 41 -106 q33 44 66 95 q33 51 63 104 q30 53 55.5 105 q25.5 52 44.5 98.5 q19 46.5 30 85 q11 38.5 11 62.5 ZM238 1304 q0 35 23.5 58.5 q23.5 23.5 58.5 23.5 q35 0 58.5 -23.5 q23.5 -23.5 23.5 -58.5 q0 -35 -23.5 -58.5 q-23.5 -23.5 -58.5 -23.5 q-35 0 -58.5 23.5 q-23.5 23.5 -23.5 58.5 Z" /><glyph glyph-name="uniFB2C" unicode="&#xfb2c;" d="M675 786 q0 9 -3.5 16 q-3.5 7 -12 13 q-8.5 6 -22 12.5 q-13.5 6.5 -34.5 15.5 q-20 9 -37.5 17 q-17.5 8 -31 18.5 q-13.5 10.5 -21 24 q-7.5 13.5 -7.5 32.5 q0 16 7 41.5 q7 25.5 18.5 54 q11.5 28.5 25.5 57 q14 28.5 28 50.5 q6 2 22 2 q8 0 14.5 -1 q6.5 -1 9.5 -2 q3 -17 6.5 -29 q3.5 -12 15 -23.5 q11.5 -11.5 33.5 -23.5 q22 -12 62 -28 q45 -17 66 -31.5 q21 -14.5 22 -37.5 q0 -40 -14 -95.5 q-14 -55.5 -38.5 -120.5 q-24.5 -65 -58.5 -137 q-34 -72 -73 -144.5 q-39 -72.5 -82.5 -142 q-43.5 -69.5 -87.5 -129.5 q51 7 113 18.5 q62 11.5 122.5 26 q60.5 14.5 112.5 31 q52 16.5 84 31.5 q33 16 66 54.5 q33 38.5 62.5 87.5 q29.5 49 55 102.5 q25.5 53.5 44 100.5 q18.5 47 29 81.5 q10.5 34.5 10.5 44.5 q0 17 -15 30.5 q-15 13.5 -60 30.5 q-23 8 -43 16 q-20 8 -35 18.5 q-15 10.5 -23.5 24.5 q-8.5 14 -8.5 34 q0 22 6.5 49 q6.5 27 17 55 q10.5 28 22.5 55 q12 27 23 49 q3 1 9 2 q6 1 13 1 q7 0 14 -0.5 q7 -0.5 10 -1.5 q4 -22 11.5 -35 q7.5 -13 21.5 -23 q14 -10 35.5 -18 q21.5 -8 53.5 -19 q51 -18 77.5 -38.5 q26.5 -20.5 26.5 -47.5 q0 -34 -19 -105 q-19 -71 -51 -160 q-32 -89 -74 -185.5 q-42 -96.5 -87 -180.5 q-45 -84 -91 -145 q-46 -61 -86 -80 q-36 -17 -86 -33.5 q-50 -16.5 -106.5 -31 q-56.5 -14.5 -114.5 -27 q-58 -12.5 -109 -21.5 q-51 -9 -91 -14 q-40 -5 -60 -5 q-13 2 -27 6 q-14 4 -24 10 q-35 107 -60 196.5 q-25 89.5 -41 166 q-16 76.5 -23.5 141 q-7.5 64.5 -7.5 121.5 q0 46 9.5 87 q9.5 41 23.5 83 q4 11 3 18.5 q-1 7.5 -8 14.5 q-7 7 -21 15 q-14 8 -35 20 q-25 13 -46 24.5 q-21 11.5 -36 23.5 q-15 12 -23.5 26 q-8.5 14 -8.5 32 q0 16 9 40 q9 24 23 51 q14 27 30.5 54 q16.5 27 32.5 48 q2 1 8.5 1.5 q6.5 0.5 14 -0.5 q7.5 -1 14 -2 q6.5 -1 9.5 -3 q2 -16 6 -26.5 q4 -10.5 15.5 -20 q11.5 -9.5 33.5 -21 q22 -11.5 61 -29.5 q86 -41 86 -78 q0 -16 -9.5 -38.5 q-9.5 -22.5 -23.5 -51.5 q-9 -20 -20 -45 q-11 -25 -20 -53.5 q-9 -28.5 -15.5 -59 q-6.5 -30.5 -6.5 -62.5 q0 -45 11.5 -97 q11.5 -52 29 -107 q17.5 -55 38.5 -110 q21 -55 41 -106 q33 44 66 95 q33 51 63 104 q30 53 55.5 105 q25.5 52 44.5 98.5 q19 46.5 30 85 q11 38.5 11 62.5 ZM1003 1304 q0 35 23.5 58.5 q23.5 23.5 58.5 23.5 q35 0 58.5 -23.5 q23.5 -23.5 23.5 -58.5 q0 -35 -23.5 -58.5 q-23.5 -23.5 -58.5 -23.5 q-35 0 -58.5 23.5 q-23.5 23.5 -23.5 58.5 ZM792 519 q0 35 23.5 58.5 q23.5 23.5 58.5 23.5 q35 0 58.5 -23.5 q23.5 -23.5 23.5 -58.5 q0 -35 -23.5 -58.5 q-23.5 -23.5 -58.5 -23.5 q-35 0 -58.5 23.5 q-23.5 23.5 -23.5 58.5 Z" /><glyph glyph-name="uniFB2D" unicode="&#xfb2d;" d="M718 786 q0 9 -3.5 16 q-3.5 7 -12 13 q-8.5 6 -22 12.5 q-13.5 6.5 -34.5 15.5 q-20 9 -37.5 17 q-17.5 8 -31 18.5 q-13.5 10.5 -21 24 q-7.5 13.5 -7.5 32.5 q0 16 7 41.5 q7 25.5 18.5 54 q11.5 28.5 25.5 57 q14 28.5 28 50.5 q6 2 22 2 q8 0 14.5 -1 q6.5 -1 9.5 -2 q3 -17 6.5 -29 q3.5 -12 15 -23.5 q11.5 -11.5 33.5 -23.5 q22 -12 62 -28 q45 -17 66 -31.5 q21 -14.5 22 -37.5 q0 -40 -14 -95.5 q-14 -55.5 -38.5 -120.5 q-24.5 -65 -58.5 -137 q-34 -72 -73 -144.5 q-39 -72.5 -82.5 -142 q-43.5 -69.5 -87.5 -129.5 q51 7 113 18.5 q62 11.5 122.5 26 q60.5 14.5 112.5 31 q52 16.5 84 31.5 q33 16 66 54.5 q33 38.5 62.5 87.5 q29.5 49 55 102.5 q25.5 53.5 44 100.5 q18.5 47 29 81.5 q10.5 34.5 10.5 44.5 q0 17 -15 30.5 q-15 13.5 -60 30.5 q-23 8 -43 16 q-20 8 -35 18.5 q-15 10.5 -23.5 24.5 q-8.5 14 -8.5 34 q0 22 6.5 49 q6.5 27 17 55 q10.5 28 22.5 55 q12 27 23 49 q3 1 9 2 q6 1 13 1 q7 0 14 -0.5 q7 -0.5 10 -1.5 q4 -22 11.5 -35 q7.5 -13 21.5 -23 q14 -10 35.5 -18 q21.5 -8 53.5 -19 q51 -18 77.5 -38.5 q26.5 -20.5 26.5 -47.5 q0 -34 -19 -105 q-19 -71 -51 -160 q-32 -89 -74 -185.5 q-42 -96.5 -87 -180.5 q-45 -84 -91 -145 q-46 -61 -86 -80 q-36 -17 -86 -33.5 q-50 -16.5 -106.5 -31 q-56.5 -14.5 -114.5 -27 q-58 -12.5 -109 -21.5 q-51 -9 -91 -14 q-40 -5 -60 -5 q-13 2 -27 6 q-14 4 -24 10 q-35 107 -60 196.5 q-25 89.5 -41 166 q-16 76.5 -23.5 141 q-7.5 64.5 -7.5 121.5 q0 46 9.5 87 q9.5 41 23.5 83 q4 11 3 18.5 q-1 7.5 -8 14.5 q-7 7 -21 15 q-14 8 -35 20 q-25 13 -46 24.5 q-21 11.5 -36 23.5 q-15 12 -23.5 26 q-8.5 14 -8.5 32 q0 16 9 40 q9 24 23 51 q14 27 30.5 54 q16.5 27 32.5 48 q2 1 8.5 1.5 q6.5 0.5 14 -0.5 q7.5 -1 14 -2 q6.5 -1 9.5 -3 q2 -16 6 -26.5 q4 -10.5 15.5 -20 q11.5 -9.5 33.5 -21 q22 -11.5 61 -29.5 q86 -41 86 -78 q0 -16 -9.5 -38.5 q-9.5 -22.5 -23.5 -51.5 q-9 -20 -20 -45 q-11 -25 -20 -53.5 q-9 -28.5 -15.5 -59 q-6.5 -30.5 -6.5 -62.5 q0 -45 11.5 -97 q11.5 -52 29 -107 q17.5 -55 38.5 -110 q21 -55 41 -106 q33 44 66 95 q33 51 63 104 q30 53 55.5 105 q25.5 52 44.5 98.5 q19 46.5 30 85 q11 38.5 11 62.5 ZM238 1304 q0 35 23.5 58.5 q23.5 23.5 58.5 23.5 q35 0 58.5 -23.5 q23.5 -23.5 23.5 -58.5 q0 -35 -23.5 -58.5 q-23.5 -23.5 -58.5 -23.5 q-35 0 -58.5 23.5 q-23.5 23.5 -23.5 58.5 ZM835 519 q0 35 23.5 58.5 q23.5 23.5 58.5 23.5 q35 0 58.5 -23.5 q23.5 -23.5 23.5 -58.5 q0 -35 -23.5 -58.5 q-23.5 -23.5 -58.5 -23.5 q-35 0 -58.5 23.5 q-23.5 23.5 -23.5 58.5 Z" /><glyph glyph-name="uniFB2E" unicode="&#xfb2e;" d="M361 -7 q-23 17 -44.5 26.5 q-21.5 9.5 -51.5 9.5 q-32 0 -74.5 -11.5 q-42.5 -11.5 -108.5 -34.5 q-7 7 -14.5 19 q-7.5 12 -10.5 25 q31 24 69.5 51 q38.5 27 83.5 55 q-35 38 -59 70 q-24 32 -39 59.5 q-15 27.5 -21.5 53.5 q-6.5 26 -6.5 52 q0 32 9.5 66.5 q9.5 34.5 30 75 q20.5 40.5 52.5 88 q32 47.5 77 106.5 q-28 30 -52.5 55 q-24.5 25 -43 48 q-18.5 23 -29 44.5 q-10.5 21.5 -10.5 45.5 q0 29 13 56 q23 48 48.5 91.5 q25.5 43.5 51.5 88.5 q11 3 25 1.5 q14 -1.5 25 -6.5 q-1 -8 -1 -17 q0 -9 0 -16 q0 -21 3 -40.5 q3 -19.5 11 -39.5 q8 -20 22 -42 q14 -22 37 -48 q42 -45 89.5 -92.5 q47.5 -47.5 96.5 -94 q49 -46.5 98 -91 q49 -44.5 94 -85.5 q32 34 54.5 60.5 q22.5 26.5 37 46.5 q14.5 20 21 36 q6.5 16 6.5 31 q0 23 -15.5 43.5 q-15.5 20.5 -52.5 52.5 q-30 26 -49 44 q-19 18 -29.5 32.5 q-10.5 14.5 -14 26.5 q-3.5 12 -3.5 26 q0 24 29.5 67.5 q29.5 43.5 101.5 109.5 q8 2 21 -2 q13 -4 23 -9 q-1 -10 -1.5 -17 q-0.5 -7 -0.5 -13 q0 -11 3 -20 q3 -9 12 -19.5 q9 -10.5 25 -25.5 q16 -15 42 -38 q58 -52 81 -82.5 q23 -30.5 23 -55.5 q0 -19 -8.5 -47 q-8.5 -28 -35.5 -69.5 q-27 -41.5 -76.5 -99.5 q-49.5 -58 -131.5 -137 q43 -39 73.5 -67.5 q30.5 -28.5 52.5 -49.5 q22 -21 37.5 -36 q15.5 -15 28.5 -27 q39 -36 60 -65 q21 -29 21 -52 q0 -18 -8 -37 q-20 -46 -38 -90 q-18 -44 -37 -93 q-25 -2 -44 3 q-15 40 -35.5 74 q-20.5 34 -44 64 q-23.5 30 -49.5 57 q-26 27 -52 53 q-53 52 -114.5 110 q-61.5 58 -121.5 113 q-60 55 -113.5 103 q-53.5 48 -91.5 81 q-44 -58 -58.5 -99.5 q-14.5 -41.5 -14.5 -78.5 q0 -30 13.5 -61 q13.5 -31 43 -68 q29.5 -37 76.5 -82 q47 -45 115 -105 q2 -5 0 -10 l-131 -147 ZM731 -288 l-357 0 l9 94 l357 0 l-9 -94 Z" /><glyph glyph-name="uniFB2F" unicode="&#xfb2f;" d="M356 -7 q-23 17 -44.5 26.5 q-21.5 9.5 -51.5 9.5 q-32 0 -74.5 -11.5 q-42.5 -11.5 -108.5 -34.5 q-7 7 -14.5 19 q-7.5 12 -10.5 25 q31 24 69.5 51 q38.5 27 83.5 55 q-35 38 -59 70 q-24 32 -39 59.5 q-15 27.5 -21.5 53.5 q-6.5 26 -6.5 52 q0 32 9.5 66.5 q9.5 34.5 30 75 q20.5 40.5 52.5 88 q32 47.5 77 106.5 q-28 30 -52.5 55 q-24.5 25 -43 48 q-18.5 23 -29 44.5 q-10.5 21.5 -10.5 45.5 q0 29 13 56 q23 48 48.5 91.5 q25.5 43.5 51.5 88.5 q11 3 25 1.5 q14 -1.5 25 -6.5 q-1 -8 -1 -17 q0 -9 0 -16 q0 -21 3 -40.5 q3 -19.5 11 -39.5 q8 -20 22 -42 q14 -22 37 -48 q42 -45 89.5 -92.5 q47.5 -47.5 96.5 -94 q49 -46.5 98 -91 q49 -44.5 94 -85.5 q32 34 54.5 60.5 q22.5 26.5 37 46.5 q14.5 20 21 36 q6.5 16 6.5 31 q0 23 -15.5 43.5 q-15.5 20.5 -52.5 52.5 q-30 26 -49 44 q-19 18 -29.5 32.5 q-10.5 14.5 -14 26.5 q-3.5 12 -3.5 26 q0 24 29.5 67.5 q29.5 43.5 101.5 109.5 q8 2 21 -2 q13 -4 23 -9 q-1 -10 -1.5 -17 q-0.5 -7 -0.5 -13 q0 -11 3 -20 q3 -9 12 -19.5 q9 -10.5 25 -25.5 q16 -15 42 -38 q58 -52 81 -82.5 q23 -30.5 23 -55.5 q0 -19 -8.5 -47 q-8.5 -28 -35.5 -69.5 q-27 -41.5 -76.5 -99.5 q-49.5 -58 -131.5 -137 q43 -39 73.5 -67.5 q30.5 -28.5 52.5 -49.5 q22 -21 37.5 -36 q15.5 -15 28.5 -27 q39 -36 60 -65 q21 -29 21 -52 q0 -18 -8 -37 q-20 -46 -38 -90 q-18 -44 -37 -93 q-25 -2 -44 3 q-15 40 -35.5 74 q-20.5 34 -44 64 q-23.5 30 -49.5 57 q-26 27 -52 53 q-53 52 -114.5 110 q-61.5 58 -121.5 113 q-60 55 -113.5 103 q-53.5 48 -91.5 81 q-44 -58 -58.5 -99.5 q-14.5 -41.5 -14.5 -78.5 q0 -30 13.5 -61 q13.5 -31 43 -68 q29.5 -37 76.5 -82 q47 -45 115 -105 q2 -5 0 -10 l-131 -147 ZM578 -288 q-2 -10 -2 -16 q0 -6 0 -13 q0 -26 3 -45.5 q3 -19.5 8 -34.5 q5 -15 11 -26 q6 -11 12 -20 q9 -14 16 -28 q7 -14 7 -35 q0 -32 -20.5 -56.5 q-20.5 -24.5 -60.5 -24.5 q-40 0 -60.5 24.5 q-20.5 24.5 -20.5 56.5 q0 21 7 35 q7 14 16 28 q6 9 12 20 q6 11 11 26 q5 15 8 34.5 q3 19.5 3 45.5 q0 7 0 13 q0 6 -2 16 l-157 0 l9 94 l357 0 l-9 -94 l-148 0 Z" /><glyph glyph-name="uniFB30" unicode="&#xfb30;" d="M416 -7 q-23 17 -44.5 26.5 q-21.5 9.5 -51.5 9.5 q-32 0 -74.5 -11.5 q-42.5 -11.5 -108.5 -34.5 q-7 7 -14.5 19 q-7.5 12 -10.5 25 q31 24 69.5 51 q38.5 27 83.5 55 q-35 38 -59 70 q-24 32 -39 59.5 q-15 27.5 -21.5 53.5 q-6.5 26 -6.5 52 q0 32 9.5 66.5 q9.5 34.5 30 75 q20.5 40.5 52.5 88 q32 47.5 77 106.5 q-28 30 -52.5 55 q-24.5 25 -43 48 q-18.5 23 -29 44.5 q-10.5 21.5 -10.5 45.5 q0 29 13 56 q23 48 48.5 91.5 q25.5 43.5 51.5 88.5 q11 3 25 1.5 q14 -1.5 25 -6.5 q-1 -8 -1 -17 q0 -9 0 -16 q0 -21 3 -40.5 q3 -19.5 11 -39.5 q8 -20 22 -42 q14 -22 37 -48 q42 -45 89.5 -92.5 q47.5 -47.5 96.5 -94 q49 -46.5 98 -91 q49 -44.5 94 -85.5 q32 34 54.5 60.5 q22.5 26.5 37 46.5 q14.5 20 21 36 q6.5 16 6.5 31 q0 23 -15.5 43.5 q-15.5 20.5 -52.5 52.5 q-30 26 -49 44 q-19 18 -29.5 32.5 q-10.5 14.5 -14 26.5 q-3.5 12 -3.5 26 q0 24 29.5 67.5 q29.5 43.5 101.5 109.5 q8 2 21 -2 q13 -4 23 -9 q-1 -10 -1.5 -17 q-0.5 -7 -0.5 -13 q0 -11 3 -20 q3 -9 12 -19.5 q9 -10.5 25 -25.5 q16 -15 42 -38 q58 -52 81 -82.5 q23 -30.5 23 -55.5 q0 -19 -8.5 -47 q-8.5 -28 -35.5 -69.5 q-27 -41.5 -76.5 -99.5 q-49.5 -58 -131.5 -137 q43 -39 73.5 -67.5 q30.5 -28.5 52.5 -49.5 q22 -21 37.5 -36 q15.5 -15 28.5 -27 q39 -36 60 -65 q21 -29 21 -52 q0 -18 -8 -37 q-20 -46 -38 -90 q-18 -44 -37 -93 q-25 -2 -44 3 q-15 40 -35.5 74 q-20.5 34 -44 64 q-23.5 30 -49.5 57 q-26 27 -52 53 q-53 52 -114.5 110 q-61.5 58 -121.5 113 q-60 55 -113.5 103 q-53.5 48 -91.5 81 q-44 -58 -58.5 -99.5 q-14.5 -41.5 -14.5 -78.5 q0 -30 13.5 -61 q13.5 -31 43 -68 q29.5 -37 76.5 -82 q47 -45 115 -105 q2 -5 0 -10 l-131 -147 ZM630 70 q0 35 23.5 58.5 q23.5 23.5 58.5 23.5 q35 0 58.5 -23.5 q23.5 -23.5 23.5 -58.5 q0 -35 -23.5 -58.5 q-23.5 -23.5 -58.5 -23.5 q-35 0 -58.5 23.5 q-23.5 23.5 -23.5 58.5 Z" /><glyph glyph-name="uniFB31" unicode="&#xfb31;" d="M281 1137 q13 -29 27.5 -45.5 q14.5 -16.5 33.5 -25 q19 -8.5 44 -11 q25 -2.5 59 -2.5 l286 0 q64 0 106.5 -14.5 q42.5 -14.5 67 -40 q24.5 -25.5 34.5 -60.5 q10 -35 10 -75 q0 -35 -2 -65 q-2 -30 -4.5 -61 q-2.5 -31 -4.5 -64 q-2 -33 -2 -73 q0 -11 0.5 -38 q0.5 -27 2 -61.5 q1.5 -34.5 4.5 -73.5 q3 -39 9 -75.5 q6 -36.5 14.5 -66 q8.5 -29.5 21.5 -45.5 q16 -20 40.5 -26.5 q24.5 -6.5 62.5 -6.5 q4 0 3 -6 q-16 -51 -29 -97 q-13 -46 -25 -97 q-1 -4 -4 -5.5 q-3 -1.5 -6 -1.5 l-655 0 q-36 0 -63.5 -0.5 q-27.5 -0.5 -51.5 -3 q-24 -2.5 -45.5 -8.5 q-21.5 -6 -45.5 -17 q-11 2 -22 6 q-11 4 -18 12 q8 34 22.5 77.5 q14.5 43.5 32.5 88.5 q11 28 43 46 q32 18 97 18 l512 0 q-8 54 -11 102 q-3 48 -3 95 q0 37 1.5 77 q1.5 40 4 78 q2.5 38 4 71.5 q1.5 33.5 1.5 57.5 q0 29 -6.5 53 q-6.5 24 -24 41 q-17.5 17 -46.5 26.5 q-29 9.5 -74 9.5 l-309 0 q-36 0 -70 3 q-34 3 -60.5 14 q-26.5 11 -42.5 32 q-16 21 -16 56 q0 9 3.5 28 q3.5 19 10.5 44.5 q7 25.5 16.5 57 q9.5 31.5 21.5 64.5 q10 5 22 7 q12 2 23 1 ZM466 519 q0 35 23.5 58.5 q23.5 23.5 58.5 23.5 q35 0 58.5 -23.5 q23.5 -23.5 23.5 -58.5 q0 -35 -23.5 -58.5 q-23.5 -23.5 -58.5 -23.5 q-35 0 -58.5 23.5 q-23.5 23.5 -23.5 58.5 Z" /><glyph glyph-name="uniFB32" unicode="&#xfb32;" d="M379 1144 q4 -25 12 -41 q8 -16 23 -28 q15 -12 39.5 -22 q24.5 -10 61.5 -24 q40 -14 65.5 -27.5 q25.5 -13.5 40.5 -26.5 q15 -13 21 -26 q6 -13 6 -28 q0 -21 -7.5 -41.5 q-7.5 -20.5 -22.5 -53.5 q-15 -33 -25.5 -57 q-10.5 -24 -16.5 -47 q-6 -23 -9 -48.5 q-3 -25.5 -3 -60.5 q0 -56 17 -117.5 q17 -61.5 41 -119.5 q24 -58 48.5 -107.5 q24.5 -49.5 39.5 -80.5 q4 -8 5 -13 q1 -5 1 -10 q0 -7 -6 -19 q-25 -45 -45 -85.5 q-20 -40.5 -37 -80.5 q-29 -3 -57 0 q-17 113 -34.5 187.5 q-17.5 74.5 -36.5 133.5 q-14 -24 -26 -48 q-12 -24 -23 -51 q-11 -27 -22 -58 q-11 -31 -23 -69 q-5 -15 -14 -20 q-9 -5 -24 -10 q-34 -9 -74 -20.5 q-40 -11.5 -78 -23 q-38 -11.5 -70.5 -22 q-32.5 -10.5 -52.5 -18.5 q-11 -2 -24 2 q-13 4 -21 10 q11 38 21.5 79.5 q10.5 41.5 24.5 86.5 q8 29 19 46 q11 17 38 25 q70 21 122 34.5 q52 13.5 89.5 31 q37.5 17.5 64 43.5 q26.5 26 45.5 71 q-9 39 -13 79 q-4 40 -4 91 q0 32 4.5 64.5 q4.5 32.5 9.5 60.5 q5 23 8 42 q3 19 3 31 q0 22 -20.5 33 q-20.5 11 -53.5 23 q-38 14 -68 26.5 q-30 12.5 -51 27 q-21 14.5 -32 32.5 q-11 18 -9 43 q1 13 9.5 38.5 q8.5 25.5 21 54.5 q12.5 29 27.5 57.5 q15 28.5 29 48.5 q7 4 21 4 q7 0 13.5 -0.5 q6.5 -0.5 11.5 -1.5 ZM181 519 q0 35 23.5 58.5 q23.5 23.5 58.5 23.5 q35 0 58.5 -23.5 q23.5 -23.5 23.5 -58.5 q0 -35 -23.5 -58.5 q-23.5 -23.5 -58.5 -23.5 q-35 0 -58.5 23.5 q-23.5 23.5 -23.5 58.5 Z" /><glyph glyph-name="uniFB33" unicode="&#xfb33;" d="M860 842 q-72 0 -101 -36 q-29 -36 -29 -109 q0 -51 2.5 -104.5 q2.5 -53.5 7 -106.5 q4.5 -53 10.5 -104.5 q6 -51.5 13 -97.5 q6 -41 11.5 -80.5 q5.5 -39.5 5.5 -56.5 q0 -28 -18 -50 q-22 -28 -43.5 -58 q-21.5 -30 -40.5 -59 q-28 -3 -55 0 q-7 64 -9.5 145.5 q-2.5 81.5 -2.5 171.5 q0 78 1.5 157 q1.5 79 4 150 q2.5 71 5.5 129.5 q3 58.5 6 96.5 l-430 0 q-36 0 -70 3 q-34 3 -60.5 14 q-26.5 11 -42.5 32 q-16 21 -16 56 q0 9 3.5 28 q3.5 19 10.5 44.5 q7 25.5 16.5 57 q9.5 31.5 21.5 64.5 q10 5 22 7 q12 2 23 1 q13 -29 27.5 -45.5 q14.5 -16.5 33.5 -25 q19 -8.5 44 -11 q25 -2.5 59 -2.5 l641 0 q6 0 5 -7 q-15 -55 -26 -100 q-11 -45 -22 -97 q-1 -7 -8 -7 ZM278 519 q0 35 23.5 58.5 q23.5 23.5 58.5 23.5 q35 0 58.5 -23.5 q23.5 -23.5 23.5 -58.5 q0 -35 -23.5 -58.5 q-23.5 -23.5 -58.5 -23.5 q-35 0 -58.5 23.5 q-23.5 23.5 -23.5 58.5 Z" /><glyph glyph-name="uniFB34" unicode="&#xfb34;" d="M368 564 q-7 -25 -12 -44 q-5 -19 -8 -36 q-3 -17 -4.5 -34 q-1.5 -17 -2.5 -37 l-8 -308 q0 -9 -1.5 -17 q-1.5 -8 -8.5 -13 q-16 -12 -33 -25.5 q-17 -13.5 -32.5 -26 q-15.5 -12.5 -29 -24 q-13.5 -11.5 -22.5 -19.5 q-25 -3 -49 0 l31 380 q4 51 20.5 93.5 q16.5 42.5 38.5 65.5 q11 12 31.5 29.5 q20.5 17.5 43.5 31.5 q10 -2 24 -6 q14 -4 22 -10 ZM247 1137 q13 -29 27.5 -45.5 q14.5 -16.5 33.5 -25 q19 -8.5 44 -11 q25 -2.5 59 -2.5 l411 0 q63 0 105.5 -9 q42.5 -9 68 -26.5 q25.5 -17.5 36 -44 q10.5 -26.5 10.5 -61.5 q0 -34 -10.5 -74.5 q-10.5 -40.5 -22.5 -88.5 q0 -148 13 -263.5 q13 -115.5 25 -203.5 q6 -42 11 -77 q5 -35 5 -55 q0 -19 -4 -30 q-4 -11 -13 -23 q-21 -29 -40 -58 q-19 -29 -36 -59 q-28 -3 -55 0 q-3 19 -6.5 55 q-3.5 36 -6.5 77.5 q-3 41.5 -5 82.5 q-2 41 -2 71 q0 87 0.5 150 q0.5 63 1.5 107.5 q1 44.5 2 74.5 q1 30 2 52 q1 27 1.5 48 q0.5 21 0.5 48 q0 24 -3 40 q-3 16 -13.5 26 q-10.5 10 -31.5 14 q-21 4 -56 4 l-460 0 q-36 0 -70 3 q-34 3 -60.5 14 q-26.5 11 -42.5 32 q-16 21 -16 56 q0 9 3.5 28 q3.5 19 10.5 44.5 q7 25.5 16.5 57 q9.5 31.5 21.5 64.5 q10 5 22 7 q12 2 23 1 ZM528 519 q0 35 23.5 58.5 q23.5 23.5 58.5 23.5 q35 0 58.5 -23.5 q23.5 -23.5 23.5 -58.5 q0 -35 -23.5 -58.5 q-23.5 -23.5 -58.5 -23.5 q-35 0 -58.5 23.5 q-23.5 23.5 -23.5 58.5 Z" /><glyph glyph-name="uniFB35" unicode="&#xfb35;" d="M273 -20 q-2 20 -4 56.5 q-2 36.5 -4 78 q-2 41.5 -3 83.5 q-1 42 -1 72 q0 103 3 176.5 q3 73.5 7 128.5 q4 55 7 97 q3 42 3 82 q0 15 -7 24.5 q-7 9.5 -19 16 q-12 6.5 -27.5 10.5 q-15.5 4 -31.5 9 q-39 11 -70.5 20.5 q-31.5 9.5 -54.5 22 q-23 12.5 -35.5 29.5 q-12.5 17 -12.5 42 q0 14 6.5 40.5 q6.5 26.5 17 57 q10.5 30.5 23.5 60.5 q13 30 25 51 q8 5 21.5 5.5 q13.5 0.5 24.5 -1.5 q6 -24 16.5 -39.5 q10.5 -15.5 28.5 -26.5 q18 -11 44 -19 q26 -8 64 -18 q34 -9 56 -17 q22 -8 34 -16.5 q12 -8.5 16.5 -18.5 q4.5 -10 4.5 -22 q0 -8 -3 -26.5 q-3 -18.5 -6 -39.5 q-5 -34 -10.5 -82.5 q-5.5 -48.5 -5.5 -123.5 q0 -105 9.5 -208.5 q9.5 -103.5 23.5 -197.5 q6 -42 11 -79 q5 -37 5 -57 q0 -19 -4 -30 q-4 -11 -13 -23 q-22 -29 -44.5 -60 q-22.5 -31 -39.5 -57 q-28 -3 -55 0 ZM16 519 q0 35 23.5 58.5 q23.5 23.5 58.5 23.5 q35 0 58.5 -23.5 q23.5 -23.5 23.5 -58.5 q0 -35 -23.5 -58.5 q-23.5 -23.5 -58.5 -23.5 q-35 0 -58.5 23.5 q-23.5 23.5 -23.5 58.5 Z" /><glyph glyph-name="uniFB36" unicode="&#xfb36;" d="M214 1145 q4 -24 16.5 -40.5 q12.5 -16.5 31.5 -28.5 q19 -12 43.5 -20.5 q24.5 -8.5 53.5 -16.5 q27 -8 57.5 -17 q30.5 -9 60.5 -20 q30 -11 58 -25 q28 -14 51 -32 q7 -4 4 -13 q-9 -21 -19 -47 q-10 -26 -20 -53 q-10 -27 -19 -53 q-9 -26 -16 -47 q-2 -5 -7 -1 q-29 20 -56.5 33 q-27.5 13 -65.5 24 q-18 -108 -18 -219 q0 -104 16.5 -205.5 q16.5 -101.5 51.5 -197.5 q3 -8 5.5 -15 q2.5 -7 2.5 -15 q0 -14 -18 -38 q-23 -29 -45.5 -60.5 q-22.5 -31.5 -39.5 -57.5 q-14 -2 -23 -2 q-9 0 -23 2 q-26 91 -36 174.5 q-10 83.5 -10 158.5 q0 61 4 118.5 q4 57.5 9.5 108.5 q5.5 51 9.5 95.5 q4 44.5 4 80.5 q0 47 -9 75.5 q-9 28.5 -44 38.5 q-64 17 -96 39.5 q-32 22.5 -32 65.5 q0 14 6.5 40 q6.5 26 17 56 q10.5 30 23.5 59.5 q13 29.5 25 50.5 q8 5 21.5 5.5 q13.5 0.5 24.5 -1.5 ZM22 664 q0 35 23.5 58.5 q23.5 23.5 58.5 23.5 q35 0 58.5 -23.5 q23.5 -23.5 23.5 -58.5 q0 -35 -23.5 -58.5 q-23.5 -23.5 -58.5 -23.5 q-35 0 -58.5 23.5 q-23.5 23.5 -23.5 58.5 Z" /><glyph glyph-name="uniFB38" unicode="&#xfb38;" d="M512 737 q7 26 18.5 65 q11.5 39 25 80 q13.5 41 27 80 q13.5 39 24.5 65 q16 24 38.5 40.5 q22.5 16.5 47 27.5 q24.5 11 49.5 16 q25 5 48 5 q58 0 104 -19 q46 -19 81.5 -51 q35.5 -32 60 -75.5 q24.5 -43.5 40.5 -92 q16 -48.5 23 -100 q7 -51.5 7 -100.5 q0 -50 -7 -107.5 q-7 -57.5 -21 -116 q-14 -58.5 -36 -115.5 q-22 -57 -51 -106 q-29 -49 -66.5 -88 q-37.5 -39 -82.5 -61 q-38 -18 -85 -34 q-47 -16 -99 -30 q-52 -14 -107 -27 q-55 -13 -108 -25 q-20 3 -34 7.5 q-14 4.5 -29 14.5 q-41 62 -75 143.5 q-34 81.5 -59 164 q-25 82.5 -38.5 155 q-13.5 72.5 -11.5 116.5 q0 23 5.5 50.5 q5.5 27.5 13.5 55 q8 27.5 17 53.5 q9 26 16 46 q4 8 4 17 q0 12 -12.5 21 q-12.5 9 -44.5 27 q-25 14 -46 26 q-21 12 -36 24 q-15 12 -23 26 q-8 14 -7 32 q0 16 9.5 40.5 q9.5 24.5 24.5 51.5 q15 27 32.5 53.5 q17.5 26.5 33.5 47.5 q8 2 20 2 q7 0 13 -0.5 q6 -0.5 9 -2.5 q2 -16 6 -27 q4 -11 16 -21.5 q12 -10.5 34.5 -23 q22.5 -12.5 61.5 -31.5 q43 -21 66 -41.5 q23 -20.5 22 -40.5 q0 -16 -10.5 -38.5 q-10.5 -22.5 -24.5 -50.5 q-10 -20 -23.5 -47.5 q-13.5 -27.5 -25.5 -58 q-12 -30.5 -20.5 -63.5 q-8.5 -33 -8.5 -65 q0 -28 8 -66.5 q8 -38.5 21 -82 q13 -43.5 30 -88 q17 -44.5 35 -83.5 q18 -39 36 -69.5 q18 -30.5 33 -45.5 q40 7 95.5 18.5 q55.5 11.5 111 26.5 q55.5 15 103.5 32 q48 17 72 36 q63 51 96.5 130 q33.5 79 33.5 164 q0 56 -15 107.5 q-15 51.5 -45.5 90.5 q-30.5 39 -76 62.5 q-45.5 23.5 -105.5 23.5 q-21 0 -46.5 -6.5 q-25.5 -6.5 -51 -25 q-25.5 -18.5 -49.5 -51.5 q-24 -33 -42 -85 q-14 3 -26.5 7 q-12.5 4 -23.5 11 ZM571 549 q0 35 23.5 58.5 q23.5 23.5 58.5 23.5 q35 0 58.5 -23.5 q23.5 -23.5 23.5 -58.5 q0 -35 -23.5 -58.5 q-23.5 -23.5 -58.5 -23.5 q-35 0 -58.5 23.5 q-23.5 23.5 -23.5 58.5 Z" /><glyph glyph-name="uniFB39" unicode="&#xfb39;" d="M173 1153 q4 -27 13 -44 q9 -17 26.5 -29 q17.5 -12 44.5 -22 q27 -10 66 -22 q38 -12 67 -22.5 q29 -10.5 49 -24 q20 -13.5 30 -31 q10 -17.5 10 -42.5 q0 -60 -31.5 -172 q-31.5 -112 -99.5 -274 q-38 8 -68 24 q10 36 18 72 q8 36 14 68 q6 32 9 58.5 q3 26.5 3 43.5 q0 16 -4.5 27.5 q-4.5 11.5 -14.5 20.5 q-10 9 -26.5 17 q-16.5 8 -40.5 16 q-42 14 -75 25.5 q-33 11.5 -55.5 25 q-22.5 13.5 -34 31 q-11.5 17.5 -11.5 43.5 q0 17 6 43.5 q6 26.5 15.5 55.5 q9.5 29 21 57 q11.5 28 22.5 49 q8 5 21.5 5.5 q13.5 0.5 24.5 0.5 ZM61 656 q0 35 23.5 58.5 q23.5 23.5 58.5 23.5 q35 0 58.5 -23.5 q23.5 -23.5 23.5 -58.5 q0 -35 -23.5 -58.5 q-23.5 -23.5 -58.5 -23.5 q-35 0 -58.5 23.5 q-23.5 23.5 -23.5 58.5 Z" /></font>
</defs>
</svg>
